<svg width="162" height="123" viewBox="0 0 162 123" fill="none" xmlns="http://www.w3.org/2000/svg">
<g filter="url(#filter0_i)">
<path fill-rule="evenodd" clip-rule="evenodd" d="M115.019 115.515C129.451 119.382 144.286 110.817 148.153 96.3848C152.02 81.9524 143.456 67.1177 129.023 63.2506C120.482 60.9619 111.799 63.0277 105.333 68.0873C100.873 71.5766 97.4675 76.4899 95.889 82.3806C92.0219 96.813 100.587 111.648 115.019 115.515ZM132.122 98.7343C135.834 99.7289 139.653 97.513 140.652 93.7849C141.651 90.0568 139.452 86.2283 135.74 85.2336C132.028 84.239 128.209 86.4549 127.21 90.183C126.211 93.9111 128.41 97.7396 132.122 98.7343Z" fill="#C0C1C4"/>
</g>
<g filter="url(#filter1_i)">
<path d="M30.6449 54.7806C32.0563 55.1588 68.1533 65.1393 88.2921 69.842C91.2755 70.5387 90.2555 67.1897 92.5621 67.8088C95.0819 68.484 95.8364 70.3026 97.2941 71.0024C99.7145 72.1645 105.806 68.0838 105.806 68.0838L96.4116 98.0463C96.4116 98.0463 94.5085 93.1839 91.4983 93.3278C89.1859 93.4383 87.4454 95.1303 84.1435 94.2456C82.17 92.6898 83.8756 91.8604 82.7477 90.5338C81.7061 89.3085 79.1375 88.764 78.0535 88.4736C76.2844 87.7059 75.467 83.4042 73.6028 82.7236C71.7315 82.0404 70.9816 84.3962 67.4191 83.4417C66.2026 83.1157 66.144 81.6761 64.9867 81.2815C62.992 80.6013 61.9404 82.4551 58.9572 81.6557C57.5237 81.1587 56.9492 79.5716 55.6011 79.1196C53.4455 78.3969 52.4104 80.1372 49.544 79.1335C48.0899 78.6243 47.0362 76.5617 45.8707 76.1593C42.7195 75.0715 44.295 76.3629 41.2079 75.4877C40.3855 75.2545 39.7918 73.6812 39.0202 73.4572C37.4055 72.9886 36.8043 74.1965 34.7183 73.5241C33.8896 73.257 31.9179 71.0738 30.927 69.716C30.3414 68.9137 28.3296 68.3267 27.3953 66.9082C24.8798 63.0889 22.6701 61.7224 24.1334 58.4599C25.3483 55.7509 28.5885 54.2296 30.6449 54.7806Z" fill="#C0C1C4"/>
</g>
<path d="M26.6614 60.6862C65.127 71.5824 107.917 82.148 106.764 84.4785C105.612 86.8091 98.0645 86.8401 93.9958 85.777C89.9271 84.714 35.7843 70.4946 33.5757 69.1839C31.3671 67.8731 30.4056 66.7609 28.8826 64.4486C27.4893 62.8684 26.7224 61.3857 26.6614 60.6862Z" fill="url(#paint0_linear)"/>
<path d="M26.7559 19.2363V27H25.3906V19.2363H23.3105V17.9531H28.8301V19.2363H26.7559ZM28.9883 24.1055C28.9883 23.2812 29.2832 22.5801 29.873 22.002C30.4629 21.4238 31.1816 21.1348 32.0293 21.1348C32.8809 21.1348 33.6035 21.4258 34.1973 22.0078C34.7832 22.5898 35.0762 23.3047 35.0762 24.1523C35.0762 25.0078 34.7812 25.7246 34.1914 26.3027C33.5977 26.877 32.8691 27.1641 32.0059 27.1641C31.1504 27.1641 30.4336 26.8711 29.8555 26.2852C29.2773 25.707 28.9883 24.9805 28.9883 24.1055ZM30.3359 24.1289C30.3359 24.6992 30.4883 25.1504 30.793 25.4824C31.1055 25.8184 31.5176 25.9863 32.0293 25.9863C32.5449 25.9863 32.957 25.8203 33.2656 25.4883C33.5742 25.1562 33.7285 24.7129 33.7285 24.1582C33.7285 23.6035 33.5742 23.1602 33.2656 22.8281C32.9531 22.4922 32.541 22.3242 32.0293 22.3242C31.5254 22.3242 31.1172 22.4922 30.8047 22.8281C30.4922 23.1641 30.3359 23.5977 30.3359 24.1289ZM44.6211 21.5391V23.291C44.3203 22.9238 44.0508 22.6719 43.8125 22.5352C43.5781 22.3945 43.3027 22.3242 42.9863 22.3242C42.4902 22.3242 42.0781 22.498 41.75 22.8457C41.4219 23.1934 41.2578 23.6289 41.2578 24.1523C41.2578 24.6875 41.416 25.127 41.7324 25.4707C42.0527 25.8145 42.4609 25.9863 42.957 25.9863C43.2734 25.9863 43.5527 25.918 43.7949 25.7812C44.0293 25.6484 44.3047 25.3906 44.6211 25.0078V26.748C44.0859 27.0254 43.5508 27.1641 43.0156 27.1641C42.1328 27.1641 41.3945 26.8789 40.8008 26.3086C40.207 25.7344 39.9102 25.0215 39.9102 24.1699C39.9102 23.3184 40.2109 22.5996 40.8125 22.0137C41.4141 21.4277 42.1523 21.1348 43.0273 21.1348C43.5898 21.1348 44.1211 21.2695 44.6211 21.5391ZM45.6289 24.1055C45.6289 23.2812 45.9238 22.5801 46.5137 22.002C47.1035 21.4238 47.8223 21.1348 48.6699 21.1348C49.5215 21.1348 50.2441 21.4258 50.8379 22.0078C51.4238 22.5898 51.7168 23.3047 51.7168 24.1523C51.7168 25.0078 51.4219 25.7246 50.832 26.3027C50.2383 26.877 49.5098 27.1641 48.6465 27.1641C47.791 27.1641 47.0742 26.8711 46.4961 26.2852C45.918 25.707 45.6289 24.9805 45.6289 24.1055ZM46.9766 24.1289C46.9766 24.6992 47.1289 25.1504 47.4336 25.4824C47.7461 25.8184 48.1582 25.9863 48.6699 25.9863C49.1855 25.9863 49.5977 25.8203 49.9062 25.4883C50.2148 25.1562 50.3691 24.7129 50.3691 24.1582C50.3691 23.6035 50.2148 23.1602 49.9062 22.8281C49.5938 22.4922 49.1816 22.3242 48.6699 22.3242C48.166 22.3242 47.7578 22.4922 47.4453 22.8281C47.1328 23.1641 46.9766 23.5977 46.9766 24.1289ZM53.1172 21.293H54.4414V21.8203C54.9023 21.3633 55.4219 21.1348 56 21.1348C56.6641 21.1348 57.1816 21.3438 57.5527 21.7617C57.873 22.1172 58.0332 22.6973 58.0332 23.502V27H56.709V23.8125C56.709 23.25 56.6309 22.8613 56.4746 22.6465C56.3223 22.4277 56.0449 22.3184 55.6426 22.3184C55.2051 22.3184 54.8945 22.4629 54.7109 22.752C54.5312 23.0371 54.4414 23.5352 54.4414 24.2461V27H53.1172V21.293ZM61.0625 22.5234V27H59.7441V22.5234H59.1816V21.293H59.7441V19.2012H61.0625V21.293H62.0879V22.5234H61.0625ZM64.3027 21.293V27H62.9844V21.293H64.3027ZM62.7852 18.9199C62.7852 18.6895 62.8691 18.4902 63.0371 18.3223C63.2051 18.1543 63.4062 18.0703 63.6406 18.0703C63.8789 18.0703 64.082 18.1543 64.25 18.3223C64.418 18.4863 64.502 18.6875 64.502 18.9258C64.502 19.1641 64.418 19.3672 64.25 19.5352C64.0859 19.7031 63.8848 19.7871 63.6465 19.7871C63.4082 19.7871 63.2051 19.7031 63.0371 19.5352C62.8691 19.3672 62.7852 19.1621 62.7852 18.9199ZM65.9727 21.293H67.2969V21.8203C67.7578 21.3633 68.2773 21.1348 68.8555 21.1348C69.5195 21.1348 70.0371 21.3438 70.4082 21.7617C70.7285 22.1172 70.8887 22.6973 70.8887 23.502V27H69.5645V23.8125C69.5645 23.25 69.4863 22.8613 69.3301 22.6465C69.1777 22.4277 68.9004 22.3184 68.498 22.3184C68.0605 22.3184 67.75 22.4629 67.5664 22.752C67.3867 23.0371 67.2969 23.5352 67.2969 24.2461V27H65.9727V21.293ZM73.877 21.293V24.5684C73.877 25.5137 74.25 25.9863 74.9961 25.9863C75.7422 25.9863 76.1152 25.5137 76.1152 24.5684V21.293H77.4336V24.5977C77.4336 25.0547 77.377 25.4492 77.2637 25.7812C77.1543 26.0781 76.9648 26.3457 76.6953 26.584C76.25 26.9707 75.6836 27.1641 74.9961 27.1641C74.3125 27.1641 73.748 26.9707 73.3027 26.584C73.0293 26.3457 72.8359 26.0781 72.7227 25.7812C72.6133 25.5156 72.5586 25.1211 72.5586 24.5977V21.293H73.877ZM84.2949 24.457H80.2051C80.2402 24.9258 80.3926 25.2988 80.6621 25.5762C80.9316 25.8496 81.2773 25.9863 81.6992 25.9863C82.0273 25.9863 82.2988 25.9082 82.5137 25.752C82.7246 25.5957 82.9648 25.3066 83.2344 24.8848L84.3477 25.5059C84.1758 25.7988 83.9941 26.0508 83.8027 26.2617C83.6113 26.4688 83.4062 26.6406 83.1875 26.7773C82.9688 26.9102 82.7324 27.0078 82.4785 27.0703C82.2246 27.1328 81.9492 27.1641 81.6523 27.1641C80.8008 27.1641 80.1172 26.8906 79.6016 26.3438C79.0859 25.793 78.8281 25.0625 78.8281 24.1523C78.8281 23.25 79.0781 22.5195 79.5781 21.9609C80.082 21.4102 80.75 21.1348 81.582 21.1348C82.4219 21.1348 83.0859 21.4023 83.5742 21.9375C84.0586 22.4688 84.3008 23.2051 84.3008 24.1465L84.2949 24.457ZM82.9414 23.3789C82.7578 22.6758 82.3145 22.3242 81.6113 22.3242C81.4512 22.3242 81.3008 22.3496 81.1602 22.4004C81.0195 22.4473 80.8906 22.5176 80.7734 22.6113C80.6602 22.7012 80.5625 22.8105 80.4805 22.9395C80.3984 23.0684 80.3359 23.2148 80.293 23.3789H82.9414ZM91.2441 25.9395L88.6777 21.293H90.207L91.9531 24.5742L93.582 21.293H95.0703L90.5234 30.1055H89.0176L91.2441 25.9395ZM95.4688 24.1055C95.4688 23.2812 95.7637 22.5801 96.3535 22.002C96.9434 21.4238 97.6621 21.1348 98.5098 21.1348C99.3613 21.1348 100.084 21.4258 100.678 22.0078C101.264 22.5898 101.557 23.3047 101.557 24.1523C101.557 25.0078 101.262 25.7246 100.672 26.3027C100.078 26.877 99.3496 27.1641 98.4863 27.1641C97.6309 27.1641 96.9141 26.8711 96.3359 26.2852C95.7578 25.707 95.4688 24.9805 95.4688 24.1055ZM96.8164 24.1289C96.8164 24.6992 96.9688 25.1504 97.2734 25.4824C97.5859 25.8184 97.998 25.9863 98.5098 25.9863C99.0254 25.9863 99.4375 25.8203 99.7461 25.4883C100.055 25.1562 100.209 24.7129 100.209 24.1582C100.209 23.6035 100.055 23.1602 99.7461 22.8281C99.4336 22.4922 99.0215 22.3242 98.5098 22.3242C98.0059 22.3242 97.5977 22.4922 97.2852 22.8281C96.9727 23.1641 96.8164 23.5977 96.8164 24.1289ZM104.275 21.293V24.5684C104.275 25.5137 104.648 25.9863 105.395 25.9863C106.141 25.9863 106.514 25.5137 106.514 24.5684V21.293H107.832V24.5977C107.832 25.0547 107.775 25.4492 107.662 25.7812C107.553 26.0781 107.363 26.3457 107.094 26.584C106.648 26.9707 106.082 27.1641 105.395 27.1641C104.711 27.1641 104.146 26.9707 103.701 26.584C103.428 26.3457 103.234 26.0781 103.121 25.7812C103.012 25.5156 102.957 25.1211 102.957 24.5977V21.293H104.275ZM109.496 21.293H110.814V21.8027C111.057 21.5488 111.271 21.375 111.459 21.2812C111.65 21.1836 111.877 21.1348 112.139 21.1348C112.486 21.1348 112.85 21.248 113.229 21.4746L112.625 22.6816C112.375 22.502 112.131 22.4121 111.893 22.4121C111.174 22.4121 110.814 22.9551 110.814 24.041V27H109.496V21.293ZM119.006 21.293V30.1055H117.688V21.293H119.006ZM117.488 18.9199C117.488 18.6895 117.572 18.4902 117.74 18.3223C117.908 18.1543 118.109 18.0703 118.344 18.0703C118.582 18.0703 118.785 18.1543 118.953 18.3223C119.121 18.4863 119.205 18.6875 119.205 18.9258C119.205 19.1641 119.121 19.3672 118.953 19.5352C118.789 19.7031 118.588 19.7871 118.35 19.7871C118.111 19.7871 117.908 19.7031 117.74 19.5352C117.572 19.3672 117.488 19.1621 117.488 18.9199ZM120.406 24.1055C120.406 23.2812 120.701 22.5801 121.291 22.002C121.881 21.4238 122.6 21.1348 123.447 21.1348C124.299 21.1348 125.021 21.4258 125.615 22.0078C126.201 22.5898 126.494 23.3047 126.494 24.1523C126.494 25.0078 126.199 25.7246 125.609 26.3027C125.016 26.877 124.287 27.1641 123.424 27.1641C122.568 27.1641 121.852 26.8711 121.273 26.2852C120.695 25.707 120.406 24.9805 120.406 24.1055ZM121.754 24.1289C121.754 24.6992 121.906 25.1504 122.211 25.4824C122.523 25.8184 122.936 25.9863 123.447 25.9863C123.963 25.9863 124.375 25.8203 124.684 25.4883C124.992 25.1562 125.146 24.7129 125.146 24.1582C125.146 23.6035 124.992 23.1602 124.684 22.8281C124.371 22.4922 123.959 22.3242 123.447 22.3242C122.943 22.3242 122.535 22.4922 122.223 22.8281C121.91 23.1641 121.754 23.5977 121.754 24.1289ZM129.213 21.293V24.5684C129.213 25.5137 129.586 25.9863 130.332 25.9863C131.078 25.9863 131.451 25.5137 131.451 24.5684V21.293H132.77V24.5977C132.77 25.0547 132.713 25.4492 132.6 25.7812C132.49 26.0781 132.301 26.3457 132.031 26.584C131.586 26.9707 131.02 27.1641 130.332 27.1641C129.648 27.1641 129.084 26.9707 128.639 26.584C128.365 26.3457 128.172 26.0781 128.059 25.7812C127.949 25.5156 127.895 25.1211 127.895 24.5977V21.293H129.213ZM134.434 21.293H135.752V21.8027C135.994 21.5488 136.209 21.375 136.396 21.2812C136.588 21.1836 136.814 21.1348 137.076 21.1348C137.424 21.1348 137.787 21.248 138.166 21.4746L137.562 22.6816C137.312 22.502 137.068 22.4121 136.83 22.4121C136.111 22.4121 135.752 22.9551 135.752 24.041V27H134.434V21.293ZM139.109 21.293H140.434V21.8203C140.895 21.3633 141.414 21.1348 141.992 21.1348C142.656 21.1348 143.174 21.3438 143.545 21.7617C143.865 22.1172 144.025 22.6973 144.025 23.502V27H142.701V23.8125C142.701 23.25 142.623 22.8613 142.467 22.6465C142.314 22.4277 142.037 22.3184 141.635 22.3184C141.197 22.3184 140.887 22.4629 140.703 22.752C140.523 23.0371 140.434 23.5352 140.434 24.2461V27H139.109V21.293ZM150.893 24.457H146.803C146.838 24.9258 146.99 25.2988 147.26 25.5762C147.529 25.8496 147.875 25.9863 148.297 25.9863C148.625 25.9863 148.896 25.9082 149.111 25.752C149.322 25.5957 149.562 25.3066 149.832 24.8848L150.945 25.5059C150.773 25.7988 150.592 26.0508 150.4 26.2617C150.209 26.4688 150.004 26.6406 149.785 26.7773C149.566 26.9102 149.33 27.0078 149.076 27.0703C148.822 27.1328 148.547 27.1641 148.25 27.1641C147.398 27.1641 146.715 26.8906 146.199 26.3438C145.684 25.793 145.426 25.0625 145.426 24.1523C145.426 23.25 145.676 22.5195 146.176 21.9609C146.68 21.4102 147.348 21.1348 148.18 21.1348C149.02 21.1348 149.684 21.4023 150.172 21.9375C150.656 22.4688 150.898 23.2051 150.898 24.1465L150.893 24.457ZM149.539 23.3789C149.355 22.6758 148.912 22.3242 148.209 22.3242C148.049 22.3242 147.898 22.3496 147.758 22.4004C147.617 22.4473 147.488 22.5176 147.371 22.6113C147.258 22.7012 147.16 22.8105 147.078 22.9395C146.996 23.0684 146.934 23.2148 146.891 23.3789H149.539ZM153.928 25.9395L151.361 21.293H152.891L154.637 24.5742L156.266 21.293H157.754L153.207 30.1055H151.701L153.928 25.9395ZM29.0938 46.1055H27.7754V37.293H29.0938V37.9141C29.6133 37.3945 30.2031 37.1348 30.8633 37.1348C31.6484 37.1348 32.2949 37.4238 32.8027 38.002C33.3184 38.5762 33.5762 39.3008 33.5762 40.1758C33.5762 41.0312 33.3203 41.7441 32.8086 42.3145C32.3008 42.8809 31.6602 43.1641 30.8867 43.1641C30.2188 43.1641 29.6211 42.8965 29.0938 42.3613V46.1055ZM32.2285 40.1816C32.2285 39.6348 32.0801 39.1895 31.7832 38.8457C31.4824 38.498 31.1035 38.3242 30.6465 38.3242C30.1621 38.3242 29.7695 38.4922 29.4688 38.8281C29.168 39.1641 29.0176 39.6055 29.0176 40.1523C29.0176 40.6875 29.168 41.1289 29.4688 41.4766C29.7656 41.8164 30.1562 41.9863 30.6406 41.9863C31.0977 41.9863 31.4746 41.8145 31.7715 41.4707C32.0762 41.127 32.2285 40.6973 32.2285 40.1816ZM36.2891 33.1035V43H34.9707V33.1035H36.2891ZM43.1562 40.457H39.0664C39.1016 40.9258 39.2539 41.2988 39.5234 41.5762C39.793 41.8496 40.1387 41.9863 40.5605 41.9863C40.8887 41.9863 41.1602 41.9082 41.375 41.752C41.5859 41.5957 41.8262 41.3066 42.0957 40.8848L43.209 41.5059C43.0371 41.7988 42.8555 42.0508 42.6641 42.2617C42.4727 42.4688 42.2676 42.6406 42.0488 42.7773C41.8301 42.9102 41.5938 43.0078 41.3398 43.0703C41.0859 43.1328 40.8105 43.1641 40.5137 43.1641C39.6621 43.1641 38.9785 42.8906 38.4629 42.3438C37.9473 41.793 37.6895 41.0625 37.6895 40.1523C37.6895 39.25 37.9395 38.5195 38.4395 37.9609C38.9434 37.4102 39.6113 37.1348 40.4434 37.1348C41.2832 37.1348 41.9473 37.4023 42.4355 37.9375C42.9199 38.4688 43.1621 39.2051 43.1621 40.1465L43.1562 40.457ZM41.8027 39.3789C41.6191 38.6758 41.1758 38.3242 40.4727 38.3242C40.3125 38.3242 40.1621 38.3496 40.0215 38.4004C39.8809 38.4473 39.752 38.5176 39.6348 38.6113C39.5215 38.7012 39.4238 38.8105 39.3418 38.9395C39.2598 39.0684 39.1973 39.2148 39.1543 39.3789H41.8027ZM48.8105 37.293H50.1348V43H48.8105V42.4023C48.2676 42.9102 47.6836 43.1641 47.0586 43.1641C46.2695 43.1641 45.6172 42.8789 45.1016 42.3086C44.5898 41.7266 44.334 41 44.334 40.1289C44.334 39.2734 44.5898 38.5605 45.1016 37.9902C45.6133 37.4199 46.2539 37.1348 47.0234 37.1348C47.6875 37.1348 48.2832 37.4082 48.8105 37.9551V37.293ZM45.6816 40.1289C45.6816 40.6758 45.8281 41.1211 46.1211 41.4648C46.4219 41.8125 46.8008 41.9863 47.2578 41.9863C47.7461 41.9863 48.1406 41.8184 48.4414 41.4824C48.7422 41.1348 48.8926 40.6934 48.8926 40.1582C48.8926 39.623 48.7422 39.1816 48.4414 38.834C48.1406 38.4941 47.75 38.3242 47.2695 38.3242C46.8164 38.3242 46.4375 38.4961 46.1328 38.8398C45.832 39.1875 45.6816 39.6172 45.6816 40.1289ZM55.1152 38.2656L54.0254 38.8457C53.8535 38.4941 53.6406 38.3184 53.3867 38.3184C53.2656 38.3184 53.1621 38.3594 53.0762 38.4414C52.9902 38.5195 52.9473 38.6211 52.9473 38.7461C52.9473 38.9648 53.2012 39.1816 53.709 39.3965C54.4082 39.6973 54.8789 39.9746 55.1211 40.2285C55.3633 40.4824 55.4844 40.8242 55.4844 41.2539C55.4844 41.8047 55.2812 42.2656 54.875 42.6367C54.4805 42.9883 54.0039 43.1641 53.4453 43.1641C52.4883 43.1641 51.8105 42.6973 51.4121 41.7637L52.5371 41.2422C52.6934 41.5156 52.8125 41.6895 52.8945 41.7637C53.0547 41.9121 53.2461 41.9863 53.4688 41.9863C53.9141 41.9863 54.1367 41.7832 54.1367 41.377C54.1367 41.1426 53.9648 40.9238 53.6211 40.7207C53.4883 40.6543 53.3555 40.5898 53.2227 40.5273C53.0898 40.4648 52.9551 40.4004 52.8184 40.334C52.4355 40.1465 52.166 39.959 52.0098 39.7715C51.8105 39.5332 51.7109 39.2266 51.7109 38.8516C51.7109 38.3555 51.8809 37.9453 52.2207 37.6211C52.5684 37.2969 52.9902 37.1348 53.4863 37.1348C54.2168 37.1348 54.7598 37.5117 55.1152 38.2656ZM61.8711 40.457H57.7812C57.8164 40.9258 57.9688 41.2988 58.2383 41.5762C58.5078 41.8496 58.8535 41.9863 59.2754 41.9863C59.6035 41.9863 59.875 41.9082 60.0898 41.752C60.3008 41.5957 60.541 41.3066 60.8105 40.8848L61.9238 41.5059C61.752 41.7988 61.5703 42.0508 61.3789 42.2617C61.1875 42.4688 60.9824 42.6406 60.7637 42.7773C60.5449 42.9102 60.3086 43.0078 60.0547 43.0703C59.8008 43.1328 59.5254 43.1641 59.2285 43.1641C58.377 43.1641 57.6934 42.8906 57.1777 42.3438C56.6621 41.793 56.4043 41.0625 56.4043 40.1523C56.4043 39.25 56.6543 38.5195 57.1543 37.9609C57.6582 37.4102 58.3262 37.1348 59.1582 37.1348C59.998 37.1348 60.6621 37.4023 61.1504 37.9375C61.6348 38.4688 61.877 39.2051 61.877 40.1465L61.8711 40.457ZM60.5176 39.3789C60.334 38.6758 59.8906 38.3242 59.1875 38.3242C59.0273 38.3242 58.877 38.3496 58.7363 38.4004C58.5957 38.4473 58.4668 38.5176 58.3496 38.6113C58.2363 38.7012 58.1387 38.8105 58.0566 38.9395C57.9746 39.0684 57.9121 39.2148 57.8691 39.3789H60.5176ZM72.2188 40.457H68.1289C68.1641 40.9258 68.3164 41.2988 68.5859 41.5762C68.8555 41.8496 69.2012 41.9863 69.623 41.9863C69.9512 41.9863 70.2227 41.9082 70.4375 41.752C70.6484 41.5957 70.8887 41.3066 71.1582 40.8848L72.2715 41.5059C72.0996 41.7988 71.918 42.0508 71.7266 42.2617C71.5352 42.4688 71.3301 42.6406 71.1113 42.7773C70.8926 42.9102 70.6562 43.0078 70.4023 43.0703C70.1484 43.1328 69.873 43.1641 69.5762 43.1641C68.7246 43.1641 68.041 42.8906 67.5254 42.3438C67.0098 41.793 66.752 41.0625 66.752 40.1523C66.752 39.25 67.002 38.5195 67.502 37.9609C68.0059 37.4102 68.6738 37.1348 69.5059 37.1348C70.3457 37.1348 71.0098 37.4023 71.498 37.9375C71.9824 38.4688 72.2246 39.2051 72.2246 40.1465L72.2188 40.457ZM70.8652 39.3789C70.6816 38.6758 70.2383 38.3242 69.5352 38.3242C69.375 38.3242 69.2246 38.3496 69.084 38.4004C68.9434 38.4473 68.8145 38.5176 68.6973 38.6113C68.584 38.7012 68.4863 38.8105 68.4043 38.9395C68.3223 39.0684 68.2598 39.2148 68.2168 39.3789H70.8652ZM73.666 37.293H74.9902V37.8203C75.4512 37.3633 75.9707 37.1348 76.5488 37.1348C77.2129 37.1348 77.7305 37.3438 78.1016 37.7617C78.4219 38.1172 78.582 38.6973 78.582 39.502V43H77.2578V39.8125C77.2578 39.25 77.1797 38.8613 77.0234 38.6465C76.8711 38.4277 76.5938 38.3184 76.1914 38.3184C75.7539 38.3184 75.4434 38.4629 75.2598 38.752C75.0801 39.0371 74.9902 39.5352 74.9902 40.2461V43H73.666V37.293ZM81.6113 38.5234V43H80.293V38.5234H79.7305V37.293H80.293V35.2012H81.6113V37.293H82.6367V38.5234H81.6113ZM88.8359 40.457H84.7461C84.7812 40.9258 84.9336 41.2988 85.2031 41.5762C85.4727 41.8496 85.8184 41.9863 86.2402 41.9863C86.5684 41.9863 86.8398 41.9082 87.0547 41.752C87.2656 41.5957 87.5059 41.3066 87.7754 40.8848L88.8887 41.5059C88.7168 41.7988 88.5352 42.0508 88.3438 42.2617C88.1523 42.4688 87.9473 42.6406 87.7285 42.7773C87.5098 42.9102 87.2734 43.0078 87.0195 43.0703C86.7656 43.1328 86.4902 43.1641 86.1934 43.1641C85.3418 43.1641 84.6582 42.8906 84.1426 42.3438C83.627 41.793 83.3691 41.0625 83.3691 40.1523C83.3691 39.25 83.6191 38.5195 84.1191 37.9609C84.623 37.4102 85.291 37.1348 86.123 37.1348C86.9629 37.1348 87.627 37.4023 88.1152 37.9375C88.5996 38.4688 88.8418 39.2051 88.8418 40.1465L88.8359 40.457ZM87.4824 39.3789C87.2988 38.6758 86.8555 38.3242 86.1523 38.3242C85.9922 38.3242 85.8418 38.3496 85.7012 38.4004C85.5605 38.4473 85.4316 38.5176 85.3145 38.6113C85.2012 38.7012 85.1035 38.8105 85.0215 38.9395C84.9395 39.0684 84.877 39.2148 84.834 39.3789H87.4824ZM90.2832 37.293H91.6016V37.8027C91.8438 37.5488 92.0586 37.375 92.2461 37.2812C92.4375 37.1836 92.6641 37.1348 92.9258 37.1348C93.2734 37.1348 93.6367 37.248 94.0156 37.4746L93.4121 38.6816C93.1621 38.502 92.918 38.4121 92.6797 38.4121C91.9609 38.4121 91.6016 38.9551 91.6016 40.041V43H90.2832V37.293ZM99.793 37.293V40.5684C99.793 41.5137 100.166 41.9863 100.912 41.9863C101.658 41.9863 102.031 41.5137 102.031 40.5684V37.293H103.35V40.5977C103.35 41.0547 103.293 41.4492 103.18 41.7812C103.07 42.0781 102.881 42.3457 102.611 42.584C102.166 42.9707 101.6 43.1641 100.912 43.1641C100.229 43.1641 99.6641 42.9707 99.2188 42.584C98.9453 42.3457 98.752 42.0781 98.6387 41.7812C98.5293 41.5156 98.4746 41.1211 98.4746 40.5977V37.293H99.793ZM108.33 38.2656L107.24 38.8457C107.068 38.4941 106.855 38.3184 106.602 38.3184C106.48 38.3184 106.377 38.3594 106.291 38.4414C106.205 38.5195 106.162 38.6211 106.162 38.7461C106.162 38.9648 106.416 39.1816 106.924 39.3965C107.623 39.6973 108.094 39.9746 108.336 40.2285C108.578 40.4824 108.699 40.8242 108.699 41.2539C108.699 41.8047 108.496 42.2656 108.09 42.6367C107.695 42.9883 107.219 43.1641 106.66 43.1641C105.703 43.1641 105.025 42.6973 104.627 41.7637L105.752 41.2422C105.908 41.5156 106.027 41.6895 106.109 41.7637C106.27 41.9121 106.461 41.9863 106.684 41.9863C107.129 41.9863 107.352 41.7832 107.352 41.377C107.352 41.1426 107.18 40.9238 106.836 40.7207C106.703 40.6543 106.57 40.5898 106.438 40.5273C106.305 40.4648 106.17 40.4004 106.033 40.334C105.65 40.1465 105.381 39.959 105.225 39.7715C105.025 39.5332 104.926 39.2266 104.926 38.8516C104.926 38.3555 105.096 37.9453 105.436 37.6211C105.783 37.2969 106.205 37.1348 106.701 37.1348C107.432 37.1348 107.975 37.5117 108.33 38.2656ZM111.207 37.293V43H109.889V37.293H111.207ZM109.689 34.9199C109.689 34.6895 109.773 34.4902 109.941 34.3223C110.109 34.1543 110.311 34.0703 110.545 34.0703C110.783 34.0703 110.986 34.1543 111.154 34.3223C111.322 34.4863 111.406 34.6875 111.406 34.9258C111.406 35.1641 111.322 35.3672 111.154 35.5352C110.99 35.7031 110.789 35.7871 110.551 35.7871C110.312 35.7871 110.109 35.7031 109.941 35.5352C109.773 35.3672 109.689 35.1621 109.689 34.9199ZM112.877 37.293H114.201V37.8203C114.662 37.3633 115.182 37.1348 115.76 37.1348C116.424 37.1348 116.941 37.3438 117.312 37.7617C117.633 38.1172 117.793 38.6973 117.793 39.502V43H116.469V39.8125C116.469 39.25 116.391 38.8613 116.234 38.6465C116.082 38.4277 115.805 38.3184 115.402 38.3184C114.965 38.3184 114.654 38.4629 114.471 38.752C114.291 39.0371 114.201 39.5352 114.201 40.2461V43H112.877V37.293ZM124.982 42.8652C124.982 43.1348 124.973 43.3711 124.953 43.5742C124.938 43.7812 124.914 43.9629 124.883 44.1191C124.789 44.5488 124.605 44.918 124.332 45.2266C123.816 45.8203 123.107 46.1172 122.205 46.1172C121.443 46.1172 120.816 45.9121 120.324 45.502C119.816 45.0801 119.523 44.4961 119.445 43.75H120.77C120.82 44.0312 120.904 44.248 121.021 44.4004C121.295 44.7559 121.693 44.9336 122.217 44.9336C123.182 44.9336 123.664 44.3418 123.664 43.1582V42.3613C123.141 42.8965 122.537 43.1641 121.854 43.1641C121.076 43.1641 120.439 42.8828 119.943 42.3203C119.443 41.75 119.193 41.0371 119.193 40.1816C119.193 39.3496 119.426 38.6426 119.891 38.0605C120.391 37.4434 121.051 37.1348 121.871 37.1348C122.59 37.1348 123.188 37.4023 123.664 37.9375V37.293H124.982V42.8652ZM123.717 40.1582C123.717 39.6035 123.568 39.1602 123.271 38.8281C122.971 38.4883 122.586 38.3184 122.117 38.3184C121.617 38.3184 121.223 38.5039 120.934 38.875C120.672 39.207 120.541 39.6367 120.541 40.1641C120.541 40.6836 120.672 41.1094 120.934 41.4414C121.219 41.8047 121.613 41.9863 122.117 41.9863C122.621 41.9863 123.02 41.8027 123.312 41.4355C123.582 41.1035 123.717 40.6777 123.717 40.1582ZM132.148 41.9395L129.582 37.293H131.111L132.857 40.5742L134.486 37.293H135.975L131.428 46.1055H129.922L132.148 41.9395ZM136.373 40.1055C136.373 39.2812 136.668 38.5801 137.258 38.002C137.848 37.4238 138.566 37.1348 139.414 37.1348C140.266 37.1348 140.988 37.4258 141.582 38.0078C142.168 38.5898 142.461 39.3047 142.461 40.1523C142.461 41.0078 142.166 41.7246 141.576 42.3027C140.982 42.877 140.254 43.1641 139.391 43.1641C138.535 43.1641 137.818 42.8711 137.24 42.2852C136.662 41.707 136.373 40.9805 136.373 40.1055ZM137.721 40.1289C137.721 40.6992 137.873 41.1504 138.178 41.4824C138.49 41.8184 138.902 41.9863 139.414 41.9863C139.93 41.9863 140.342 41.8203 140.65 41.4883C140.959 41.1562 141.113 40.7129 141.113 40.1582C141.113 39.6035 140.959 39.1602 140.65 38.8281C140.338 38.4922 139.926 38.3242 139.414 38.3242C138.91 38.3242 138.502 38.4922 138.189 38.8281C137.877 39.1641 137.721 39.5977 137.721 40.1289ZM145.18 37.293V40.5684C145.18 41.5137 145.553 41.9863 146.299 41.9863C147.045 41.9863 147.418 41.5137 147.418 40.5684V37.293H148.736V40.5977C148.736 41.0547 148.68 41.4492 148.566 41.7812C148.457 42.0781 148.268 42.3457 147.998 42.584C147.553 42.9707 146.986 43.1641 146.299 43.1641C145.615 43.1641 145.051 42.9707 144.605 42.584C144.332 42.3457 144.139 42.0781 144.025 41.7812C143.916 41.5156 143.861 41.1211 143.861 40.5977V37.293H145.18ZM150.4 37.293H151.719V37.8027C151.961 37.5488 152.176 37.375 152.363 37.2812C152.555 37.1836 152.781 37.1348 153.043 37.1348C153.391 37.1348 153.754 37.248 154.133 37.4746L153.529 38.6816C153.279 38.502 153.035 38.4121 152.797 38.4121C152.078 38.4121 151.719 38.9551 151.719 40.041V43H150.4V37.293ZM78.084 49.1035V55.1387L79.9414 53.293H81.7109L79.2324 55.6895L81.8926 59H80.1816L78.2949 56.5918L78.084 56.8027V59H76.7656V49.1035H78.084ZM87.7402 56.457H83.6504C83.6855 56.9258 83.8379 57.2988 84.1074 57.5762C84.377 57.8496 84.7227 57.9863 85.1445 57.9863C85.4727 57.9863 85.7441 57.9082 85.959 57.752C86.1699 57.5957 86.4102 57.3066 86.6797 56.8848L87.793 57.5059C87.6211 57.7988 87.4395 58.0508 87.248 58.2617C87.0566 58.4688 86.8516 58.6406 86.6328 58.7773C86.4141 58.9102 86.1777 59.0078 85.9238 59.0703C85.6699 59.1328 85.3945 59.1641 85.0977 59.1641C84.2461 59.1641 83.5625 58.8906 83.0469 58.3438C82.5312 57.793 82.2734 57.0625 82.2734 56.1523C82.2734 55.25 82.5234 54.5195 83.0234 53.9609C83.5273 53.4102 84.1953 53.1348 85.0273 53.1348C85.8672 53.1348 86.5312 53.4023 87.0195 53.9375C87.5039 54.4688 87.7461 55.2051 87.7461 56.1465L87.7402 56.457ZM86.3867 55.3789C86.2031 54.6758 85.7598 54.3242 85.0566 54.3242C84.8965 54.3242 84.7461 54.3496 84.6055 54.4004C84.4648 54.4473 84.3359 54.5176 84.2188 54.6113C84.1055 54.7012 84.0078 54.8105 83.9258 54.9395C83.8438 55.0684 83.7812 55.2148 83.7383 55.3789H86.3867ZM90.7754 57.9395L88.209 53.293H89.7383L91.4844 56.5742L93.1133 53.293H94.6016L90.0547 62.1055H88.5488L90.7754 57.9395ZM94.9941 58.3438C94.9941 58.125 95.0742 57.9355 95.2344 57.7754C95.3945 57.6152 95.5859 57.5352 95.8086 57.5352C96.0312 57.5352 96.2227 57.6152 96.3828 57.7754C96.543 57.9355 96.623 58.127 96.623 58.3496C96.623 58.5762 96.543 58.7695 96.3828 58.9297C96.2266 59.0859 96.0352 59.1641 95.8086 59.1641C95.5781 59.1641 95.3848 59.0859 95.2285 58.9297C95.0723 58.7734 94.9941 58.5781 94.9941 58.3438ZM98.6973 58.3438C98.6973 58.125 98.7773 57.9355 98.9375 57.7754C99.0977 57.6152 99.2891 57.5352 99.5117 57.5352C99.7344 57.5352 99.9258 57.6152 100.086 57.7754C100.246 57.9355 100.326 58.127 100.326 58.3496C100.326 58.5762 100.246 58.7695 100.086 58.9297C99.9297 59.0859 99.7383 59.1641 99.5117 59.1641C99.2812 59.1641 99.0879 59.0859 98.9316 58.9297C98.7754 58.7734 98.6973 58.5781 98.6973 58.3438ZM102.4 58.3438C102.4 58.125 102.48 57.9355 102.641 57.7754C102.801 57.6152 102.992 57.5352 103.215 57.5352C103.438 57.5352 103.629 57.6152 103.789 57.7754C103.949 57.9355 104.029 58.127 104.029 58.3496C104.029 58.5762 103.949 58.7695 103.789 58.9297C103.633 59.0859 103.441 59.1641 103.215 59.1641C102.984 59.1641 102.791 59.0859 102.635 58.9297C102.479 58.7734 102.4 58.5781 102.4 58.3438Z" fill="white"/>
<path d="M14.1465 13.6914H9.45312L11.7031 9.85938H18.2422V37H14.1465V13.6914Z" fill="white"/>
<defs>
<filter id="filter0_i" x="88.887" y="55.2485" width="67.2683" height="67.2683" filterUnits="userSpaceOnUse" color-interpolation-filters="sRGB">
<feFlood flood-opacity="0" result="BackgroundImageFix"/>
<feBlend mode="normal" in="SourceGraphic" in2="BackgroundImageFix" result="shape"/>
<feColorMatrix in="SourceAlpha" type="matrix" values="0 0 0 0 0 0 0 0 0 0 0 0 0 0 0 0 0 0 127 0" result="hardAlpha"/>
<feOffset dx="1" dy="-3"/>
<feGaussianBlur stdDeviation="0.5"/>
<feComposite in2="hardAlpha" operator="arithmetic" k2="-1" k3="1"/>
<feColorMatrix type="matrix" values="0 0 0 0 0.501497 0 0 0 0 0.507548 0 0 0 0 0.519651 0 0 0 1 0"/>
<feBlend mode="normal" in2="shape" result="effect1_innerShadow"/>
</filter>
<filter id="filter1_i" x="19" y="46" width="87.8059" height="52.3878" filterUnits="userSpaceOnUse" color-interpolation-filters="sRGB">
<feFlood flood-opacity="0" result="BackgroundImageFix"/>
<feBlend mode="normal" in="SourceGraphic" in2="BackgroundImageFix" result="shape"/>
<feColorMatrix in="SourceAlpha" type="matrix" values="0 0 0 0 0 0 0 0 0 0 0 0 0 0 0 0 0 0 127 0" result="hardAlpha"/>
<feOffset dx="2" dy="-1"/>
<feGaussianBlur stdDeviation="0.5"/>
<feComposite in2="hardAlpha" operator="arithmetic" k2="-1" k3="1"/>
<feColorMatrix type="matrix" values="0 0 0 0 0.501497 0 0 0 0 0.507548 0 0 0 0 0.519651 0 0 0 1 0"/>
<feBlend mode="normal" in2="shape" result="effect1_innerShadow"/>
</filter>
<linearGradient id="paint0_linear" x1="66.7877" y1="71.5001" x2="65.0211" y2="78.0931" gradientUnits="userSpaceOnUse">
<stop stop-color="#B7B8BA"/>
<stop offset="0.248619" stop-color="#B7B8BA" stop-opacity="0.59"/>
<stop offset="0.430939" stop-color="#CECFD0" stop-opacity="0.29"/>
<stop offset="0.668508" stop-color="#BABCBE" stop-opacity="0.42"/>
<stop offset="0.961326" stop-color="#BABBBD"/>
</linearGradient>
</defs>
</svg>
