<svg width="138" height="105" viewBox="0 0 138 105" fill="none" xmlns="http://www.w3.org/2000/svg">
<path d="M32.4492 21.5625L35.9707 17.9531H37.793L33.7031 22.0488L37.8164 27H35.9883L32.7305 22.9746L32.4492 23.2559V27H31.084V17.9531H32.4492V21.5625ZM43.6113 24.457H39.5215C39.5566 24.9258 39.709 25.2988 39.9785 25.5762C40.248 25.8496 40.5938 25.9863 41.0156 25.9863C41.3438 25.9863 41.6152 25.9082 41.8301 25.752C42.041 25.5957 42.2812 25.3066 42.5508 24.8848L43.6641 25.5059C43.4922 25.7988 43.3105 26.0508 43.1191 26.2617C42.9277 26.4688 42.7227 26.6406 42.5039 26.7773C42.2852 26.9102 42.0488 27.0078 41.7949 27.0703C41.541 27.1328 41.2656 27.1641 40.9688 27.1641C40.1172 27.1641 39.4336 26.8906 38.918 26.3438C38.4023 25.793 38.1445 25.0625 38.1445 24.1523C38.1445 23.25 38.3945 22.5195 38.8945 21.9609C39.3984 21.4102 40.0664 21.1348 40.8984 21.1348C41.7383 21.1348 42.4023 21.4023 42.8906 21.9375C43.375 22.4688 43.6172 23.2051 43.6172 24.1465L43.6113 24.457ZM42.2578 23.3789C42.0742 22.6758 41.6309 22.3242 40.9277 22.3242C40.7676 22.3242 40.6172 22.3496 40.4766 22.4004C40.3359 22.4473 40.207 22.5176 40.0898 22.6113C39.9766 22.7012 39.8789 22.8105 39.7969 22.9395C39.7148 23.0684 39.6523 23.2148 39.6094 23.3789H42.2578ZM50.2559 24.457H46.166C46.2012 24.9258 46.3535 25.2988 46.623 25.5762C46.8926 25.8496 47.2383 25.9863 47.6602 25.9863C47.9883 25.9863 48.2598 25.9082 48.4746 25.752C48.6855 25.5957 48.9258 25.3066 49.1953 24.8848L50.3086 25.5059C50.1367 25.7988 49.9551 26.0508 49.7637 26.2617C49.5723 26.4688 49.3672 26.6406 49.1484 26.7773C48.9297 26.9102 48.6934 27.0078 48.4395 27.0703C48.1855 27.1328 47.9102 27.1641 47.6133 27.1641C46.7617 27.1641 46.0781 26.8906 45.5625 26.3438C45.0469 25.793 44.7891 25.0625 44.7891 24.1523C44.7891 23.25 45.0391 22.5195 45.5391 21.9609C46.043 21.4102 46.7109 21.1348 47.543 21.1348C48.3828 21.1348 49.0469 21.4023 49.5352 21.9375C50.0195 22.4688 50.2617 23.2051 50.2617 24.1465L50.2559 24.457ZM48.9023 23.3789C48.7188 22.6758 48.2754 22.3242 47.5723 22.3242C47.4121 22.3242 47.2617 22.3496 47.1211 22.4004C46.9805 22.4473 46.8516 22.5176 46.7344 22.6113C46.6211 22.7012 46.5234 22.8105 46.4414 22.9395C46.3594 23.0684 46.2969 23.2148 46.2539 23.3789H48.9023ZM53.0215 30.1055H51.7031V21.293H53.0215V21.9141C53.541 21.3945 54.1309 21.1348 54.791 21.1348C55.5762 21.1348 56.2227 21.4238 56.7305 22.002C57.2461 22.5762 57.5039 23.3008 57.5039 24.1758C57.5039 25.0312 57.248 25.7441 56.7363 26.3145C56.2285 26.8809 55.5879 27.1641 54.8145 27.1641C54.1465 27.1641 53.5488 26.8965 53.0215 26.3613V30.1055ZM56.1562 24.1816C56.1562 23.6348 56.0078 23.1895 55.7109 22.8457C55.4102 22.498 55.0312 22.3242 54.5742 22.3242C54.0898 22.3242 53.6973 22.4922 53.3965 22.8281C53.0957 23.1641 52.9453 23.6055 52.9453 24.1523C52.9453 24.6875 53.0957 25.1289 53.3965 25.4766C53.6934 25.8164 54.084 25.9863 54.5684 25.9863C55.0254 25.9863 55.4023 25.8145 55.6992 25.4707C56.0039 25.127 56.1562 24.6973 56.1562 24.1816ZM66.8086 21.293H68.1328V27H66.8086V26.4023C66.2656 26.9102 65.6816 27.1641 65.0566 27.1641C64.2676 27.1641 63.6152 26.8789 63.0996 26.3086C62.5879 25.7266 62.332 25 62.332 24.1289C62.332 23.2734 62.5879 22.5605 63.0996 21.9902C63.6113 21.4199 64.252 21.1348 65.0215 21.1348C65.6855 21.1348 66.2812 21.4082 66.8086 21.9551V21.293ZM63.6797 24.1289C63.6797 24.6758 63.8262 25.1211 64.1191 25.4648C64.4199 25.8125 64.7988 25.9863 65.2559 25.9863C65.7441 25.9863 66.1387 25.8184 66.4395 25.4824C66.7402 25.1348 66.8906 24.6934 66.8906 24.1582C66.8906 23.623 66.7402 23.1816 66.4395 22.834C66.1387 22.4941 65.748 22.3242 65.2676 22.3242C64.8145 22.3242 64.4355 22.4961 64.1309 22.8398C63.8301 23.1875 63.6797 23.6172 63.6797 24.1289ZM77.707 17.1035H79.0312V27H77.707V26.4023C77.1875 26.9102 76.5996 27.1641 75.9434 27.1641C75.1621 27.1641 74.5137 26.8789 73.998 26.3086C73.4863 25.7266 73.2305 25 73.2305 24.1289C73.2305 23.2773 73.4863 22.5664 73.998 21.9961C74.5059 21.4219 75.1445 21.1348 75.9141 21.1348C76.582 21.1348 77.1797 21.4082 77.707 21.9551V17.1035ZM74.5781 24.1289C74.5781 24.6758 74.7246 25.1211 75.0176 25.4648C75.3184 25.8125 75.6973 25.9863 76.1543 25.9863C76.6426 25.9863 77.0371 25.8184 77.3379 25.4824C77.6387 25.1348 77.7891 24.6934 77.7891 24.1582C77.7891 23.623 77.6387 23.1816 77.3379 22.834C77.0371 22.4941 76.6465 22.3242 76.166 22.3242C75.7129 22.3242 75.334 22.4961 75.0293 22.8398C74.7285 23.1875 74.5781 23.6172 74.5781 24.1289ZM82.0137 21.293V27H80.6953V21.293H82.0137ZM80.4961 18.9199C80.4961 18.6895 80.5801 18.4902 80.748 18.3223C80.916 18.1543 81.1172 18.0703 81.3516 18.0703C81.5898 18.0703 81.793 18.1543 81.9609 18.3223C82.1289 18.4863 82.2129 18.6875 82.2129 18.9258C82.2129 19.1641 82.1289 19.3672 81.9609 19.5352C81.7969 19.7031 81.5957 19.7871 81.3574 19.7871C81.1191 19.7871 80.916 19.7031 80.748 19.5352C80.5801 19.3672 80.4961 19.1621 80.4961 18.9199ZM87.8906 21.293H89.2148V27H87.8906V26.4023C87.3477 26.9102 86.7637 27.1641 86.1387 27.1641C85.3496 27.1641 84.6973 26.8789 84.1816 26.3086C83.6699 25.7266 83.4141 25 83.4141 24.1289C83.4141 23.2734 83.6699 22.5605 84.1816 21.9902C84.6934 21.4199 85.334 21.1348 86.1035 21.1348C86.7676 21.1348 87.3633 21.4082 87.8906 21.9551V21.293ZM84.7617 24.1289C84.7617 24.6758 84.9082 25.1211 85.2012 25.4648C85.502 25.8125 85.8809 25.9863 86.3379 25.9863C86.8262 25.9863 87.2207 25.8184 87.5215 25.4824C87.8223 25.1348 87.9727 24.6934 87.9727 24.1582C87.9727 23.623 87.8223 23.1816 87.5215 22.834C87.2207 22.4941 86.8301 22.3242 86.3496 22.3242C85.8965 22.3242 85.5176 22.4961 85.2129 22.8398C84.9121 23.1875 84.7617 23.6172 84.7617 24.1289ZM90.8789 21.293H92.1973V21.8027C92.4395 21.5488 92.6543 21.375 92.8418 21.2812C93.0332 21.1836 93.2598 21.1348 93.5215 21.1348C93.8691 21.1348 94.2324 21.248 94.6113 21.4746L94.0078 22.6816C93.7578 22.502 93.5137 22.4121 93.2754 22.4121C92.5566 22.4121 92.1973 22.9551 92.1973 24.041V27H90.8789V21.293ZM97.6934 25.9395L95.127 21.293H96.6562L98.4023 24.5742L100.031 21.293H101.52L96.9727 30.1055H95.4668L97.6934 25.9395ZM105.855 24.1055C105.855 23.2812 106.15 22.5801 106.74 22.002C107.33 21.4238 108.049 21.1348 108.896 21.1348C109.748 21.1348 110.471 21.4258 111.064 22.0078C111.65 22.5898 111.943 23.3047 111.943 24.1523C111.943 25.0078 111.648 25.7246 111.059 26.3027C110.465 26.877 109.736 27.1641 108.873 27.1641C108.018 27.1641 107.301 26.8711 106.723 26.2852C106.145 25.707 105.855 24.9805 105.855 24.1055ZM107.203 24.1289C107.203 24.6992 107.355 25.1504 107.66 25.4824C107.973 25.8184 108.385 25.9863 108.896 25.9863C109.412 25.9863 109.824 25.8203 110.133 25.4883C110.441 25.1562 110.596 24.7129 110.596 24.1582C110.596 23.6035 110.441 23.1602 110.133 22.8281C109.82 22.4922 109.408 22.3242 108.896 22.3242C108.393 22.3242 107.984 22.4922 107.672 22.8281C107.359 23.1641 107.203 23.5977 107.203 24.1289ZM114.709 22.5234V27H113.385V22.5234H112.916V21.293H113.385V19.0898C113.385 18.3711 113.51 17.8633 113.76 17.5664C114.104 17.1523 114.604 16.9453 115.26 16.9453C115.494 16.9453 115.789 17.0137 116.145 17.1504V18.498L116.01 18.4277C115.725 18.2832 115.49 18.2109 115.307 18.2109C115.072 18.2109 114.914 18.2949 114.832 18.4629C114.75 18.627 114.709 18.9434 114.709 19.4121V21.293H116.145V22.5234H114.709ZM32.6309 41.9395L30.0645 37.293H31.5938L33.3398 40.5742L34.9688 37.293H36.457L31.9102 46.1055H30.4043L32.6309 41.9395ZM36.8555 40.1055C36.8555 39.2812 37.1504 38.5801 37.7402 38.002C38.3301 37.4238 39.0488 37.1348 39.8965 37.1348C40.748 37.1348 41.4707 37.4258 42.0645 38.0078C42.6504 38.5898 42.9434 39.3047 42.9434 40.1523C42.9434 41.0078 42.6484 41.7246 42.0586 42.3027C41.4648 42.877 40.7363 43.1641 39.873 43.1641C39.0176 43.1641 38.3008 42.8711 37.7227 42.2852C37.1445 41.707 36.8555 40.9805 36.8555 40.1055ZM38.2031 40.1289C38.2031 40.6992 38.3555 41.1504 38.6602 41.4824C38.9727 41.8184 39.3848 41.9863 39.8965 41.9863C40.4121 41.9863 40.8242 41.8203 41.1328 41.4883C41.4414 41.1562 41.5957 40.7129 41.5957 40.1582C41.5957 39.6035 41.4414 39.1602 41.1328 38.8281C40.8203 38.4922 40.4082 38.3242 39.8965 38.3242C39.3926 38.3242 38.9844 38.4922 38.6719 38.8281C38.3594 39.1641 38.2031 39.5977 38.2031 40.1289ZM45.6621 37.293V40.5684C45.6621 41.5137 46.0352 41.9863 46.7812 41.9863C47.5273 41.9863 47.9004 41.5137 47.9004 40.5684V37.293H49.2188V40.5977C49.2188 41.0547 49.1621 41.4492 49.0488 41.7812C48.9395 42.0781 48.75 42.3457 48.4805 42.584C48.0352 42.9707 47.4688 43.1641 46.7812 43.1641C46.0977 43.1641 45.5332 42.9707 45.0879 42.584C44.8145 42.3457 44.6211 42.0781 44.5078 41.7812C44.3984 41.5156 44.3438 41.1211 44.3438 40.5977V37.293H45.6621ZM50.8828 37.293H52.2012V37.8027C52.4434 37.5488 52.6582 37.375 52.8457 37.2812C53.0371 37.1836 53.2637 37.1348 53.5254 37.1348C53.873 37.1348 54.2363 37.248 54.6152 37.4746L54.0117 38.6816C53.7617 38.502 53.5176 38.4121 53.2793 38.4121C52.5605 38.4121 52.2012 38.9551 52.2012 40.041V43H50.8828V37.293ZM63.2812 37.293H64.6055V43H63.2812V42.4023C62.7383 42.9102 62.1543 43.1641 61.5293 43.1641C60.7402 43.1641 60.0879 42.8789 59.5723 42.3086C59.0605 41.7266 58.8047 41 58.8047 40.1289C58.8047 39.2734 59.0605 38.5605 59.5723 37.9902C60.084 37.4199 60.7246 37.1348 61.4941 37.1348C62.1582 37.1348 62.7539 37.4082 63.2812 37.9551V37.293ZM60.1523 40.1289C60.1523 40.6758 60.2988 41.1211 60.5918 41.4648C60.8926 41.8125 61.2715 41.9863 61.7285 41.9863C62.2168 41.9863 62.6113 41.8184 62.9121 41.4824C63.2129 41.1348 63.3633 40.6934 63.3633 40.1582C63.3633 39.623 63.2129 39.1816 62.9121 38.834C62.6113 38.4941 62.2207 38.3242 61.7402 38.3242C61.2871 38.3242 60.9082 38.4961 60.6035 38.8398C60.3027 39.1875 60.1523 39.6172 60.1523 40.1289ZM70.4766 33.1035H71.8008V43H70.4766V42.4023C69.957 42.9102 69.3691 43.1641 68.7129 43.1641C67.9316 43.1641 67.2832 42.8789 66.7676 42.3086C66.2559 41.7266 66 41 66 40.1289C66 39.2773 66.2559 38.5664 66.7676 37.9961C67.2754 37.4219 67.9141 37.1348 68.6836 37.1348C69.3516 37.1348 69.9492 37.4082 70.4766 37.9551V33.1035ZM67.3477 40.1289C67.3477 40.6758 67.4941 41.1211 67.7871 41.4648C68.0879 41.8125 68.4668 41.9863 68.9238 41.9863C69.4121 41.9863 69.8066 41.8184 70.1074 41.4824C70.4082 41.1348 70.5586 40.6934 70.5586 40.1582C70.5586 39.623 70.4082 39.1816 70.1074 38.834C69.8066 38.4941 69.416 38.3242 68.9355 38.3242C68.4824 38.3242 68.1035 38.4961 67.7988 38.8398C67.498 39.1875 67.3477 39.6172 67.3477 40.1289ZM74.1738 37.293L75.6504 40.498L77.1211 37.293H78.6035L75.6387 43.3926L72.6973 37.293H74.1738ZM84.4863 40.457H80.3965C80.4316 40.9258 80.584 41.2988 80.8535 41.5762C81.123 41.8496 81.4688 41.9863 81.8906 41.9863C82.2188 41.9863 82.4902 41.9082 82.7051 41.752C82.916 41.5957 83.1562 41.3066 83.4258 40.8848L84.5391 41.5059C84.3672 41.7988 84.1855 42.0508 83.9941 42.2617C83.8027 42.4688 83.5977 42.6406 83.3789 42.7773C83.1602 42.9102 82.9238 43.0078 82.6699 43.0703C82.416 43.1328 82.1406 43.1641 81.8438 43.1641C80.9922 43.1641 80.3086 42.8906 79.793 42.3438C79.2773 41.793 79.0195 41.0625 79.0195 40.1523C79.0195 39.25 79.2695 38.5195 79.7695 37.9609C80.2734 37.4102 80.9414 37.1348 81.7734 37.1348C82.6133 37.1348 83.2773 37.4023 83.7656 37.9375C84.25 38.4688 84.4922 39.2051 84.4922 40.1465L84.4863 40.457ZM83.1328 39.3789C82.9492 38.6758 82.5059 38.3242 81.8027 38.3242C81.6426 38.3242 81.4922 38.3496 81.3516 38.4004C81.2109 38.4473 81.082 38.5176 80.9648 38.6113C80.8516 38.7012 80.7539 38.8105 80.6719 38.9395C80.5898 39.0684 80.5273 39.2148 80.4844 39.3789H83.1328ZM85.9336 37.293H87.2578V37.8203C87.7188 37.3633 88.2383 37.1348 88.8164 37.1348C89.4805 37.1348 89.998 37.3438 90.3691 37.7617C90.6895 38.1172 90.8496 38.6973 90.8496 39.502V43H89.5254V39.8125C89.5254 39.25 89.4473 38.8613 89.291 38.6465C89.1387 38.4277 88.8613 38.3184 88.459 38.3184C88.0215 38.3184 87.7109 38.4629 87.5273 38.752C87.3477 39.0371 87.2578 39.5352 87.2578 40.2461V43H85.9336V37.293ZM93.8789 38.5234V43H92.5605V38.5234H91.998V37.293H92.5605V35.2012H93.8789V37.293H94.9043V38.5234H93.8789ZM97.1191 37.293V40.5684C97.1191 41.5137 97.4922 41.9863 98.2383 41.9863C98.9844 41.9863 99.3574 41.5137 99.3574 40.5684V37.293H100.676V40.5977C100.676 41.0547 100.619 41.4492 100.506 41.7812C100.396 42.0781 100.207 42.3457 99.9375 42.584C99.4922 42.9707 98.9258 43.1641 98.2383 43.1641C97.5547 43.1641 96.9902 42.9707 96.5449 42.584C96.2715 42.3457 96.0781 42.0781 95.9648 41.7812C95.8555 41.5156 95.8008 41.1211 95.8008 40.5977V37.293H97.1191ZM102.34 37.293H103.658V37.8027C103.9 37.5488 104.115 37.375 104.303 37.2812C104.494 37.1836 104.721 37.1348 104.982 37.1348C105.33 37.1348 105.693 37.248 106.072 37.4746L105.469 38.6816C105.219 38.502 104.975 38.4121 104.736 38.4121C104.018 38.4121 103.658 38.9551 103.658 40.041V43H102.34V37.293ZM111.943 40.457H107.854C107.889 40.9258 108.041 41.2988 108.311 41.5762C108.58 41.8496 108.926 41.9863 109.348 41.9863C109.676 41.9863 109.947 41.9082 110.162 41.752C110.373 41.5957 110.613 41.3066 110.883 40.8848L111.996 41.5059C111.824 41.7988 111.643 42.0508 111.451 42.2617C111.26 42.4688 111.055 42.6406 110.836 42.7773C110.617 42.9102 110.381 43.0078 110.127 43.0703C109.873 43.1328 109.598 43.1641 109.301 43.1641C108.449 43.1641 107.766 42.8906 107.25 42.3438C106.734 41.793 106.477 41.0625 106.477 40.1523C106.477 39.25 106.727 38.5195 107.227 37.9609C107.73 37.4102 108.398 37.1348 109.23 37.1348C110.07 37.1348 110.734 37.4023 111.223 37.9375C111.707 38.4688 111.949 39.2051 111.949 40.1465L111.943 40.457ZM110.59 39.3789C110.406 38.6758 109.963 38.3242 109.26 38.3242C109.1 38.3242 108.949 38.3496 108.809 38.4004C108.668 38.4473 108.539 38.5176 108.422 38.6113C108.309 38.7012 108.211 38.8105 108.129 38.9395C108.047 39.0684 107.984 39.2148 107.941 39.3789H110.59ZM116.707 38.2656L115.617 38.8457C115.445 38.4941 115.232 38.3184 114.979 38.3184C114.857 38.3184 114.754 38.3594 114.668 38.4414C114.582 38.5195 114.539 38.6211 114.539 38.7461C114.539 38.9648 114.793 39.1816 115.301 39.3965C116 39.6973 116.471 39.9746 116.713 40.2285C116.955 40.4824 117.076 40.8242 117.076 41.2539C117.076 41.8047 116.873 42.2656 116.467 42.6367C116.072 42.9883 115.596 43.1641 115.037 43.1641C114.08 43.1641 113.402 42.6973 113.004 41.7637L114.129 41.2422C114.285 41.5156 114.404 41.6895 114.486 41.7637C114.646 41.9121 114.838 41.9863 115.061 41.9863C115.506 41.9863 115.729 41.7832 115.729 41.377C115.729 41.1426 115.557 40.9238 115.213 40.7207C115.08 40.6543 114.947 40.5898 114.814 40.5273C114.682 40.4648 114.547 40.4004 114.41 40.334C114.027 40.1465 113.758 39.959 113.602 39.7715C113.402 39.5332 113.303 39.2266 113.303 38.8516C113.303 38.3555 113.473 37.9453 113.812 37.6211C114.16 37.2969 114.582 37.1348 115.078 37.1348C115.809 37.1348 116.352 37.5117 116.707 38.2656ZM32.1504 53.293V59H30.832V53.293H32.1504ZM30.6328 50.9199C30.6328 50.6895 30.7168 50.4902 30.8848 50.3223C31.0527 50.1543 31.2539 50.0703 31.4883 50.0703C31.7266 50.0703 31.9297 50.1543 32.0977 50.3223C32.2656 50.4863 32.3496 50.6875 32.3496 50.9258C32.3496 51.1641 32.2656 51.3672 32.0977 51.5352C31.9336 51.7031 31.7324 51.7871 31.4941 51.7871C31.2559 51.7871 31.0527 51.7031 30.8848 51.5352C30.7168 51.3672 30.6328 51.1621 30.6328 50.9199ZM33.8203 53.293H35.1445V53.8203C35.6055 53.3633 36.125 53.1348 36.7031 53.1348C37.3672 53.1348 37.8848 53.3438 38.2559 53.7617C38.5762 54.1172 38.7363 54.6973 38.7363 55.502V59H37.4121V55.8125C37.4121 55.25 37.334 54.8613 37.1777 54.6465C37.0254 54.4277 36.748 54.3184 36.3457 54.3184C35.9082 54.3184 35.5977 54.4629 35.4141 54.752C35.2344 55.0371 35.1445 55.5352 35.1445 56.2461V59H33.8203V53.293ZM45.4688 54.5234V59H44.1504V54.5234H43.5879V53.293H44.1504V51.2012H45.4688V53.293H46.4941V54.5234H45.4688ZM47.6367 49.1035H48.9551V53.7676C49.4238 53.3457 49.9414 53.1348 50.5078 53.1348C51.1523 53.1348 51.668 53.3438 52.0547 53.7617C52.3828 54.125 52.5469 54.7051 52.5469 55.502V59H51.2285V55.625C51.2285 55.168 51.1465 54.8379 50.9824 54.6348C50.8223 54.4277 50.5625 54.3242 50.2031 54.3242C49.7422 54.3242 49.418 54.4668 49.2305 54.752C49.0469 55.041 48.9551 55.5371 48.9551 56.2402V59H47.6367V49.1035ZM59.4199 56.457H55.3301C55.3652 56.9258 55.5176 57.2988 55.7871 57.5762C56.0566 57.8496 56.4023 57.9863 56.8242 57.9863C57.1523 57.9863 57.4238 57.9082 57.6387 57.752C57.8496 57.5957 58.0898 57.3066 58.3594 56.8848L59.4727 57.5059C59.3008 57.7988 59.1191 58.0508 58.9277 58.2617C58.7363 58.4688 58.5312 58.6406 58.3125 58.7773C58.0938 58.9102 57.8574 59.0078 57.6035 59.0703C57.3496 59.1328 57.0742 59.1641 56.7773 59.1641C55.9258 59.1641 55.2422 58.8906 54.7266 58.3438C54.2109 57.793 53.9531 57.0625 53.9531 56.1523C53.9531 55.25 54.2031 54.5195 54.7031 53.9609C55.207 53.4102 55.875 53.1348 56.707 53.1348C57.5469 53.1348 58.2109 53.4023 58.6992 53.9375C59.1836 54.4688 59.4258 55.2051 59.4258 56.1465L59.4199 56.457ZM58.0664 55.3789C57.8828 54.6758 57.4395 54.3242 56.7363 54.3242C56.5762 54.3242 56.4258 54.3496 56.2852 54.4004C56.1445 54.4473 56.0156 54.5176 55.8984 54.6113C55.7852 54.7012 55.6875 54.8105 55.6055 54.9395C55.5234 55.0684 55.4609 55.2148 55.418 55.3789H58.0664ZM64.5703 53.293H65.8887V53.8203C66.1426 53.5547 66.3594 53.375 66.5391 53.2812C66.7305 53.1836 66.9707 53.1348 67.2598 53.1348C67.9043 53.1348 68.4141 53.416 68.7891 53.9785C69.2031 53.416 69.7637 53.1348 70.4707 53.1348C71.7559 53.1348 72.3984 53.9141 72.3984 55.4727V59H71.0742V55.8301C71.0742 55.2832 71.0078 54.8965 70.875 54.6699C70.7383 54.4395 70.5137 54.3242 70.2012 54.3242C69.8379 54.3242 69.5723 54.4609 69.4043 54.7344C69.2402 55.0078 69.1582 55.4473 69.1582 56.0527V59H67.834V55.8477C67.834 54.832 67.541 54.3242 66.9551 54.3242C66.584 54.3242 66.3125 54.4629 66.1406 54.7402C65.9727 55.0176 65.8887 55.4551 65.8887 56.0527V59H64.5703V53.293ZM79.2598 56.457H75.1699C75.2051 56.9258 75.3574 57.2988 75.627 57.5762C75.8965 57.8496 76.2422 57.9863 76.6641 57.9863C76.9922 57.9863 77.2637 57.9082 77.4785 57.752C77.6895 57.5957 77.9297 57.3066 78.1992 56.8848L79.3125 57.5059C79.1406 57.7988 78.959 58.0508 78.7676 58.2617C78.5762 58.4688 78.3711 58.6406 78.1523 58.7773C77.9336 58.9102 77.6973 59.0078 77.4434 59.0703C77.1895 59.1328 76.9141 59.1641 76.6172 59.1641C75.7656 59.1641 75.082 58.8906 74.5664 58.3438C74.0508 57.793 73.793 57.0625 73.793 56.1523C73.793 55.25 74.043 54.5195 74.543 53.9609C75.0469 53.4102 75.7148 53.1348 76.5469 53.1348C77.3867 53.1348 78.0508 53.4023 78.5391 53.9375C79.0234 54.4688 79.2656 55.2051 79.2656 56.1465L79.2598 56.457ZM77.9062 55.3789C77.7227 54.6758 77.2793 54.3242 76.5762 54.3242C76.416 54.3242 76.2656 54.3496 76.125 54.4004C75.9844 54.4473 75.8555 54.5176 75.7383 54.6113C75.625 54.7012 75.5273 54.8105 75.4453 54.9395C75.3633 55.0684 75.3008 55.2148 75.2578 55.3789H77.9062ZM80.707 53.293H82.0312V53.8203C82.4922 53.3633 83.0117 53.1348 83.5898 53.1348C84.2539 53.1348 84.7715 53.3438 85.1426 53.7617C85.4629 54.1172 85.623 54.6973 85.623 55.502V59H84.2988V55.8125C84.2988 55.25 84.2207 54.8613 84.0645 54.6465C83.9121 54.4277 83.6348 54.3184 83.2324 54.3184C82.7949 54.3184 82.4844 54.4629 82.3008 54.752C82.1211 55.0371 82.0312 55.5352 82.0312 56.2461V59H80.707V53.293ZM88.6113 53.293V56.5684C88.6113 57.5137 88.9844 57.9863 89.7305 57.9863C90.4766 57.9863 90.8496 57.5137 90.8496 56.5684V53.293H92.168V56.5977C92.168 57.0547 92.1113 57.4492 91.998 57.7812C91.8887 58.0781 91.6992 58.3457 91.4297 58.584C90.9844 58.9707 90.418 59.1641 89.7305 59.1641C89.0469 59.1641 88.4824 58.9707 88.0371 58.584C87.7637 58.3457 87.5703 58.0781 87.457 57.7812C87.3477 57.5156 87.293 57.1211 87.293 56.5977V53.293H88.6113ZM101.742 53.293H103.066V59H101.742V58.4023C101.199 58.9102 100.615 59.1641 99.9902 59.1641C99.2012 59.1641 98.5488 58.8789 98.0332 58.3086C97.5215 57.7266 97.2656 57 97.2656 56.1289C97.2656 55.2734 97.5215 54.5605 98.0332 53.9902C98.5449 53.4199 99.1855 53.1348 99.9551 53.1348C100.619 53.1348 101.215 53.4082 101.742 53.9551V53.293ZM98.6133 56.1289C98.6133 56.6758 98.7598 57.1211 99.0527 57.4648C99.3535 57.8125 99.7324 57.9863 100.189 57.9863C100.678 57.9863 101.072 57.8184 101.373 57.4824C101.674 57.1348 101.824 56.6934 101.824 56.1582C101.824 55.623 101.674 55.1816 101.373 54.834C101.072 54.4941 100.682 54.3242 100.201 54.3242C99.748 54.3242 99.3691 54.4961 99.0645 54.8398C98.7637 55.1875 98.6133 55.6172 98.6133 56.1289ZM106.09 54.5234V59H104.771V54.5234H104.209V53.293H104.771V51.2012H106.09V53.293H107.115V54.5234H106.09ZM35.0391 69.293H36.3633V75H35.0391V74.4023C34.4961 74.9102 33.9121 75.1641 33.2871 75.1641C32.498 75.1641 31.8457 74.8789 31.3301 74.3086C30.8184 73.7266 30.5625 73 30.5625 72.1289C30.5625 71.2734 30.8184 70.5605 31.3301 69.9902C31.8418 69.4199 32.4824 69.1348 33.252 69.1348C33.916 69.1348 34.5117 69.4082 35.0391 69.9551V69.293ZM31.9102 72.1289C31.9102 72.6758 32.0566 73.1211 32.3496 73.4648C32.6504 73.8125 33.0293 73.9863 33.4863 73.9863C33.9746 73.9863 34.3691 73.8184 34.6699 73.4824C34.9707 73.1348 35.1211 72.6934 35.1211 72.1582C35.1211 71.623 34.9707 71.1816 34.6699 70.834C34.3691 70.4941 33.9785 70.3242 33.498 70.3242C33.0449 70.3242 32.666 70.4961 32.3613 70.8398C32.0605 71.1875 31.9102 71.6172 31.9102 72.1289ZM38.0273 69.293H39.3516V69.8203C39.8125 69.3633 40.332 69.1348 40.9102 69.1348C41.5742 69.1348 42.0918 69.3438 42.4629 69.7617C42.7832 70.1172 42.9434 70.6973 42.9434 71.502V75H41.6191V71.8125C41.6191 71.25 41.541 70.8613 41.3848 70.6465C41.2324 70.4277 40.9551 70.3184 40.5527 70.3184C40.1152 70.3184 39.8047 70.4629 39.6211 70.752C39.4414 71.0371 39.3516 71.5352 39.3516 72.2461V75H38.0273V69.293ZM46.2129 73.9395L43.6465 69.293H45.1758L46.9219 72.5742L48.5508 69.293H50.0391L45.4922 78.1055H43.9863L46.2129 73.9395ZM56.0039 70.5234V75H54.6855V70.5234H54.123V69.293H54.6855V67.2012H56.0039V69.293H57.0293V70.5234H56.0039ZM59.2441 69.293V75H57.9258V69.293H59.2441ZM57.7266 66.9199C57.7266 66.6895 57.8105 66.4902 57.9785 66.3223C58.1465 66.1543 58.3477 66.0703 58.582 66.0703C58.8203 66.0703 59.0234 66.1543 59.1914 66.3223C59.3594 66.4863 59.4434 66.6875 59.4434 66.9258C59.4434 67.1641 59.3594 67.3672 59.1914 67.5352C59.0273 67.7031 58.8262 67.7871 58.5879 67.7871C58.3496 67.7871 58.1465 67.7031 57.9785 67.5352C57.8105 67.3672 57.7266 67.1621 57.7266 66.9199ZM60.9141 69.293H62.2324V69.8203C62.4863 69.5547 62.7031 69.375 62.8828 69.2812C63.0742 69.1836 63.3145 69.1348 63.6035 69.1348C64.248 69.1348 64.7578 69.416 65.1328 69.9785C65.5469 69.416 66.1074 69.1348 66.8145 69.1348C68.0996 69.1348 68.7422 69.9141 68.7422 71.4727V75H67.418V71.8301C67.418 71.2832 67.3516 70.8965 67.2188 70.6699C67.082 70.4395 66.8574 70.3242 66.5449 70.3242C66.1816 70.3242 65.916 70.4609 65.748 70.7344C65.584 71.0078 65.502 71.4473 65.502 72.0527V75H64.1777V71.8477C64.1777 70.832 63.8848 70.3242 63.2988 70.3242C62.9277 70.3242 62.6562 70.4629 62.4844 70.7402C62.3164 71.0176 62.2324 71.4551 62.2324 72.0527V75H60.9141V69.293ZM75.6035 72.457H71.5137C71.5488 72.9258 71.7012 73.2988 71.9707 73.5762C72.2402 73.8496 72.5859 73.9863 73.0078 73.9863C73.3359 73.9863 73.6074 73.9082 73.8223 73.752C74.0332 73.5957 74.2734 73.3066 74.543 72.8848L75.6562 73.5059C75.4844 73.7988 75.3027 74.0508 75.1113 74.2617C74.9199 74.4688 74.7148 74.6406 74.4961 74.7773C74.2773 74.9102 74.041 75.0078 73.7871 75.0703C73.5332 75.1328 73.2578 75.1641 72.9609 75.1641C72.1094 75.1641 71.4258 74.8906 70.9102 74.3438C70.3945 73.793 70.1367 73.0625 70.1367 72.1523C70.1367 71.25 70.3867 70.5195 70.8867 69.9609C71.3906 69.4102 72.0586 69.1348 72.8906 69.1348C73.7305 69.1348 74.3945 69.4023 74.8828 69.9375C75.3672 70.4688 75.6094 71.2051 75.6094 72.1465L75.6035 72.457ZM74.25 71.3789C74.0664 70.6758 73.623 70.3242 72.9199 70.3242C72.7598 70.3242 72.6094 70.3496 72.4688 70.4004C72.3281 70.4473 72.1992 70.5176 72.082 70.6113C71.9688 70.7012 71.8711 70.8105 71.7891 70.9395C71.707 71.0684 71.6445 71.2148 71.6016 71.3789H74.25ZM77.2559 74.3438C77.2559 74.125 77.3359 73.9355 77.4961 73.7754C77.6562 73.6152 77.8477 73.5352 78.0703 73.5352C78.293 73.5352 78.4844 73.6152 78.6445 73.7754C78.8047 73.9355 78.8848 74.127 78.8848 74.3496C78.8848 74.5762 78.8047 74.7695 78.6445 74.9297C78.4883 75.0859 78.2969 75.1641 78.0703 75.1641C77.8398 75.1641 77.6465 75.0859 77.4902 74.9297C77.334 74.7734 77.2559 74.5781 77.2559 74.3438ZM80.959 74.3438C80.959 74.125 81.0391 73.9355 81.1992 73.7754C81.3594 73.6152 81.5508 73.5352 81.7734 73.5352C81.9961 73.5352 82.1875 73.6152 82.3477 73.7754C82.5078 73.9355 82.5879 74.127 82.5879 74.3496C82.5879 74.5762 82.5078 74.7695 82.3477 74.9297C82.1914 75.0859 82 75.1641 81.7734 75.1641C81.543 75.1641 81.3496 75.0859 81.1934 74.9297C81.0371 74.7734 80.959 74.5781 80.959 74.3438ZM84.6621 74.3438C84.6621 74.125 84.7422 73.9355 84.9023 73.7754C85.0625 73.6152 85.2539 73.5352 85.4766 73.5352C85.6992 73.5352 85.8906 73.6152 86.0508 73.7754C86.2109 73.9355 86.291 74.127 86.291 74.3496C86.291 74.5762 86.2109 74.7695 86.0508 74.9297C85.8945 75.0859 85.7031 75.1641 85.4766 75.1641C85.2461 75.1641 85.0527 75.0859 84.8965 74.9297C84.7402 74.7734 84.6621 74.5781 84.6621 74.3438Z" fill="white"/>
<path d="M13.707 24.3965V20.8984C15.4414 20.8984 16.6074 20.7051 17.2051 20.3184C18.2715 19.6387 18.8047 18.5488 18.8047 17.0488C18.8047 15.8887 18.418 14.9453 17.6445 14.2188C16.8828 13.4805 15.8926 13.1113 14.6738 13.1113C13.5371 13.1113 12.6582 13.3867 12.0371 13.9375C11.4395 14.5 10.9941 15.4492 10.7012 16.7852H6.62305C7.04492 14.2305 7.91211 12.3613 9.22461 11.1777C10.5371 9.98242 12.3711 9.38477 14.7266 9.38477C17.1055 9.38477 19.0449 10.0879 20.5449 11.4941C22.0449 12.8887 22.7949 14.6875 22.7949 16.8906C22.7949 19.375 21.8105 21.3086 19.8418 22.6914C22.0918 24.0156 23.2168 26.166 23.2168 29.1426C23.2168 31.5801 22.3965 33.5723 20.7559 35.1191C19.1152 36.666 17.0117 37.4395 14.4453 37.4395C11.1758 37.4395 8.75 36.2383 7.16797 33.8359C6.51172 32.8281 6.0957 31.4336 5.91992 29.6523H9.875C10.0859 30.9648 10.5957 31.9727 11.4043 32.6758C12.2246 33.3672 13.291 33.7129 14.6035 33.7129C15.9277 33.7129 17.0234 33.2734 17.8906 32.3945C18.7578 31.4922 19.1914 30.3496 19.1914 28.9668C19.1914 27.1387 18.541 25.8379 17.2402 25.0645C16.4785 24.6191 15.3008 24.3965 13.707 24.3965Z" fill="white"/>
<g filter="url(#filter0_d)">
<path d="M99 90.5H127C127.962 90.5 128.75 89.7125 128.75 88.75C128.75 87.7875 127.962 87 127 87H99C98.0375 87 97.25 87.7875 97.25 88.75C97.25 89.7125 98.0375 90.5 99 90.5ZM99 81.75H127C127.962 81.75 128.75 80.9625 128.75 80C128.75 79.0375 127.962 78.25 127 78.25H99C98.0375 78.25 97.25 79.0375 97.25 80C97.25 80.9625 98.0375 81.75 99 81.75ZM97.25 71.25C97.25 72.2125 98.0375 73 99 73H127C127.962 73 128.75 72.2125 128.75 71.25C128.75 70.2875 127.962 69.5 127 69.5H99C98.0375 69.5 97.25 70.2875 97.25 71.25Z" fill="#6F8EA9"/>
</g>
<defs>
<filter id="filter0_d" x="92" y="59" width="46" height="46" filterUnits="userSpaceOnUse" color-interpolation-filters="sRGB">
<feFlood flood-opacity="0" result="BackgroundImageFix"/>
<feColorMatrix in="SourceAlpha" type="matrix" values="0 0 0 0 0 0 0 0 0 0 0 0 0 0 0 0 0 0 127 0"/>
<feOffset dx="2" dy="2"/>
<feGaussianBlur stdDeviation="1"/>
<feColorMatrix type="matrix" values="0 0 0 0 0 0 0 0 0 0 0 0 0 0 0 0 0 0 0.25 0"/>
<feBlend mode="normal" in2="BackgroundImageFix" result="effect1_dropShadow"/>
<feBlend mode="normal" in="SourceGraphic" in2="effect1_dropShadow" result="shape"/>
</filter>
</defs>
</svg>
