<svg width="145" height="274" viewBox="0 0 145 274" fill="none" xmlns="http://www.w3.org/2000/svg">
<rect x="66" y="20" width="12" height="4" fill="url(#paint0_linear)"/>
<rect x="12" y="71" width="5" height="184" fill="#003B6F"/>
<rect x="128" y="71" width="5" height="184" fill="#003B6F"/>
<g filter="url(#filter0_d)">
<rect x="12" y="51" width="121" height="20" fill="#003B6F"/>
</g>
<g filter="url(#filter1_d)">
<path d="M14 56H131V66H14V56Z" fill="#333333"/>
</g>
<g filter="url(#filter2_i)">
<rect x="12" y="43" width="121" height="8" fill="#003B6F"/>
</g>
<g filter="url(#filter3_i)">
<rect x="17" y="33" width="111" height="10" fill="#003B6F"/>
</g>
<path d="M65.9952 20H78.1333C78.1333 20 79.323 20.6316 78.9147 20.8421C78.5064 21.0526 65.4402 21.0526 65.0672 20.8421C64.6942 20.6316 65.9952 20 65.9952 20Z" fill="url(#paint1_linear)"/>
<rect x="66" y="5" width="12" height="15" fill="#FDE096"/>
<path d="M70.0568 1C70.0568 0.447715 70.5046 0 71.0568 0H73C73.5523 0 74 0.447715 74 1V1.94316C74 1.97455 73.9746 2 73.9432 2H70C70.0314 2 70.0568 1.97455 70.0568 1.94316V1Z" fill="#003B6F"/>
<g filter="url(#filter4_i)">
<rect x="12" y="71" width="-5.28908e-06" height="121" rx="-2.64454e-06" transform="rotate(-90 12 71)" fill="#003B6F"/>
</g>
<path d="M9 51H14V71H9V51Z" fill="#003B6F"/>
<path d="M133 51H136V71H133V51Z" fill="#003B6F"/>
<g filter="url(#filter5_i)">
<path d="M70 2H74L76 3C76 3 79.3742 5.34886 78.9646 5.72094C78.5549 6.09302 65.4451 6.09302 65.0354 5.72094C64.6258 5.34886 68 3 68 3L70 2Z" fill="url(#paint2_linear)"/>
</g>
<path d="M65.8043 24H78.4769L128 33H17L65.8043 24Z" fill="url(#paint3_linear)"/>
<g filter="url(#filter6_d)">
<rect x="6" y="259" width="133" height="7" fill="#003B6F"/>
</g>
<g filter="url(#filter7_i)">
<path d="M12.1132 255H132.887L139 259H6L12.1132 255Z" fill="url(#paint4_linear)"/>
</g>
<path d="M41.4883 87.1855L43.7617 91H42.3438L40.1992 87.2793H39.7129L39.2559 91H37.9141L39.0273 81.9531H40.8027C41.3809 81.9531 41.8398 82.0059 42.1797 82.1113C42.5156 82.209 42.8086 82.3887 43.0586 82.6504C43.5312 83.1348 43.7676 83.7598 43.7676 84.5254C43.7676 85.9277 43.0078 86.8145 41.4883 87.1855ZM40.2109 83.2012L39.8594 86.1074H40.4746C40.9277 86.1074 41.2656 86.0645 41.4883 85.9785C41.7266 85.8926 41.9258 85.7461 42.0859 85.5391C42.3047 85.25 42.4141 84.9102 42.4141 84.5195C42.4141 84.0625 42.2812 83.7285 42.0156 83.5176C41.7539 83.3066 41.3398 83.2012 40.7734 83.2012H40.2109ZM46 88.7031C46 89.1094 46.1406 89.4434 46.4219 89.7051C46.707 89.9668 47.0703 90.0977 47.5117 90.0977C48.1172 90.0977 48.582 89.8711 48.9062 89.418L49.873 89.9512C49.5371 90.4043 49.1914 90.7207 48.8359 90.9004C48.4766 91.084 48.0273 91.1758 47.4883 91.1758C46.6328 91.1758 45.9512 90.9238 45.4434 90.4199C44.9355 89.916 44.6816 89.2422 44.6816 88.3984C44.6816 87.5156 44.9609 86.7773 45.5195 86.1836C46.0742 85.5938 46.7754 85.2988 47.623 85.2988C48.4434 85.2988 49.0898 85.5645 49.5625 86.0957C50.043 86.6309 50.2832 87.3477 50.2832 88.2461C50.2832 88.3398 50.2773 88.4922 50.2656 88.7031H46ZM48.9707 87.6602C48.834 86.8086 48.3633 86.3828 47.5586 86.3828C46.7969 86.3828 46.3008 86.8086 46.0703 87.6602H48.9707ZM53.4297 85.4805L53.3711 85.9961C53.8086 85.5586 54.3145 85.3398 54.8887 85.3398C55.2363 85.3398 55.5039 85.4043 55.6914 85.5332C55.8789 85.6543 56.0469 85.8828 56.1953 86.2188C56.7422 85.6367 57.332 85.3457 57.9648 85.3457C59.0586 85.3457 59.6055 85.8477 59.6055 86.8516C59.6055 86.9531 59.5957 87.0957 59.5762 87.2793C59.5605 87.4629 59.5371 87.6895 59.5059 87.959L59.1309 91H57.8359L58.2344 87.8066C58.2695 87.5098 58.2871 87.291 58.2871 87.1504C58.2871 86.6699 58.0449 86.4297 57.5605 86.4297C57.3691 86.4297 57.2031 86.459 57.0625 86.5176C56.9219 86.5723 56.8008 86.6602 56.6992 86.7812C56.6016 86.8984 56.5195 87.0527 56.4531 87.2441C56.3906 87.4316 56.3418 87.6562 56.3066 87.918L55.9316 91H54.6367L55.041 87.7246C55.0762 87.4277 55.0938 87.2246 55.0938 87.1152C55.0938 86.6582 54.8457 86.4297 54.3496 86.4297C53.6309 86.4297 53.2109 86.9277 53.0898 87.9238L52.709 91H51.4141L52.0938 85.4805H53.4297ZM62.2656 88.7031C62.2656 89.1094 62.4062 89.4434 62.6875 89.7051C62.9727 89.9668 63.3359 90.0977 63.7773 90.0977C64.3828 90.0977 64.8477 89.8711 65.1719 89.418L66.1387 89.9512C65.8027 90.4043 65.457 90.7207 65.1016 90.9004C64.7422 91.084 64.293 91.1758 63.7539 91.1758C62.8984 91.1758 62.2168 90.9238 61.709 90.4199C61.2012 89.916 60.9473 89.2422 60.9473 88.3984C60.9473 87.5156 61.2266 86.7773 61.7852 86.1836C62.3398 85.5938 63.041 85.2988 63.8887 85.2988C64.709 85.2988 65.3555 85.5645 65.8281 86.0957C66.3086 86.6309 66.5488 87.3477 66.5488 88.2461C66.5488 88.3398 66.543 88.4922 66.5312 88.7031H62.2656ZM65.2363 87.6602C65.0996 86.8086 64.6289 86.3828 63.8242 86.3828C63.0625 86.3828 62.5664 86.8086 62.3359 87.6602H65.2363ZM69.6953 85.4805L69.6367 85.9961C70.0742 85.5586 70.5801 85.3398 71.1543 85.3398C71.502 85.3398 71.7695 85.4043 71.957 85.5332C72.1445 85.6543 72.3125 85.8828 72.4609 86.2188C73.0078 85.6367 73.5977 85.3457 74.2305 85.3457C75.3242 85.3457 75.8711 85.8477 75.8711 86.8516C75.8711 86.9531 75.8613 87.0957 75.8418 87.2793C75.8262 87.4629 75.8027 87.6895 75.7715 87.959L75.3965 91H74.1016L74.5 87.8066C74.5352 87.5098 74.5527 87.291 74.5527 87.1504C74.5527 86.6699 74.3105 86.4297 73.8262 86.4297C73.6348 86.4297 73.4688 86.459 73.3281 86.5176C73.1875 86.5723 73.0664 86.6602 72.9648 86.7812C72.8672 86.8984 72.7852 87.0527 72.7188 87.2441C72.6562 87.4316 72.6074 87.6562 72.5723 87.918L72.1973 91H70.9023L71.3066 87.7246C71.3418 87.4277 71.3594 87.2246 71.3594 87.1152C71.3594 86.6582 71.1113 86.4297 70.6152 86.4297C69.8965 86.4297 69.4766 86.9277 69.3555 87.9238L68.9746 91H67.6797L68.3594 85.4805H69.6953ZM79.7207 81.1035L79.1172 85.9902C79.457 85.7363 79.752 85.5664 80.002 85.4805C80.2637 85.3906 80.5469 85.3457 80.8516 85.3457C81.6016 85.3457 82.2207 85.6035 82.709 86.1191C83.1973 86.6309 83.4414 87.2832 83.4414 88.0762C83.4414 88.9473 83.1641 89.6719 82.6094 90.25C82.0508 90.8359 81.3691 91.1289 80.5645 91.1289C79.8145 91.1289 79.1582 90.8398 78.5957 90.2617L78.502 91H77.207L78.4258 81.1035H79.7207ZM82.1406 88.1055C82.1406 87.6133 81.9941 87.2109 81.7012 86.8984C81.4082 86.5859 81.0273 86.4297 80.5586 86.4297C80.0508 86.4297 79.6309 86.6172 79.2988 86.9922C78.9668 87.3594 78.8008 87.834 78.8008 88.416C78.8008 88.9043 78.9434 89.2969 79.2285 89.5938C79.5137 89.8984 79.8848 90.0508 80.3418 90.0508C80.8457 90.0508 81.2695 89.8613 81.6133 89.4824C81.9648 89.1035 82.1406 88.6445 82.1406 88.1055ZM85.8906 88.7031C85.8906 89.1094 86.0312 89.4434 86.3125 89.7051C86.5977 89.9668 86.9609 90.0977 87.4023 90.0977C88.0078 90.0977 88.4727 89.8711 88.7969 89.418L89.7637 89.9512C89.4277 90.4043 89.082 90.7207 88.7266 90.9004C88.3672 91.084 87.918 91.1758 87.3789 91.1758C86.5234 91.1758 85.8418 90.9238 85.334 90.4199C84.8262 89.916 84.5723 89.2422 84.5723 88.3984C84.5723 87.5156 84.8516 86.7773 85.4102 86.1836C85.9648 85.5938 86.666 85.2988 87.5137 85.2988C88.334 85.2988 88.9805 85.5645 89.4531 86.0957C89.9336 86.6309 90.1738 87.3477 90.1738 88.2461C90.1738 88.3398 90.168 88.4922 90.1562 88.7031H85.8906ZM88.8613 87.6602C88.7246 86.8086 88.2539 86.3828 87.4492 86.3828C86.6875 86.3828 86.1914 86.8086 85.9609 87.6602H88.8613ZM93.2793 85.4805L93.2207 85.9551C93.6582 85.541 94.0996 85.334 94.5449 85.334C94.9355 85.334 95.291 85.4766 95.6113 85.7617L94.7852 86.8281C94.5469 86.625 94.3086 86.5234 94.0703 86.5234C93.9062 86.5234 93.7617 86.5566 93.6367 86.623C93.5117 86.6855 93.4023 86.7871 93.3086 86.9277C93.2188 87.0645 93.1426 87.2422 93.0801 87.4609C93.0215 87.6797 92.9746 87.9414 92.9395 88.2461L92.5996 91H91.3047L91.9844 85.4805H93.2793ZM97.0293 90.3613C97.0293 90.5684 96.9492 90.748 96.7891 90.9004C96.6289 91.0527 96.4434 91.1289 96.2324 91.1289C96.0176 91.1289 95.834 91.0508 95.6816 90.8945C95.5293 90.7383 95.4531 90.5469 95.4531 90.3203C95.4531 90.1016 95.5234 89.918 95.6641 89.7695C95.8125 89.6211 95.9902 89.5469 96.1973 89.5469C96.4277 89.5469 96.623 89.627 96.7832 89.7871C96.9473 89.9473 97.0293 90.1387 97.0293 90.3613ZM100.732 90.3613C100.732 90.5684 100.652 90.748 100.492 90.9004C100.332 91.0527 100.146 91.1289 99.9355 91.1289C99.7207 91.1289 99.5371 91.0508 99.3848 90.8945C99.2324 90.7383 99.1562 90.5469 99.1562 90.3203C99.1562 90.1016 99.2266 89.918 99.3672 89.7695C99.5156 89.6211 99.6934 89.5469 99.9004 89.5469C100.131 89.5469 100.326 89.627 100.486 89.7871C100.65 89.9473 100.732 90.1387 100.732 90.3613ZM104.436 90.3613C104.436 90.5684 104.355 90.748 104.195 90.9004C104.035 91.0527 103.85 91.1289 103.639 91.1289C103.424 91.1289 103.24 91.0508 103.088 90.8945C102.936 90.7383 102.859 90.5469 102.859 90.3203C102.859 90.1016 102.93 89.918 103.07 89.7695C103.219 89.6211 103.396 89.5469 103.604 89.5469C103.834 89.5469 104.029 89.627 104.189 89.7871C104.354 89.9473 104.436 90.1387 104.436 90.3613ZM33.6191 109.201L32.6582 117H31.3164L32.2773 109.201H30.1152L30.2676 107.953H35.8398L35.6875 109.201H33.6191ZM38.2422 107.104L37.6445 111.949C38.1641 111.547 38.6914 111.346 39.2266 111.346C39.7656 111.346 40.1953 111.488 40.5156 111.773C40.8477 112.055 41.0137 112.424 41.0137 112.881C41.0137 112.99 41.0078 113.115 40.9961 113.256C40.9844 113.393 40.9688 113.549 40.9492 113.725L40.5449 117H39.25L39.6602 113.654C39.6836 113.475 39.6953 113.312 39.6953 113.168C39.6953 112.676 39.4062 112.43 38.8281 112.43C38 112.43 37.5176 112.99 37.3809 114.111L37.0234 117H35.7285L36.9473 107.104H38.2422ZM43.6855 114.703C43.6855 115.109 43.8262 115.443 44.1074 115.705C44.3926 115.967 44.7559 116.098 45.1973 116.098C45.8027 116.098 46.2676 115.871 46.5918 115.418L47.5586 115.951C47.2227 116.404 46.877 116.721 46.5215 116.9C46.1621 117.084 45.7129 117.176 45.1738 117.176C44.3184 117.176 43.6367 116.924 43.1289 116.42C42.6211 115.916 42.3672 115.242 42.3672 114.398C42.3672 113.516 42.6465 112.777 43.2051 112.184C43.7598 111.594 44.4609 111.299 45.3086 111.299C46.1289 111.299 46.7754 111.564 47.248 112.096C47.7285 112.631 47.9688 113.348 47.9688 114.246C47.9688 114.34 47.9629 114.492 47.9512 114.703H43.6855ZM46.6562 113.66C46.5195 112.809 46.0488 112.383 45.2441 112.383C44.4824 112.383 43.9863 112.809 43.7559 113.66H46.6562ZM56.4473 109.201L55.4863 117H54.1445L55.1055 109.201H52.9434L53.0957 107.953H58.668L58.5156 109.201H56.4473ZM59.9102 114.873L58.8086 117H57.3496L62.3535 107.309L65.4766 117H64.0762L63.4199 114.873H59.9102ZM60.4902 113.713H63.0449L62.0723 110.496L60.4902 113.713ZM70.1113 113.186L72.3848 117H70.9668L68.8223 113.279H68.3359L67.8789 117H66.5371L67.6504 107.953H69.4258C70.0039 107.953 70.4629 108.006 70.8027 108.111C71.1387 108.209 71.4316 108.389 71.6816 108.65C72.1543 109.135 72.3906 109.76 72.3906 110.525C72.3906 111.928 71.6309 112.814 70.1113 113.186ZM68.834 109.201L68.4824 112.107H69.0977C69.5508 112.107 69.8887 112.064 70.1113 111.979C70.3496 111.893 70.5488 111.746 70.709 111.539C70.9277 111.25 71.0371 110.91 71.0371 110.52C71.0371 110.062 70.9043 109.729 70.6387 109.518C70.377 109.307 69.9629 109.201 69.3965 109.201H68.834ZM74.7988 107.953H76.627C77.3184 107.953 77.8496 107.988 78.2207 108.059C78.5996 108.125 78.9492 108.252 79.2695 108.439C79.8594 108.779 80.3242 109.289 80.6641 109.969C81.0039 110.648 81.1738 111.408 81.1738 112.248C81.1738 113.139 80.9824 113.963 80.5996 114.721C80.4082 115.096 80.1855 115.426 79.9316 115.711C79.6777 115.992 79.3867 116.232 79.0586 116.432C78.6758 116.65 78.2754 116.801 77.8574 116.883C77.6348 116.922 77.3691 116.951 77.0605 116.971C76.752 116.99 76.3906 117 75.9766 117H73.6855L74.7988 107.953ZM75.9824 109.201L75.1797 115.752H76.1992C76.9492 115.752 77.5352 115.678 77.957 115.529C78.3672 115.385 78.7246 115.115 79.0293 114.721C79.5605 114.049 79.8262 113.207 79.8262 112.195C79.8262 111.566 79.707 111.016 79.4688 110.543C79.2266 110.062 78.8984 109.715 78.4844 109.5C78.0898 109.301 77.5059 109.201 76.7324 109.201H75.9824ZM84.7305 107.953L83.6172 117H82.2754L83.3887 107.953H84.7305ZM91.6562 109.107L90.7598 109.963C90.334 109.338 89.8457 109.025 89.2949 109.025C88.8965 109.025 88.5664 109.148 88.3047 109.395C88.043 109.641 87.9121 109.949 87.9121 110.32C87.9121 110.617 88.002 110.873 88.1816 111.088C88.2715 111.189 88.4023 111.305 88.5742 111.434C88.75 111.562 88.9688 111.705 89.2305 111.861C90.0078 112.314 90.5273 112.725 90.7891 113.092C91.0547 113.463 91.1875 113.949 91.1875 114.551C91.1875 115.332 90.9297 115.965 90.4141 116.449C89.9062 116.934 89.2363 117.176 88.4043 117.176C87.7324 117.176 87.1641 117.031 86.6992 116.742C86.4648 116.598 86.2461 116.41 86.043 116.18C85.8398 115.945 85.6445 115.662 85.457 115.33L86.4766 114.639C86.7539 115.127 87.0254 115.463 87.291 115.646C87.5566 115.83 87.9023 115.922 88.3281 115.922C88.8008 115.922 89.1699 115.797 89.4355 115.547C89.7051 115.297 89.8398 114.941 89.8398 114.48C89.8398 114.164 89.7422 113.896 89.5469 113.678C89.4492 113.564 89.3027 113.438 89.1074 113.297C88.916 113.156 88.6719 112.998 88.375 112.822C87.6953 112.42 87.2207 112.037 86.9512 111.674C86.6934 111.311 86.5645 110.855 86.5645 110.309C86.5645 109.578 86.8184 108.973 87.3262 108.492C87.834 108.008 88.4746 107.766 89.248 107.766C89.752 107.766 90.1816 107.867 90.5371 108.07C90.9004 108.273 91.2734 108.619 91.6562 109.107ZM104.447 111.48L100.896 117.58L99.7832 114.018L97.8086 117.58L95.8047 111.48H97.1699L98.1426 114.85L100.111 111.328L101.166 114.85L102.977 111.48H104.447ZM107.137 108.855C107.137 109.043 107.068 109.205 106.932 109.342C106.795 109.479 106.631 109.547 106.439 109.547C106.248 109.547 106.082 109.477 105.941 109.336C105.805 109.188 105.736 109.018 105.736 108.826C105.736 108.635 105.803 108.473 105.936 108.34C106.072 108.203 106.234 108.135 106.422 108.135C106.613 108.135 106.779 108.207 106.92 108.352C107.064 108.492 107.137 108.66 107.137 108.855ZM106.732 111.48L106.053 117H104.758L105.438 111.48H106.732ZM110.377 107.104L109.164 117H107.869L109.088 107.104H110.377ZM113.482 107.104L112.27 117H110.975L112.193 107.104H113.482ZM33.8477 130.48L33.168 136H31.873L31.9492 135.402C31.3945 135.887 30.8203 136.129 30.2266 136.129C29.4961 136.129 28.9004 135.881 28.4395 135.385C27.9785 134.889 27.748 134.246 27.748 133.457C27.748 132.547 28.0117 131.801 28.5391 131.219C29.0742 130.637 29.7598 130.346 30.5957 130.346C30.9902 130.346 31.3262 130.41 31.6035 130.539C31.8848 130.668 32.1719 130.891 32.4648 131.207L32.5527 130.48H33.8477ZM32.2715 133.082C32.2715 132.594 32.1309 132.197 31.8496 131.893C31.5684 131.584 31.2051 131.43 30.7598 131.43C30.2754 131.43 29.8691 131.619 29.541 131.998C29.2129 132.381 29.0488 132.85 29.0488 133.404C29.0488 133.889 29.1855 134.285 29.459 134.594C29.7324 134.902 30.084 135.057 30.5137 135.057C30.9902 135.057 31.4023 134.863 31.75 134.477C32.0977 134.082 32.2715 133.617 32.2715 133.082ZM37.4922 126.104L36.2793 136H34.9844L36.2031 126.104H37.4922ZM46.5039 130.48L42.9531 136.58L41.8398 133.018L39.8652 136.58L37.8613 130.48H39.2266L40.1992 133.85L42.168 130.328L43.2227 133.85L45.0332 130.48H46.5039ZM52.8086 130.48L52.1289 136H50.834L50.9102 135.402C50.3555 135.887 49.7812 136.129 49.1875 136.129C48.457 136.129 47.8613 135.881 47.4004 135.385C46.9395 134.889 46.709 134.246 46.709 133.457C46.709 132.547 46.9727 131.801 47.5 131.219C48.0352 130.637 48.7207 130.346 49.5566 130.346C49.9512 130.346 50.2871 130.41 50.5645 130.539C50.8457 130.668 51.1328 130.891 51.4258 131.207L51.5137 130.48H52.8086ZM51.2324 133.082C51.2324 132.594 51.0918 132.197 50.8105 131.893C50.5293 131.584 50.166 131.43 49.7207 131.43C49.2363 131.43 48.8301 131.619 48.502 131.998C48.1738 132.381 48.0098 132.85 48.0098 133.404C48.0098 133.889 48.1465 134.285 48.4199 134.594C48.6934 134.902 49.0449 135.057 49.4746 135.057C49.9512 135.057 50.3633 134.863 50.7109 134.477C51.0586 134.082 51.2324 133.617 51.2324 133.082ZM60.0566 130.48L55.0586 139.158H53.582L55.8027 135.314L53.8281 130.48H55.2109L56.5762 134.008L58.5742 130.48H60.0566ZM64.3574 131.09L63.625 131.822C63.2812 131.514 62.9629 131.359 62.6699 131.359C62.4707 131.359 62.3047 131.416 62.1719 131.529C62.043 131.639 61.9785 131.775 61.9785 131.939C61.9785 132.1 62.0332 132.234 62.1426 132.344C62.252 132.457 62.4805 132.609 62.8281 132.801C63.3242 133.078 63.6562 133.332 63.8242 133.562C64.0039 133.789 64.0938 134.084 64.0938 134.447C64.0938 134.971 63.9121 135.391 63.5488 135.707C63.1777 136.02 62.6953 136.176 62.1016 136.176C61.293 136.176 60.623 135.811 60.0918 135.08L60.9414 134.488C61.2891 134.906 61.6602 135.115 62.0547 135.115C62.2773 135.115 62.4551 135.057 62.5879 134.939C62.7246 134.822 62.793 134.67 62.793 134.482C62.793 134.318 62.7363 134.186 62.623 134.084C62.5684 134.033 62.4727 133.963 62.3359 133.873C62.1992 133.783 62.0137 133.676 61.7793 133.551C61.3652 133.32 61.0781 133.096 60.918 132.877C60.7578 132.646 60.6777 132.365 60.6777 132.033C60.6777 131.533 60.8613 131.119 61.2285 130.791C61.5957 130.463 62.0625 130.299 62.6289 130.299C63.2539 130.299 63.8301 130.562 64.3574 131.09ZM70.8613 131.682L70.3281 136H69.0332L69.5664 131.682H68.834L68.9805 130.48H69.7129L70.0293 127.92H71.3242L71.0078 130.48H72.2031L72.0566 131.682H70.8613ZM78.7891 130.48L78.1094 136H76.8145L76.8906 135.402C76.3359 135.887 75.7617 136.129 75.168 136.129C74.4375 136.129 73.8418 135.881 73.3809 135.385C72.9199 134.889 72.6895 134.246 72.6895 133.457C72.6895 132.547 72.9531 131.801 73.4805 131.219C74.0156 130.637 74.7012 130.346 75.5371 130.346C75.9316 130.346 76.2676 130.41 76.5449 130.539C76.8262 130.668 77.1133 130.891 77.4062 131.207L77.4941 130.48H78.7891ZM77.2129 133.082C77.2129 132.594 77.0723 132.197 76.791 131.893C76.5098 131.584 76.1465 131.43 75.7012 131.43C75.2168 131.43 74.8105 131.619 74.4824 131.998C74.1543 132.381 73.9902 132.85 73.9902 133.404C73.9902 133.889 74.127 134.285 74.4004 134.594C74.6738 134.902 75.0254 135.057 75.4551 135.057C75.9316 135.057 76.3438 134.863 76.6914 134.477C77.0391 134.082 77.2129 133.617 77.2129 133.082ZM82.4395 126.104L81.6367 132.625L83.957 130.48H85.6855L82.791 133L85.1172 136H83.5527L81.543 133.375L81.2207 136H79.9258L81.1445 126.104H82.4395ZM87.1797 133.703C87.1797 134.109 87.3203 134.443 87.6016 134.705C87.8867 134.967 88.25 135.098 88.6914 135.098C89.2969 135.098 89.7617 134.871 90.0859 134.418L91.0527 134.951C90.7168 135.404 90.3711 135.721 90.0156 135.9C89.6562 136.084 89.207 136.176 88.668 136.176C87.8125 136.176 87.1309 135.924 86.623 135.42C86.1152 134.916 85.8613 134.242 85.8613 133.398C85.8613 132.516 86.1406 131.777 86.6992 131.184C87.2539 130.594 87.9551 130.299 88.8027 130.299C89.623 130.299 90.2695 130.564 90.7422 131.096C91.2227 131.631 91.4629 132.348 91.4629 133.246C91.4629 133.34 91.457 133.492 91.4453 133.703H87.1797ZM90.1504 132.66C90.0137 131.809 89.543 131.383 88.7383 131.383C87.9766 131.383 87.4805 131.809 87.25 132.66H90.1504ZM102.291 130.48L97.293 139.158H95.8164L98.0371 135.314L96.0625 130.48H97.4453L98.8105 134.008L100.809 130.48H102.291ZM108.602 133.188C108.602 134.031 108.309 134.74 107.723 135.314C107.141 135.889 106.422 136.176 105.566 136.176C104.672 136.176 103.941 135.904 103.375 135.361C102.805 134.814 102.52 134.123 102.52 133.287C102.52 132.432 102.814 131.721 103.404 131.154C103.998 130.584 104.74 130.299 105.631 130.299C106.506 130.299 107.219 130.568 107.77 131.107C108.324 131.639 108.602 132.332 108.602 133.188ZM107.295 133.123C107.295 132.592 107.141 132.172 106.832 131.863C106.523 131.543 106.119 131.383 105.619 131.383C105.1 131.383 104.67 131.561 104.33 131.916C103.99 132.275 103.82 132.727 103.82 133.27C103.82 133.816 103.98 134.256 104.301 134.588C104.621 134.928 105.035 135.098 105.543 135.098C106.051 135.098 106.469 134.912 106.797 134.541C107.129 134.174 107.295 133.701 107.295 133.123ZM115.158 130.48L114.766 133.691C114.734 133.965 114.695 134.203 114.648 134.406C114.602 134.609 114.551 134.779 114.496 134.916C114.387 135.178 114.203 135.41 113.945 135.613C113.508 135.957 112.932 136.129 112.217 136.129C111.537 136.129 110.994 135.955 110.588 135.607C110.182 135.256 109.979 134.785 109.979 134.195C109.979 134.105 109.982 134 109.99 133.879C110.002 133.758 110.018 133.619 110.037 133.463L110.4 130.48H111.695L111.314 133.58C111.299 133.713 111.287 133.83 111.279 133.932C111.271 134.029 111.268 134.111 111.268 134.178C111.268 134.76 111.609 135.051 112.293 135.051C112.664 135.051 112.938 134.955 113.113 134.764C113.289 134.572 113.406 134.236 113.465 133.756L113.869 130.48H115.158ZM28.9434 149.48L25.3926 155.58L24.2793 152.018L22.3047 155.58L20.3008 149.48H21.666L22.6387 152.85L24.6074 149.328L25.6621 152.85L27.4727 149.48H28.9434ZM31.7734 145.104L31.1758 149.949C31.6953 149.547 32.2227 149.346 32.7578 149.346C33.2969 149.346 33.7266 149.488 34.0469 149.773C34.3789 150.055 34.5449 150.424 34.5449 150.881C34.5449 150.99 34.5391 151.115 34.5273 151.256C34.5156 151.393 34.5 151.549 34.4805 151.725L34.0762 155H32.7812L33.1914 151.654C33.2148 151.475 33.2266 151.312 33.2266 151.168C33.2266 150.676 32.9375 150.43 32.3594 150.43C31.5312 150.43 31.0488 150.99 30.9121 152.111L30.5547 155H29.2598L30.4785 145.104H31.7734ZM37.2168 152.703C37.2168 153.109 37.3574 153.443 37.6387 153.705C37.9238 153.967 38.2871 154.098 38.7285 154.098C39.334 154.098 39.7988 153.871 40.123 153.418L41.0898 153.951C40.7539 154.404 40.4082 154.721 40.0527 154.9C39.6934 155.084 39.2441 155.176 38.7051 155.176C37.8496 155.176 37.168 154.924 36.6602 154.42C36.1523 153.916 35.8984 153.242 35.8984 152.398C35.8984 151.516 36.1777 150.777 36.7363 150.184C37.291 149.594 37.9922 149.299 38.8398 149.299C39.6602 149.299 40.3066 149.564 40.7793 150.096C41.2598 150.631 41.5 151.348 41.5 152.246C41.5 152.34 41.4941 152.492 41.4824 152.703H37.2168ZM40.1875 151.66C40.0508 150.809 39.5801 150.383 38.7754 150.383C38.0137 150.383 37.5176 150.809 37.2871 151.66H40.1875ZM44.6055 149.48L44.5469 149.955C44.9844 149.541 45.4258 149.334 45.8711 149.334C46.2617 149.334 46.6172 149.477 46.9375 149.762L46.1113 150.828C45.873 150.625 45.6348 150.523 45.3965 150.523C45.2324 150.523 45.0879 150.557 44.9629 150.623C44.8379 150.686 44.7285 150.787 44.6348 150.928C44.5449 151.064 44.4688 151.242 44.4062 151.461C44.3477 151.68 44.3008 151.941 44.2656 152.246L43.9258 155H42.6309L43.3105 149.48H44.6055ZM48.4785 152.703C48.4785 153.109 48.6191 153.443 48.9004 153.705C49.1855 153.967 49.5488 154.098 49.9902 154.098C50.5957 154.098 51.0605 153.871 51.3848 153.418L52.3516 153.951C52.0156 154.404 51.6699 154.721 51.3145 154.9C50.9551 155.084 50.5059 155.176 49.9668 155.176C49.1113 155.176 48.4297 154.924 47.9219 154.42C47.4141 153.916 47.1602 153.242 47.1602 152.398C47.1602 151.516 47.4395 150.777 47.998 150.184C48.5527 149.594 49.2539 149.299 50.1016 149.299C50.9219 149.299 51.5684 149.564 52.041 150.096C52.5215 150.631 52.7617 151.348 52.7617 152.246C52.7617 152.34 52.7559 152.492 52.7441 152.703H48.4785ZM51.4492 151.66C51.3125 150.809 50.8418 150.383 50.0371 150.383C49.2754 150.383 48.7793 150.809 48.5488 151.66H51.4492ZM63.5898 149.48L58.5918 158.158H57.1152L59.3359 154.314L57.3613 149.48H58.7441L60.1094 153.008L62.1074 149.48H63.5898ZM69.9004 152.188C69.9004 153.031 69.6074 153.74 69.0215 154.314C68.4395 154.889 67.7207 155.176 66.8652 155.176C65.9707 155.176 65.2402 154.904 64.6738 154.361C64.1035 153.814 63.8184 153.123 63.8184 152.287C63.8184 151.432 64.1133 150.721 64.7031 150.154C65.2969 149.584 66.0391 149.299 66.9297 149.299C67.8047 149.299 68.5176 149.568 69.0684 150.107C69.623 150.639 69.9004 151.332 69.9004 152.188ZM68.5938 152.123C68.5938 151.592 68.4395 151.172 68.1309 150.863C67.8223 150.543 67.418 150.383 66.918 150.383C66.3984 150.383 65.9688 150.561 65.6289 150.916C65.2891 151.275 65.1191 151.727 65.1191 152.27C65.1191 152.816 65.2793 153.256 65.5996 153.588C65.9199 153.928 66.334 154.098 66.8418 154.098C67.3496 154.098 67.7676 153.912 68.0957 153.541C68.4277 153.174 68.5938 152.701 68.5938 152.123ZM76.457 149.48L76.0645 152.691C76.0332 152.965 75.9941 153.203 75.9473 153.406C75.9004 153.609 75.8496 153.779 75.7949 153.916C75.6855 154.178 75.502 154.41 75.2441 154.613C74.8066 154.957 74.2305 155.129 73.5156 155.129C72.8359 155.129 72.293 154.955 71.8867 154.607C71.4805 154.256 71.2773 153.785 71.2773 153.195C71.2773 153.105 71.2812 153 71.2891 152.879C71.3008 152.758 71.3164 152.619 71.3359 152.463L71.6992 149.48H72.9941L72.6133 152.58C72.5977 152.713 72.5859 152.83 72.5781 152.932C72.5703 153.029 72.5664 153.111 72.5664 153.178C72.5664 153.76 72.9082 154.051 73.5918 154.051C73.9629 154.051 74.2363 153.955 74.4121 153.764C74.5879 153.572 74.7051 153.236 74.7637 152.756L75.168 149.48H76.457ZM83.2715 149.48L83.2129 149.99C83.7246 149.561 84.2422 149.346 84.7656 149.346C85.3047 149.346 85.7363 149.496 86.0605 149.797C86.377 150.098 86.5352 150.508 86.5352 151.027C86.5352 151.309 86.5117 151.645 86.4648 152.035L86.0957 155H84.8066L85.2051 151.754C85.2207 151.633 85.2305 151.525 85.2344 151.432C85.2422 151.338 85.2461 151.254 85.2461 151.18C85.2461 150.68 84.9766 150.43 84.4375 150.43C84.1055 150.43 83.8203 150.531 83.582 150.734C83.3867 150.895 83.2422 151.09 83.1484 151.32C83.0977 151.438 83.0547 151.582 83.0195 151.754C82.9844 151.922 82.9531 152.117 82.9258 152.34L82.5977 155H81.3027L81.9824 149.48H83.2715ZM89.2363 152.703C89.2363 153.109 89.377 153.443 89.6582 153.705C89.9434 153.967 90.3066 154.098 90.748 154.098C91.3535 154.098 91.8184 153.871 92.1426 153.418L93.1094 153.951C92.7734 154.404 92.4277 154.721 92.0723 154.9C91.7129 155.084 91.2637 155.176 90.7246 155.176C89.8691 155.176 89.1875 154.924 88.6797 154.42C88.1719 153.916 87.918 153.242 87.918 152.398C87.918 151.516 88.1973 150.777 88.7559 150.184C89.3105 149.594 90.0117 149.299 90.8594 149.299C91.6797 149.299 92.3262 149.564 92.7988 150.096C93.2793 150.631 93.5195 151.348 93.5195 152.246C93.5195 152.34 93.5137 152.492 93.502 152.703H89.2363ZM92.207 151.66C92.0703 150.809 91.5996 150.383 90.7949 150.383C90.0332 150.383 89.5371 150.809 89.3066 151.66H92.207ZM95.9746 152.703C95.9746 153.109 96.1152 153.443 96.3965 153.705C96.6816 153.967 97.0449 154.098 97.4863 154.098C98.0918 154.098 98.5566 153.871 98.8809 153.418L99.8477 153.951C99.5117 154.404 99.166 154.721 98.8105 154.9C98.4512 155.084 98.002 155.176 97.4629 155.176C96.6074 155.176 95.9258 154.924 95.418 154.42C94.9102 153.916 94.6562 153.242 94.6562 152.398C94.6562 151.516 94.9355 150.777 95.4941 150.184C96.0488 149.594 96.75 149.299 97.5977 149.299C98.418 149.299 99.0645 149.564 99.5371 150.096C100.018 150.631 100.258 151.348 100.258 152.246C100.258 152.34 100.252 152.492 100.24 152.703H95.9746ZM98.9453 151.66C98.8086 150.809 98.3379 150.383 97.5332 150.383C96.7715 150.383 96.2754 150.809 96.0449 151.66H98.9453ZM108.162 145.104L106.943 155H105.654L105.725 154.408C105.404 154.693 105.127 154.887 104.893 154.988C104.662 155.082 104.377 155.129 104.037 155.129C103.264 155.129 102.631 154.873 102.139 154.361C101.646 153.846 101.4 153.182 101.4 152.369C101.4 151.502 101.67 150.781 102.209 150.207C102.748 149.633 103.426 149.346 104.242 149.346C104.66 149.346 105.012 149.418 105.297 149.562C105.594 149.711 105.904 149.963 106.229 150.318L106.867 145.104H108.162ZM106.029 152C106.029 151.531 105.885 151.152 105.596 150.863C105.307 150.574 104.928 150.43 104.459 150.43C103.951 150.43 103.531 150.619 103.199 150.998C102.867 151.377 102.701 151.855 102.701 152.434C102.701 152.922 102.844 153.314 103.129 153.611C103.414 153.904 103.793 154.051 104.266 154.051C104.758 154.051 105.174 153.852 105.514 153.453C105.857 153.062 106.029 152.578 106.029 152ZM114.473 150.682L113.939 155H112.645L113.178 150.682H112.445L112.592 149.48H113.324L113.641 146.92H114.936L114.619 149.48H115.814L115.668 150.682H114.473ZM122.4 152.188C122.4 153.031 122.107 153.74 121.521 154.314C120.939 154.889 120.221 155.176 119.365 155.176C118.471 155.176 117.74 154.904 117.174 154.361C116.604 153.814 116.318 153.123 116.318 152.287C116.318 151.432 116.613 150.721 117.203 150.154C117.797 149.584 118.539 149.299 119.43 149.299C120.305 149.299 121.018 149.568 121.568 150.107C122.123 150.639 122.4 151.332 122.4 152.188ZM121.094 152.123C121.094 151.592 120.939 151.172 120.631 150.863C120.322 150.543 119.918 150.383 119.418 150.383C118.898 150.383 118.469 150.561 118.129 150.916C117.789 151.275 117.619 151.727 117.619 152.27C117.619 152.816 117.779 153.256 118.1 153.588C118.42 153.928 118.834 154.098 119.342 154.098C119.85 154.098 120.268 153.912 120.596 153.541C120.928 153.174 121.094 152.701 121.094 152.123ZM65.4062 168.48L64.7266 174.041C64.6836 174.373 64.6348 174.662 64.5801 174.908C64.5293 175.154 64.4707 175.361 64.4043 175.529C64.2676 175.873 64.0645 176.168 63.7949 176.414C63.2715 176.883 62.5918 177.117 61.7559 177.117C60.8926 177.117 60.1934 176.891 59.6582 176.438C59.3848 176.211 59.1934 175.953 59.084 175.664C58.9746 175.398 58.9199 175.025 58.9199 174.545H60.1738C60.2051 175.064 60.3379 175.441 60.5723 175.676C60.8066 175.914 61.1699 176.033 61.6621 176.033C62.1934 176.033 62.5977 175.891 62.875 175.605C63.1523 175.324 63.3281 174.875 63.4023 174.258L63.4961 173.502C62.9492 173.92 62.375 174.129 61.7734 174.129C61.0234 174.129 60.4043 173.873 59.916 173.361C59.4277 172.838 59.1836 172.186 59.1836 171.404C59.1836 170.525 59.4668 169.797 60.0332 169.219C60.6035 168.637 61.3164 168.346 62.1719 168.346C62.582 168.346 62.9141 168.406 63.168 168.527C63.4453 168.645 63.7324 168.857 64.0293 169.166L64.1113 168.48H65.4062ZM63.918 171.1C63.918 170.6 63.7656 170.197 63.4609 169.893C63.1562 169.584 62.7578 169.43 62.2656 169.43C61.7539 169.43 61.3281 169.617 60.9883 169.992C60.6523 170.363 60.4844 170.83 60.4844 171.393C60.4844 171.885 60.6289 172.287 60.918 172.6C61.2109 172.9 61.5977 173.051 62.0781 173.051C62.6133 173.051 63.0527 172.867 63.3965 172.5C63.7441 172.129 63.918 171.662 63.918 171.1ZM72.6367 171.188C72.6367 172.031 72.3438 172.74 71.7578 173.314C71.1758 173.889 70.457 174.176 69.6016 174.176C68.707 174.176 67.9766 173.904 67.4102 173.361C66.8398 172.814 66.5547 172.123 66.5547 171.287C66.5547 170.432 66.8496 169.721 67.4395 169.154C68.0332 168.584 68.7754 168.299 69.666 168.299C70.541 168.299 71.2539 168.568 71.8047 169.107C72.3594 169.639 72.6367 170.332 72.6367 171.188ZM71.3301 171.123C71.3301 170.592 71.1758 170.172 70.8672 169.863C70.5586 169.543 70.1543 169.383 69.6543 169.383C69.1348 169.383 68.7051 169.561 68.3652 169.916C68.0254 170.275 67.8555 170.727 67.8555 171.27C67.8555 171.816 68.0156 172.256 68.3359 172.588C68.6562 172.928 69.0703 173.098 69.5781 173.098C70.0859 173.098 70.5039 172.912 70.832 172.541C71.1641 172.174 71.3301 171.701 71.3301 171.123ZM75.584 173.361C75.584 173.568 75.5039 173.748 75.3438 173.9C75.1836 174.053 74.998 174.129 74.7871 174.129C74.5723 174.129 74.3887 174.051 74.2363 173.895C74.084 173.738 74.0078 173.547 74.0078 173.32C74.0078 173.102 74.0781 172.918 74.2188 172.77C74.3672 172.621 74.5449 172.547 74.752 172.547C74.9824 172.547 75.1777 172.627 75.3379 172.787C75.502 172.947 75.584 173.139 75.584 173.361ZM79.2871 173.361C79.2871 173.568 79.207 173.748 79.0469 173.9C78.8867 174.053 78.7012 174.129 78.4902 174.129C78.2754 174.129 78.0918 174.051 77.9395 173.895C77.7871 173.738 77.7109 173.547 77.7109 173.32C77.7109 173.102 77.7812 172.918 77.9219 172.77C78.0703 172.621 78.248 172.547 78.4551 172.547C78.6855 172.547 78.8809 172.627 79.041 172.787C79.2051 172.947 79.2871 173.139 79.2871 173.361ZM82.9902 173.361C82.9902 173.568 82.9102 173.748 82.75 173.9C82.5898 174.053 82.4043 174.129 82.1934 174.129C81.9785 174.129 81.7949 174.051 81.6426 173.895C81.4902 173.738 81.4141 173.547 81.4141 173.32C81.4141 173.102 81.4844 172.918 81.625 172.77C81.7734 172.621 81.9512 172.547 82.1582 172.547C82.3887 172.547 82.584 172.627 82.7441 172.787C82.9082 172.947 82.9902 173.139 82.9902 173.361ZM34.668 189.104L34.0645 193.99C34.4043 193.736 34.6992 193.566 34.9492 193.48C35.2109 193.391 35.4941 193.346 35.7988 193.346C36.5488 193.346 37.168 193.604 37.6562 194.119C38.1445 194.631 38.3887 195.283 38.3887 196.076C38.3887 196.947 38.1113 197.672 37.5566 198.25C36.998 198.836 36.3164 199.129 35.5117 199.129C34.7617 199.129 34.1055 198.84 33.543 198.262L33.4492 199H32.1543L33.373 189.104H34.668ZM37.0879 196.105C37.0879 195.613 36.9414 195.211 36.6484 194.898C36.3555 194.586 35.9746 194.43 35.5059 194.43C34.998 194.43 34.5781 194.617 34.2461 194.992C33.9141 195.359 33.748 195.834 33.748 196.416C33.748 196.904 33.8906 197.297 34.1758 197.594C34.4609 197.898 34.832 198.051 35.2891 198.051C35.793 198.051 36.2168 197.861 36.5605 197.482C36.9121 197.104 37.0879 196.645 37.0879 196.105ZM44.9453 193.48L44.5527 196.691C44.5215 196.965 44.4824 197.203 44.4355 197.406C44.3887 197.609 44.3379 197.779 44.2832 197.916C44.1738 198.178 43.9902 198.41 43.7324 198.613C43.2949 198.957 42.7188 199.129 42.0039 199.129C41.3242 199.129 40.7812 198.955 40.375 198.607C39.9688 198.256 39.7656 197.785 39.7656 197.195C39.7656 197.105 39.7695 197 39.7773 196.879C39.7891 196.758 39.8047 196.619 39.8242 196.463L40.1875 193.48H41.4824L41.1016 196.58C41.0859 196.713 41.0742 196.83 41.0664 196.932C41.0586 197.029 41.0547 197.111 41.0547 197.178C41.0547 197.76 41.3965 198.051 42.0801 198.051C42.4512 198.051 42.7246 197.955 42.9004 197.764C43.0762 197.572 43.1934 197.236 43.252 196.756L43.6562 193.48H44.9453ZM48.0039 194.682L47.4707 199H46.1758L46.709 194.682H45.9766L46.123 193.48H46.8555L47.1719 190.92H48.4668L48.1504 193.48H49.3457L49.1992 194.682H48.0039ZM55.2871 193.48L55.2285 193.99C55.7402 193.561 56.2578 193.346 56.7812 193.346C57.3203 193.346 57.752 193.496 58.0762 193.797C58.3926 194.098 58.5508 194.508 58.5508 195.027C58.5508 195.309 58.5273 195.645 58.4805 196.035L58.1113 199H56.8223L57.2207 195.754C57.2363 195.633 57.2461 195.525 57.25 195.432C57.2578 195.338 57.2617 195.254 57.2617 195.18C57.2617 194.68 56.9922 194.43 56.4531 194.43C56.1211 194.43 55.8359 194.531 55.5977 194.734C55.4023 194.895 55.2578 195.09 55.1641 195.32C55.1133 195.438 55.0703 195.582 55.0352 195.754C55 195.922 54.9688 196.117 54.9414 196.34L54.6133 199H53.3184L53.998 193.48H55.2871ZM66.0215 196.188C66.0215 197.031 65.7285 197.74 65.1426 198.314C64.5605 198.889 63.8418 199.176 62.9863 199.176C62.0918 199.176 61.3613 198.904 60.7949 198.361C60.2246 197.814 59.9395 197.123 59.9395 196.287C59.9395 195.432 60.2344 194.721 60.8242 194.154C61.418 193.584 62.1602 193.299 63.0508 193.299C63.9258 193.299 64.6387 193.568 65.1895 194.107C65.7441 194.639 66.0215 195.332 66.0215 196.188ZM64.7148 196.123C64.7148 195.592 64.5605 195.172 64.252 194.863C63.9434 194.543 63.5391 194.383 63.0391 194.383C62.5195 194.383 62.0898 194.561 61.75 194.916C61.4102 195.275 61.2402 195.727 61.2402 196.27C61.2402 196.816 61.4004 197.256 61.7207 197.588C62.041 197.928 62.4551 198.098 62.9629 198.098C63.4707 198.098 63.8887 197.912 64.2168 197.541C64.5488 197.174 64.7148 196.701 64.7148 196.123ZM69.0977 194.682L68.5645 199H67.2695L67.8027 194.682H67.0703L67.2168 193.48H67.9492L68.2656 190.92H69.5605L69.2441 193.48H70.4395L70.293 194.682H69.0977ZM80.5059 193.48L79.8262 199H78.5312L78.6074 198.402C78.0527 198.887 77.4785 199.129 76.8848 199.129C76.1543 199.129 75.5586 198.881 75.0977 198.385C74.6367 197.889 74.4062 197.246 74.4062 196.457C74.4062 195.547 74.6699 194.801 75.1973 194.219C75.7324 193.637 76.418 193.346 77.2539 193.346C77.6484 193.346 77.9844 193.41 78.2617 193.539C78.543 193.668 78.8301 193.891 79.123 194.207L79.2109 193.48H80.5059ZM78.9297 196.082C78.9297 195.594 78.7891 195.197 78.5078 194.893C78.2266 194.584 77.8633 194.43 77.418 194.43C76.9336 194.43 76.5273 194.619 76.1992 194.998C75.8711 195.381 75.707 195.85 75.707 196.404C75.707 196.889 75.8438 197.285 76.1172 197.594C76.3906 197.902 76.7422 198.057 77.1719 198.057C77.6484 198.057 78.0605 197.863 78.4082 197.477C78.7559 197.082 78.9297 196.617 78.9297 196.082ZM84.1504 189.104L82.9375 199H81.6426L82.8613 189.104H84.1504ZM93.1621 193.48L89.6113 199.58L88.498 196.018L86.5234 199.58L84.5195 193.48H85.8848L86.8574 196.85L88.8262 193.328L89.8809 196.85L91.6914 193.48H93.1621ZM99.4668 193.48L98.7871 199H97.4922L97.5684 198.402C97.0137 198.887 96.4395 199.129 95.8457 199.129C95.1152 199.129 94.5195 198.881 94.0586 198.385C93.5977 197.889 93.3672 197.246 93.3672 196.457C93.3672 195.547 93.6309 194.801 94.1582 194.219C94.6934 193.637 95.3789 193.346 96.2148 193.346C96.6094 193.346 96.9453 193.41 97.2227 193.539C97.5039 193.668 97.791 193.891 98.084 194.207L98.1719 193.48H99.4668ZM97.8906 196.082C97.8906 195.594 97.75 195.197 97.4688 194.893C97.1875 194.584 96.8242 194.43 96.3789 194.43C95.8945 194.43 95.4883 194.619 95.1602 194.998C94.832 195.381 94.668 195.85 94.668 196.404C94.668 196.889 94.8047 197.285 95.0781 197.594C95.3516 197.902 95.7031 198.057 96.1328 198.057C96.6094 198.057 97.0215 197.863 97.3691 197.477C97.7168 197.082 97.8906 196.617 97.8906 196.082ZM106.715 193.48L101.717 202.158H100.24L102.461 198.314L100.486 193.48H101.869L103.234 197.008L105.232 193.48H106.715ZM111.016 194.09L110.283 194.822C109.939 194.514 109.621 194.359 109.328 194.359C109.129 194.359 108.963 194.416 108.83 194.529C108.701 194.639 108.637 194.775 108.637 194.939C108.637 195.1 108.691 195.234 108.801 195.344C108.91 195.457 109.139 195.609 109.486 195.801C109.982 196.078 110.314 196.332 110.482 196.562C110.662 196.789 110.752 197.084 110.752 197.447C110.752 197.971 110.57 198.391 110.207 198.707C109.836 199.02 109.354 199.176 108.76 199.176C107.951 199.176 107.281 198.811 106.75 198.08L107.6 197.488C107.947 197.906 108.318 198.115 108.713 198.115C108.936 198.115 109.113 198.057 109.246 197.939C109.383 197.822 109.451 197.67 109.451 197.482C109.451 197.318 109.395 197.186 109.281 197.084C109.227 197.033 109.131 196.963 108.994 196.873C108.857 196.783 108.672 196.676 108.438 196.551C108.023 196.32 107.736 196.096 107.576 195.877C107.416 195.646 107.336 195.365 107.336 195.033C107.336 194.533 107.52 194.119 107.887 193.791C108.254 193.463 108.721 193.299 109.287 193.299C109.912 193.299 110.488 193.562 111.016 194.09ZM29.7227 212.48L26.1719 218.58L25.0586 215.018L23.084 218.58L21.0801 212.48H22.4453L23.418 215.85L25.3867 212.328L26.4414 215.85L28.252 212.48H29.7227ZM32.5527 208.104L31.9551 212.949C32.4746 212.547 33.002 212.346 33.5371 212.346C34.0762 212.346 34.5059 212.488 34.8262 212.773C35.1582 213.055 35.3242 213.424 35.3242 213.881C35.3242 213.99 35.3184 214.115 35.3066 214.256C35.2949 214.393 35.2793 214.549 35.2598 214.725L34.8555 218H33.5605L33.9707 214.654C33.9941 214.475 34.0059 214.312 34.0059 214.168C34.0059 213.676 33.7168 213.43 33.1387 213.43C32.3105 213.43 31.8281 213.99 31.6914 215.111L31.334 218H30.0391L31.2578 208.104H32.5527ZM37.9961 215.703C37.9961 216.109 38.1367 216.443 38.418 216.705C38.7031 216.967 39.0664 217.098 39.5078 217.098C40.1133 217.098 40.5781 216.871 40.9023 216.418L41.8691 216.951C41.5332 217.404 41.1875 217.721 40.832 217.9C40.4727 218.084 40.0234 218.176 39.4844 218.176C38.6289 218.176 37.9473 217.924 37.4395 217.42C36.9316 216.916 36.6777 216.242 36.6777 215.398C36.6777 214.516 36.957 213.777 37.5156 213.184C38.0703 212.594 38.7715 212.299 39.6191 212.299C40.4395 212.299 41.0859 212.564 41.5586 213.096C42.0391 213.631 42.2793 214.348 42.2793 215.246C42.2793 215.34 42.2734 215.492 42.2617 215.703H37.9961ZM40.9668 214.66C40.8301 213.809 40.3594 213.383 39.5547 213.383C38.793 213.383 38.2969 213.809 38.0664 214.66H40.9668ZM45.3848 212.48L45.3262 212.955C45.7637 212.541 46.2051 212.334 46.6504 212.334C47.041 212.334 47.3965 212.477 47.7168 212.762L46.8906 213.828C46.6523 213.625 46.4141 213.523 46.1758 213.523C46.0117 213.523 45.8672 213.557 45.7422 213.623C45.6172 213.686 45.5078 213.787 45.4141 213.928C45.3242 214.064 45.248 214.242 45.1855 214.461C45.127 214.68 45.0801 214.941 45.0449 215.246L44.7051 218H43.4102L44.0898 212.48H45.3848ZM49.2578 215.703C49.2578 216.109 49.3984 216.443 49.6797 216.705C49.9648 216.967 50.3281 217.098 50.7695 217.098C51.375 217.098 51.8398 216.871 52.1641 216.418L53.1309 216.951C52.7949 217.404 52.4492 217.721 52.0938 217.9C51.7344 218.084 51.2852 218.176 50.7461 218.176C49.8906 218.176 49.209 217.924 48.7012 217.42C48.1934 216.916 47.9395 216.242 47.9395 215.398C47.9395 214.516 48.2188 213.777 48.7773 213.184C49.332 212.594 50.0332 212.299 50.8809 212.299C51.7012 212.299 52.3477 212.564 52.8203 213.096C53.3008 213.631 53.541 214.348 53.541 215.246C53.541 215.34 53.5352 215.492 53.5234 215.703H49.2578ZM52.2285 214.66C52.0918 213.809 51.6211 213.383 50.8164 213.383C50.0547 213.383 49.5586 213.809 49.3281 214.66H52.2285ZM64.3691 212.48L59.3711 221.158H57.8945L60.1152 217.314L58.1406 212.48H59.5234L60.8887 216.008L62.8867 212.48H64.3691ZM70.6797 215.188C70.6797 216.031 70.3867 216.74 69.8008 217.314C69.2188 217.889 68.5 218.176 67.6445 218.176C66.75 218.176 66.0195 217.904 65.4531 217.361C64.8828 216.814 64.5977 216.123 64.5977 215.287C64.5977 214.432 64.8926 213.721 65.4824 213.154C66.0762 212.584 66.8184 212.299 67.709 212.299C68.584 212.299 69.2969 212.568 69.8477 213.107C70.4023 213.639 70.6797 214.332 70.6797 215.188ZM69.373 215.123C69.373 214.592 69.2188 214.172 68.9102 213.863C68.6016 213.543 68.1973 213.383 67.6973 213.383C67.1777 213.383 66.748 213.561 66.4082 213.916C66.0684 214.275 65.8984 214.727 65.8984 215.27C65.8984 215.816 66.0586 216.256 66.3789 216.588C66.6992 216.928 67.1133 217.098 67.6211 217.098C68.1289 217.098 68.5469 216.912 68.875 216.541C69.207 216.174 69.373 215.701 69.373 215.123ZM77.2363 212.48L76.8438 215.691C76.8125 215.965 76.7734 216.203 76.7266 216.406C76.6797 216.609 76.6289 216.779 76.5742 216.916C76.4648 217.178 76.2812 217.41 76.0234 217.613C75.5859 217.957 75.0098 218.129 74.2949 218.129C73.6152 218.129 73.0723 217.955 72.666 217.607C72.2598 217.256 72.0566 216.785 72.0566 216.195C72.0566 216.105 72.0605 216 72.0684 215.879C72.0801 215.758 72.0957 215.619 72.1152 215.463L72.4785 212.48H73.7734L73.3926 215.58C73.377 215.713 73.3652 215.83 73.3574 215.932C73.3496 216.029 73.3457 216.111 73.3457 216.178C73.3457 216.76 73.6875 217.051 74.3711 217.051C74.7422 217.051 75.0156 216.955 75.1914 216.764C75.3672 216.572 75.4844 216.236 75.543 215.756L75.9473 212.48H77.2363ZM90.4961 212.48L86.9453 218.58L85.832 215.018L83.8574 218.58L81.8535 212.48H83.2188L84.1914 215.85L86.1602 212.328L87.2148 215.85L89.0254 212.48H90.4961ZM96.8008 212.48L96.1211 218H94.8262L94.9023 217.402C94.3477 217.887 93.7734 218.129 93.1797 218.129C92.4492 218.129 91.8535 217.881 91.3926 217.385C90.9316 216.889 90.7012 216.246 90.7012 215.457C90.7012 214.547 90.9648 213.801 91.4922 213.219C92.0273 212.637 92.7129 212.346 93.5488 212.346C93.9434 212.346 94.2793 212.41 94.5566 212.539C94.8379 212.668 95.125 212.891 95.418 213.207L95.5059 212.48H96.8008ZM95.2246 215.082C95.2246 214.594 95.084 214.197 94.8027 213.893C94.5215 213.584 94.1582 213.43 93.7129 213.43C93.2285 213.43 92.8223 213.619 92.4941 213.998C92.166 214.381 92.002 214.85 92.002 215.404C92.002 215.889 92.1387 216.285 92.4121 216.594C92.6855 216.902 93.0371 217.057 93.4668 217.057C93.9434 217.057 94.3555 216.863 94.7031 216.477C95.0508 216.082 95.2246 215.617 95.2246 215.082ZM99.9062 212.48L99.8477 212.99C100.359 212.561 100.877 212.346 101.4 212.346C101.939 212.346 102.371 212.496 102.695 212.797C103.012 213.098 103.17 213.508 103.17 214.027C103.17 214.309 103.146 214.645 103.1 215.035L102.73 218H101.441L101.84 214.754C101.855 214.633 101.865 214.525 101.869 214.432C101.877 214.338 101.881 214.254 101.881 214.18C101.881 213.68 101.611 213.43 101.072 213.43C100.74 213.43 100.455 213.531 100.217 213.734C100.021 213.895 99.877 214.09 99.7832 214.32C99.7324 214.438 99.6895 214.582 99.6543 214.754C99.6191 214.922 99.5879 215.117 99.5605 215.34L99.2324 218H97.9375L98.6172 212.48H99.9062ZM106.463 213.682L105.93 218H104.635L105.168 213.682H104.436L104.582 212.48H105.314L105.631 209.92H106.926L106.609 212.48H107.805L107.658 213.682H106.463ZM113.693 213.682L113.16 218H111.865L112.398 213.682H111.666L111.812 212.48H112.545L112.861 209.92H114.156L113.84 212.48H115.035L114.889 213.682H113.693ZM121.621 215.188C121.621 216.031 121.328 216.74 120.742 217.314C120.16 217.889 119.441 218.176 118.586 218.176C117.691 218.176 116.961 217.904 116.395 217.361C115.824 216.814 115.539 216.123 115.539 215.287C115.539 214.432 115.834 213.721 116.424 213.154C117.018 212.584 117.76 212.299 118.65 212.299C119.525 212.299 120.238 212.568 120.789 213.107C121.344 213.639 121.621 214.332 121.621 215.188ZM120.314 215.123C120.314 214.592 120.16 214.172 119.852 213.863C119.543 213.543 119.139 213.383 118.639 213.383C118.119 213.383 117.689 213.561 117.35 213.916C117.01 214.275 116.84 214.727 116.84 215.27C116.84 215.816 117 216.256 117.32 216.588C117.641 216.928 118.055 217.098 118.562 217.098C119.07 217.098 119.488 216.912 119.816 216.541C120.148 216.174 120.314 215.701 120.314 215.123ZM69.0918 232.48L68.4121 238.041C68.3691 238.373 68.3203 238.662 68.2656 238.908C68.2148 239.154 68.1562 239.361 68.0898 239.529C67.9531 239.873 67.75 240.168 67.4805 240.414C66.957 240.883 66.2773 241.117 65.4414 241.117C64.5781 241.117 63.8789 240.891 63.3438 240.438C63.0703 240.211 62.8789 239.953 62.7695 239.664C62.6602 239.398 62.6055 239.025 62.6055 238.545H63.8594C63.8906 239.064 64.0234 239.441 64.2578 239.676C64.4922 239.914 64.8555 240.033 65.3477 240.033C65.8789 240.033 66.2832 239.891 66.5605 239.605C66.8379 239.324 67.0137 238.875 67.0879 238.258L67.1816 237.502C66.6348 237.92 66.0605 238.129 65.459 238.129C64.709 238.129 64.0898 237.873 63.6016 237.361C63.1133 236.838 62.8691 236.186 62.8691 235.404C62.8691 234.525 63.1523 233.797 63.7188 233.219C64.2891 232.637 65.002 232.346 65.8574 232.346C66.2676 232.346 66.5996 232.406 66.8535 232.527C67.1309 232.645 67.418 232.857 67.7148 233.166L67.7969 232.48H69.0918ZM67.6035 235.1C67.6035 234.6 67.4512 234.197 67.1465 233.893C66.8418 233.584 66.4434 233.43 65.9512 233.43C65.4395 233.43 65.0137 233.617 64.6738 233.992C64.3379 234.363 64.1699 234.83 64.1699 235.393C64.1699 235.885 64.3145 236.287 64.6035 236.6C64.8965 236.9 65.2832 237.051 65.7637 237.051C66.2988 237.051 66.7383 236.867 67.082 236.5C67.4297 236.129 67.6035 235.662 67.6035 235.1ZM76.3223 235.188C76.3223 236.031 76.0293 236.74 75.4434 237.314C74.8613 237.889 74.1426 238.176 73.2871 238.176C72.3926 238.176 71.6621 237.904 71.0957 237.361C70.5254 236.814 70.2402 236.123 70.2402 235.287C70.2402 234.432 70.5352 233.721 71.125 233.154C71.7188 232.584 72.4609 232.299 73.3516 232.299C74.2266 232.299 74.9395 232.568 75.4902 233.107C76.0449 233.639 76.3223 234.332 76.3223 235.188ZM75.0156 235.123C75.0156 234.592 74.8613 234.172 74.5527 233.863C74.2441 233.543 73.8398 233.383 73.3398 233.383C72.8203 233.383 72.3906 233.561 72.0508 233.916C71.7109 234.275 71.541 234.727 71.541 235.27C71.541 235.816 71.7012 236.256 72.0215 236.588C72.3418 236.928 72.7559 237.098 73.2637 237.098C73.7715 237.098 74.1895 236.912 74.5176 236.541C74.8496 236.174 75.0156 235.701 75.0156 235.123ZM79.2812 237.355C79.2812 237.574 79.207 237.758 79.0586 237.906C78.9102 238.055 78.7266 238.129 78.5078 238.129C78.2852 238.129 78.0957 238.051 77.9395 237.895C77.7871 237.738 77.7109 237.543 77.7109 237.309C77.7109 237.094 77.7852 236.912 77.9336 236.764C78.0938 236.615 78.2812 236.541 78.4961 236.541C78.6055 236.541 78.707 236.562 78.8008 236.605C78.8984 236.645 78.9824 236.701 79.0527 236.775C79.123 236.846 79.1777 236.932 79.2168 237.033C79.2598 237.131 79.2812 237.238 79.2812 237.355ZM80.1426 228.953L79.3223 235.627H78.0449L78.8594 228.953H80.1426Z" fill="white"/>
<defs>
<filter id="filter0_d" x="10" y="51" width="125" height="24" filterUnits="userSpaceOnUse" color-interpolation-filters="sRGB">
<feFlood flood-opacity="0" result="BackgroundImageFix"/>
<feColorMatrix in="SourceAlpha" type="matrix" values="0 0 0 0 0 0 0 0 0 0 0 0 0 0 0 0 0 0 127 0"/>
<feOffset dy="2"/>
<feGaussianBlur stdDeviation="1"/>
<feColorMatrix type="matrix" values="0 0 0 0 0 0 0 0 0 0 0 0 0 0 0 0 0 0 0.25 0"/>
<feBlend mode="normal" in2="BackgroundImageFix" result="effect1_dropShadow"/>
<feBlend mode="normal" in="SourceGraphic" in2="effect1_dropShadow" result="shape"/>
</filter>
<filter id="filter1_d" x="14" y="56" width="125" height="18" filterUnits="userSpaceOnUse" color-interpolation-filters="sRGB">
<feFlood flood-opacity="0" result="BackgroundImageFix"/>
<feColorMatrix in="SourceAlpha" type="matrix" values="0 0 0 0 0 0 0 0 0 0 0 0 0 0 0 0 0 0 127 0"/>
<feOffset dx="4" dy="4"/>
<feGaussianBlur stdDeviation="2"/>
<feColorMatrix type="matrix" values="0 0 0 0 0 0 0 0 0 0 0 0 0 0 0 0 0 0 0.25 0"/>
<feBlend mode="normal" in2="BackgroundImageFix" result="effect1_dropShadow"/>
<feBlend mode="normal" in="SourceGraphic" in2="effect1_dropShadow" result="shape"/>
</filter>
<filter id="filter2_i" x="12" y="41" width="121" height="10" filterUnits="userSpaceOnUse" color-interpolation-filters="sRGB">
<feFlood flood-opacity="0" result="BackgroundImageFix"/>
<feBlend mode="normal" in="SourceGraphic" in2="BackgroundImageFix" result="shape"/>
<feColorMatrix in="SourceAlpha" type="matrix" values="0 0 0 0 0 0 0 0 0 0 0 0 0 0 0 0 0 0 127 0" result="hardAlpha"/>
<feOffset dy="-2"/>
<feGaussianBlur stdDeviation="2"/>
<feComposite in2="hardAlpha" operator="arithmetic" k2="-1" k3="1"/>
<feColorMatrix type="matrix" values="0 0 0 0 0 0 0 0 0 0 0 0 0 0 0 0 0 0 0.25 0"/>
<feBlend mode="normal" in2="shape" result="effect1_innerShadow"/>
</filter>
<filter id="filter3_i" x="17" y="31" width="111" height="12" filterUnits="userSpaceOnUse" color-interpolation-filters="sRGB">
<feFlood flood-opacity="0" result="BackgroundImageFix"/>
<feBlend mode="normal" in="SourceGraphic" in2="BackgroundImageFix" result="shape"/>
<feColorMatrix in="SourceAlpha" type="matrix" values="0 0 0 0 0 0 0 0 0 0 0 0 0 0 0 0 0 0 127 0" result="hardAlpha"/>
<feOffset dy="-2"/>
<feGaussianBlur stdDeviation="2"/>
<feComposite in2="hardAlpha" operator="arithmetic" k2="-1" k3="1"/>
<feColorMatrix type="matrix" values="0 0 0 0 0 0 0 0 0 0 0 0 0 0 0 0 0 0 0.25 0"/>
<feBlend mode="normal" in2="shape" result="effect1_innerShadow"/>
</filter>
<filter id="filter4_i" x="12" y="71" width="121" height="6.00001" filterUnits="userSpaceOnUse" color-interpolation-filters="sRGB">
<feFlood flood-opacity="0" result="BackgroundImageFix"/>
<feBlend mode="normal" in="SourceGraphic" in2="BackgroundImageFix" result="shape"/>
<feColorMatrix in="SourceAlpha" type="matrix" values="0 0 0 0 0 0 0 0 0 0 0 0 0 0 0 0 0 0 127 0" result="hardAlpha"/>
<feOffset dy="6"/>
<feGaussianBlur stdDeviation="3"/>
<feComposite in2="hardAlpha" operator="arithmetic" k2="-1" k3="1"/>
<feColorMatrix type="matrix" values="0 0 0 0 0 0 0 0 0 0 0 0 0 0 0 0 0 0 0.25 0"/>
<feBlend mode="normal" in2="shape" result="effect1_innerShadow"/>
</filter>
<filter id="filter5_i" x="65.0009" y="-2" width="13.9981" height="8" filterUnits="userSpaceOnUse" color-interpolation-filters="sRGB">
<feFlood flood-opacity="0" result="BackgroundImageFix"/>
<feBlend mode="normal" in="SourceGraphic" in2="BackgroundImageFix" result="shape"/>
<feColorMatrix in="SourceAlpha" type="matrix" values="0 0 0 0 0 0 0 0 0 0 0 0 0 0 0 0 0 0 127 0" result="hardAlpha"/>
<feOffset dy="-4"/>
<feGaussianBlur stdDeviation="2"/>
<feComposite in2="hardAlpha" operator="arithmetic" k2="-1" k3="1"/>
<feColorMatrix type="matrix" values="0 0 0 0 0 0 0 0 0 0 0 0 0 0 0 0 0 0 0.25 0"/>
<feBlend mode="normal" in2="shape" result="effect1_innerShadow"/>
</filter>
<filter id="filter6_d" x="0" y="255" width="145" height="19" filterUnits="userSpaceOnUse" color-interpolation-filters="sRGB">
<feFlood flood-opacity="0" result="BackgroundImageFix"/>
<feColorMatrix in="SourceAlpha" type="matrix" values="0 0 0 0 0 0 0 0 0 0 0 0 0 0 0 0 0 0 127 0"/>
<feOffset dy="2"/>
<feGaussianBlur stdDeviation="3"/>
<feColorMatrix type="matrix" values="0 0 0 0 0 0 0 0 0 0 0 0 0 0 0 0 0 0 0.25 0"/>
<feBlend mode="normal" in2="BackgroundImageFix" result="effect1_dropShadow"/>
<feBlend mode="normal" in="SourceGraphic" in2="effect1_dropShadow" result="shape"/>
</filter>
<filter id="filter7_i" x="6" y="253" width="133" height="6" filterUnits="userSpaceOnUse" color-interpolation-filters="sRGB">
<feFlood flood-opacity="0" result="BackgroundImageFix"/>
<feBlend mode="normal" in="SourceGraphic" in2="BackgroundImageFix" result="shape"/>
<feColorMatrix in="SourceAlpha" type="matrix" values="0 0 0 0 0 0 0 0 0 0 0 0 0 0 0 0 0 0 127 0" result="hardAlpha"/>
<feOffset dy="-2"/>
<feGaussianBlur stdDeviation="5"/>
<feComposite in2="hardAlpha" operator="arithmetic" k2="-1" k3="1"/>
<feColorMatrix type="matrix" values="0 0 0 0 0 0 0 0 0 0 0 0 0 0 0 0 0 0 0.25 0"/>
<feBlend mode="normal" in2="shape" result="effect1_innerShadow"/>
</filter>
<linearGradient id="paint0_linear" x1="72" y1="20" x2="72" y2="24" gradientUnits="userSpaceOnUse">
<stop stop-color="#03315A"/>
<stop offset="1" stop-color="#022E54"/>
</linearGradient>
<linearGradient id="paint1_linear" x1="72" y1="20" x2="72" y2="21" gradientUnits="userSpaceOnUse">
<stop stop-color="#03447E"/>
<stop offset="1" stop-color="#022E56"/>
</linearGradient>
<linearGradient id="paint2_linear" x1="72" y1="2" x2="72" y2="6" gradientUnits="userSpaceOnUse">
<stop stop-color="#003B6F"/>
<stop offset="0.685083" stop-color="#003B6F"/>
<stop offset="1" stop-color="#033B6C"/>
</linearGradient>
<linearGradient id="paint3_linear" x1="72.5" y1="24" x2="72.5" y2="33" gradientUnits="userSpaceOnUse">
<stop offset="0.127072" stop-color="#022C51"/>
<stop offset="0.696133" stop-color="#003B6F"/>
<stop offset="1" stop-color="#003B6F"/>
</linearGradient>
<linearGradient id="paint4_linear" x1="72.5" y1="255" x2="72.5" y2="259" gradientUnits="userSpaceOnUse">
<stop offset="0.0276243" stop-color="#01315B"/>
<stop offset="0.624309" stop-color="#003B6F"/>
<stop offset="0.917127" stop-color="#003B6F"/>
</linearGradient>
</defs>
</svg>
