<svg width="823" height="457" viewBox="0 0 823 457" fill="none" xmlns="http://www.w3.org/2000/svg">
<path fill-rule="evenodd" clip-rule="evenodd" d="M723.92 237.848C738.328 253.889 739.307 278.015 725.367 294.169C711.428 310.321 687.419 312.884 669.442 300.979C670.721 302.402 672.105 303.762 673.594 305.046C691.863 320.812 718.975 319.336 734.152 301.749C749.328 284.163 746.822 257.126 728.553 241.36C727.064 240.075 725.516 238.905 723.92 237.848Z" fill="#C0C1C4"/>
<path fill-rule="evenodd" clip-rule="evenodd" d="M691.617 225.456C670.45 229.568 655.124 248.226 656.507 269.517C657.889 290.808 675.499 307.328 697.02 308.668C695.141 309.033 693.217 309.283 691.254 309.41C667.174 310.974 646.433 293.449 644.928 270.269C643.423 247.088 661.724 227.029 685.804 225.466C687.767 225.338 689.707 225.337 691.617 225.456Z" fill="#C0C1C4"/>
<g filter="url(#filter0_i)">
<path fill-rule="evenodd" clip-rule="evenodd" d="M580.394 414.143C667.631 437.518 757.3 385.747 780.676 298.51C804.051 211.272 752.28 121.603 665.043 98.2281C613.413 84.3938 560.931 96.8808 521.844 127.464C494.887 148.555 474.302 178.254 464.761 213.861C441.386 301.098 493.156 390.767 580.394 414.143ZM683.775 312.711C706.213 318.724 729.298 305.329 735.336 282.795C741.374 260.26 728.079 237.118 705.641 231.106C683.203 225.094 660.119 238.488 654.081 261.022C648.042 283.557 661.337 306.699 683.775 312.711Z" fill="#C0C1C4"/>
</g>
<g filter="url(#filter1_i)">
<path d="M70.3883 47.0307C78.9196 49.3166 297.111 109.644 418.841 138.07C436.874 142.281 430.709 122.038 444.651 125.78C459.882 129.862 464.443 140.854 473.254 145.084C487.885 152.109 524.704 127.443 524.704 127.443L467.92 308.553C467.92 308.553 456.417 279.162 438.221 280.032C424.243 280.7 413.723 290.927 393.764 285.579C381.836 276.175 392.145 271.162 385.328 263.143C379.031 255.737 363.505 252.446 356.953 250.69C346.26 246.049 341.319 220.048 330.051 215.934C318.739 211.804 314.207 226.044 292.673 220.274C285.319 218.304 284.965 209.602 277.97 207.217C265.913 203.105 259.556 214.311 241.524 209.479C232.859 206.474 229.386 196.881 221.238 194.149C208.208 189.781 201.951 200.3 184.625 194.233C175.836 191.155 169.467 178.688 162.422 176.256C143.374 169.68 152.897 177.486 134.237 172.196C129.266 170.786 125.678 161.276 121.013 159.922C111.253 157.09 107.619 164.391 95.0102 160.327C90.0012 158.712 78.0832 145.516 72.0933 137.308C68.5541 132.459 56.3935 128.911 50.7461 120.337C35.5406 97.2505 22.1843 88.9904 31.0289 69.2699C38.3729 52.8953 57.9581 43.7 70.3883 47.0307Z" fill="#C0C1C4"/>
</g>
<path d="M40.5 83C267.602 147.421 523.241 208.881 516.337 223.015C509.433 237.148 464.791 237.621 440.766 231.348C416.74 225.075 90.5506 133.206 77.537 125.365C64.5234 117.524 57.4654 110.422 48.5453 96.5C42.4582 87 41.4125 86.4207 40.5 83Z" fill="url(#paint0_linear)"/>
<path fill-rule="evenodd" clip-rule="evenodd" d="M736.576 276.746C728.402 296.699 707.105 308.077 686.496 302.555C665.887 297.033 653.134 276.531 656.031 255.165C655.305 256.935 654.683 258.773 654.174 260.673C647.929 283.981 661.055 307.751 683.493 313.763C705.931 319.775 729.184 305.754 735.429 282.445C735.938 280.545 736.319 278.642 736.576 276.746Z" fill="#C0C1C4"/>
<path d="M549.322 326.967L593.475 341.813L598.562 326.685L605.859 329.139L598.162 352.032L546.711 334.731L549.322 326.967ZM580.797 317.744C573.555 315.309 568.228 310.563 564.815 303.505C561.394 296.47 560.931 289.243 563.426 281.823C565.891 274.492 570.627 269.086 577.632 265.606C584.646 262.104 591.829 261.59 599.182 264.062C606.58 266.55 611.967 271.303 615.343 278.324C618.733 285.374 619.166 292.653 616.642 300.162C614.408 306.804 610.103 311.996 603.727 315.737C596.682 319.846 589.039 320.516 580.797 317.744ZM583.53 309.947C589.218 311.859 594.536 311.521 599.487 308.933C604.429 306.367 607.738 302.595 609.411 297.619C611.226 292.221 610.891 287.039 608.407 282.074C605.877 277.095 601.903 273.693 596.482 271.871C590.995 270.026 585.78 270.312 580.838 272.73C575.88 275.118 572.498 279.001 570.69 284.377C568.89 289.731 569.236 294.879 571.728 299.821C574.176 304.749 578.11 308.124 583.53 309.947ZM610.229 227.459L617.377 206.199L619.077 206.771C622.942 208.07 626.21 209.676 628.881 211.588C631.337 213.403 633.41 215.769 635.099 218.686C638.869 225.27 639.514 232.25 637.034 239.625C634.614 246.823 629.942 252.114 623.018 255.498C616.072 258.874 608.944 259.333 601.636 256.876C594.171 254.366 588.718 249.626 585.275 242.658C581.81 235.682 581.336 228.451 583.853 220.964C585.205 216.943 587.289 213.465 590.106 210.53C592.871 207.751 596.638 205.37 601.409 203.389L604.847 210.702C597.808 213.033 593.268 217.231 591.229 223.296C589.399 228.739 589.741 233.935 592.255 238.885C594.703 243.813 598.704 247.211 604.258 249.078C609.989 251.005 615.401 250.538 620.493 247.675C625.228 244.99 628.351 241.404 629.86 236.916C631.144 233.095 631.01 229.23 629.456 225.32C627.881 221.402 625.342 218.657 621.84 217.084L617.526 229.913L610.229 227.459ZM598.624 180.346L650.074 197.647L647.463 205.411L596.013 188.111L598.624 180.346ZM654.231 185.284L599.282 166.807L651.153 142.485L615.397 130.462L618.008 122.698L672.591 141.052L620.82 165.407L656.842 177.52L654.231 185.284Z" fill="#0563B6"/>
<defs>
<filter id="filter0_i" x="422.437" y="49.9036" width="406.563" height="406.563" filterUnits="userSpaceOnUse" color-interpolation-filters="sRGB">
<feFlood flood-opacity="0" result="BackgroundImageFix"/>
<feBlend mode="normal" in="SourceGraphic" in2="BackgroundImageFix" result="shape"/>
<feColorMatrix in="SourceAlpha" type="matrix" values="0 0 0 0 0 0 0 0 0 0 0 0 0 0 0 0 0 0 127 0" result="hardAlpha"/>
<feOffset dx="6" dy="-16"/>
<feGaussianBlur stdDeviation="3"/>
<feComposite in2="hardAlpha" operator="arithmetic" k2="-1" k3="1"/>
<feColorMatrix type="matrix" values="0 0 0 0 0.501497 0 0 0 0 0.507548 0 0 0 0 0.519651 0 0 0 1 0"/>
<feBlend mode="normal" in2="shape" result="effect1_innerShadow"/>
</filter>
<filter id="filter1_i" x="0" y="-6" width="530.704" height="316.617" filterUnits="userSpaceOnUse" color-interpolation-filters="sRGB">
<feFlood flood-opacity="0" result="BackgroundImageFix"/>
<feBlend mode="normal" in="SourceGraphic" in2="BackgroundImageFix" result="shape"/>
<feColorMatrix in="SourceAlpha" type="matrix" values="0 0 0 0 0 0 0 0 0 0 0 0 0 0 0 0 0 0 127 0" result="hardAlpha"/>
<feOffset dx="9" dy="-10"/>
<feGaussianBlur stdDeviation="3"/>
<feComposite in2="hardAlpha" operator="arithmetic" k2="-1" k3="1"/>
<feColorMatrix type="matrix" values="0 0 0 0 0.501497 0 0 0 0 0.507548 0 0 0 0 0.519651 0 0 0 1 0"/>
<feBlend mode="normal" in2="shape" result="effect1_innerShadow"/>
</filter>
<linearGradient id="paint0_linear" x1="280.377" y1="146.062" x2="269.679" y2="185.988" gradientUnits="userSpaceOnUse">
<stop stop-color="#B7B8BA"/>
<stop offset="0.248619" stop-color="#B7B8BA" stop-opacity="0.59"/>
<stop offset="0.430939" stop-color="#CECFD0" stop-opacity="0.29"/>
<stop offset="0.668508" stop-color="#BABCBE" stop-opacity="0.42"/>
<stop offset="0.961326" stop-color="#BABBBD"/>
</linearGradient>
</defs>
</svg>
