<svg width="2270" height="1260" viewBox="0 0 2270 1260" fill="none" xmlns="http://www.w3.org/2000/svg">
<path fill-rule="evenodd" clip-rule="evenodd" d="M1996.64 656.484C2036.38 700.725 2039.07 767.262 2000.63 811.81C1962.19 856.358 1895.97 863.424 1846.39 830.59C1849.92 834.516 1853.74 838.266 1857.84 841.81C1908.23 885.29 1983 881.218 2024.86 832.717C2066.71 784.215 2059.8 709.649 2009.42 666.17C2005.31 662.626 2001.04 659.398 1996.64 656.484Z" fill="#C0C1C4"/>
<path fill-rule="evenodd" clip-rule="evenodd" d="M1907.55 622.309C1849.18 633.648 1806.91 685.104 1810.72 743.824C1814.53 802.543 1863.1 848.102 1922.45 851.798C1917.27 852.804 1911.96 853.495 1906.55 853.846C1840.14 858.158 1782.94 809.828 1778.79 745.897C1774.64 681.967 1825.11 626.645 1891.52 622.334C1896.93 621.982 1902.28 621.981 1907.55 622.309Z" fill="#C0C1C4"/>
<g filter="url(#filter0_i)">
<path fill-rule="evenodd" clip-rule="evenodd" d="M1600.81 1142.69C1841.4 1207.16 2088.7 1064.38 2153.17 823.784C2217.63 583.19 2074.85 335.89 1834.26 271.424C1691.87 233.27 1547.13 267.708 1439.33 352.053C1364.99 410.222 1308.21 492.127 1281.9 590.329C1217.43 830.922 1360.21 1078.22 1600.81 1142.69ZM1885.92 862.951C1947.8 879.532 2011.47 842.592 2028.12 780.443C2044.78 718.294 2008.11 654.471 1946.23 637.89C1884.35 621.309 1820.68 658.248 1804.03 720.397C1787.37 782.546 1824.04 846.369 1885.92 862.951Z" fill="#C0C1C4"/>
</g>
<g filter="url(#filter1_i)">
<path d="M194.254 130.226C217.783 136.53 819.536 302.909 1155.26 381.305C1204.99 392.919 1187.99 337.089 1226.44 347.41C1268.45 358.666 1281.02 388.982 1305.32 400.649C1345.67 420.021 1447.22 351.995 1447.22 351.995L1290.61 851.482C1290.61 851.482 1258.89 770.424 1208.71 772.822C1170.16 774.665 1141.14 802.871 1086.1 788.122C1053.2 762.186 1081.63 748.361 1062.83 726.245C1045.47 705.819 1002.65 696.742 984.575 691.9C955.084 679.102 941.457 607.392 910.381 596.046C879.186 584.657 866.684 623.93 807.295 608.016C787.016 602.583 786.039 578.584 766.747 572.005C733.494 560.666 715.964 591.57 666.232 578.244C642.334 569.958 632.758 543.501 610.285 535.967C574.349 523.918 557.094 552.929 509.31 536.197C485.071 527.709 467.504 493.325 448.074 486.617C395.543 468.482 421.808 490.01 370.344 475.42C356.634 471.533 346.737 445.305 333.874 441.571C306.956 433.759 296.934 453.896 262.159 442.687C248.345 438.234 215.476 401.839 198.957 379.204C189.196 365.83 155.658 356.044 140.083 332.397C98.1473 268.728 61.3118 245.947 85.7045 191.56C105.959 146.4 159.973 121.04 194.254 130.226Z" fill="#C0C1C4"/>
</g>
<path d="M107.391 229.032C737.264 407.65 1443.23 576.606 1424.14 615.574C1405.06 654.542 1281.29 655.672 1214.66 638.272C1148.03 620.872 261.347 388.099 225.237 366.416C189.127 344.732 169.532 325.109 144.747 286.665C122.028 260.42 108.334 240.694 107.391 229.032Z" fill="url(#paint0_linear)"/>
<path fill-rule="evenodd" clip-rule="evenodd" d="M2031.54 763.76C2009 818.787 1950.27 850.168 1893.43 834.939C1836.59 819.709 1801.42 763.165 1809.41 704.239C1807.41 709.122 1805.69 714.191 1804.29 719.431C1787.06 783.714 1823.26 849.267 1885.15 865.848C1947.03 882.429 2011.16 843.76 2028.38 779.477C2029.79 774.237 2030.83 768.989 2031.54 763.76Z" fill="#C0C1C4"/>
<path d="M1493.33 920.869L1615.97 962.11L1630.1 920.086L1650.38 926.902L1628.99 990.493L1486.08 942.437L1493.33 920.869ZM1580.76 895.251C1560.64 888.486 1545.84 875.302 1536.36 855.698C1526.86 836.156 1525.58 816.08 1532.51 795.469C1539.35 775.105 1552.51 760.09 1571.97 750.423C1591.45 740.695 1611.4 739.265 1631.83 746.134C1652.38 753.043 1667.34 766.249 1676.72 785.749C1686.14 805.332 1687.34 825.553 1680.33 846.41C1674.12 864.861 1662.16 879.283 1644.45 889.674C1624.88 901.09 1603.65 902.949 1580.76 895.251ZM1588.35 873.592C1604.15 878.904 1618.92 877.965 1632.67 870.775C1646.4 863.646 1655.59 853.17 1660.24 839.348C1665.28 824.352 1664.35 809.959 1657.45 796.168C1650.43 782.335 1639.39 772.887 1624.33 767.824C1609.09 762.699 1594.6 763.494 1580.87 770.211C1567.1 776.845 1557.71 787.629 1552.68 802.563C1547.68 817.435 1548.64 831.736 1555.57 845.465C1562.37 859.153 1573.29 868.529 1588.35 873.592ZM1662.51 644.459L1682.37 585.403L1687.09 586.991C1697.83 590.601 1706.91 595.062 1714.33 600.372C1721.15 605.414 1726.9 611.986 1731.6 620.089C1742.07 638.378 1743.86 657.766 1736.97 678.254C1730.25 698.248 1717.27 712.944 1698.04 722.343C1678.74 731.722 1658.95 732.998 1638.64 726.171C1617.91 719.199 1602.76 706.035 1593.2 686.678C1583.57 667.3 1582.25 647.213 1589.25 626.417C1593 615.248 1598.79 605.587 1606.62 597.434C1614.3 589.713 1624.76 583.101 1638.01 577.597L1647.57 597.912C1628.01 604.387 1615.4 616.048 1609.74 632.894C1604.65 648.013 1605.6 662.447 1612.59 676.198C1619.39 689.886 1630.5 699.324 1645.93 704.511C1661.85 709.865 1676.88 708.566 1691.02 700.615C1704.18 693.156 1712.85 683.193 1717.04 670.728C1720.61 660.114 1720.24 649.377 1715.92 638.516C1711.55 627.634 1704.49 620.008 1694.77 615.638L1682.78 651.275L1662.51 644.459ZM1630.28 513.59L1773.19 561.647L1765.94 583.214L1623.02 535.157L1630.28 513.59ZM1784.74 527.306L1632.1 475.981L1776.19 408.42L1676.87 375.023L1684.12 353.455L1835.74 404.438L1691.93 472.093L1791.99 505.739L1784.74 527.306Z" fill="#0563B6"/>
<defs>
<filter id="filter0_i" x="1161.17" y="146.696" width="1108.72" height="1112.72" filterUnits="userSpaceOnUse" color-interpolation-filters="sRGB">
<feFlood flood-opacity="0" result="BackgroundImageFix"/>
<feBlend mode="normal" in="SourceGraphic" in2="BackgroundImageFix" result="shape"/>
<feColorMatrix in="SourceAlpha" type="matrix" values="0 0 0 0 0 0 0 0 0 0 0 0 0 0 0 0 0 0 127 0" result="hardAlpha"/>
<feOffset dx="-4" dy="-50"/>
<feGaussianBlur stdDeviation="4"/>
<feComposite in2="hardAlpha" operator="arithmetic" k2="-1" k3="1"/>
<feColorMatrix type="matrix" values="0 0 0 0 0.501497 0 0 0 0 0.507548 0 0 0 0 0.519651 0 0 0 1 0"/>
<feBlend mode="normal" in2="shape" result="effect1_innerShadow"/>
</filter>
<filter id="filter1_i" x="0.129456" y="-7.48096" width="1455.09" height="864.655" filterUnits="userSpaceOnUse" color-interpolation-filters="sRGB">
<feFlood flood-opacity="0" result="BackgroundImageFix"/>
<feBlend mode="normal" in="SourceGraphic" in2="BackgroundImageFix" result="shape"/>
<feColorMatrix in="SourceAlpha" type="matrix" values="0 0 0 0 0 0 0 0 0 0 0 0 0 0 0 0 0 0 127 0" result="hardAlpha"/>
<feOffset dx="15" dy="-25"/>
<feGaussianBlur stdDeviation="4"/>
<feComposite in2="hardAlpha" operator="arithmetic" k2="-1" k3="1"/>
<feColorMatrix type="matrix" values="0 0 0 0 0.501497 0 0 0 0 0.507548 0 0 0 0 0.519651 0 0 0 1 0"/>
<feBlend mode="normal" in2="shape" result="effect1_innerShadow"/>
</filter>
<linearGradient id="paint0_linear" x1="769.661" y1="402.348" x2="740.156" y2="512.462" gradientUnits="userSpaceOnUse">
<stop stop-color="#B7B8BA"/>
<stop offset="0.248619" stop-color="#B7B8BA" stop-opacity="0.59"/>
<stop offset="0.430939" stop-color="#CECFD0" stop-opacity="0.29"/>
<stop offset="0.668508" stop-color="#BABCBE" stop-opacity="0.42"/>
<stop offset="0.961326" stop-color="#BABBBD"/>
</linearGradient>
</defs>
</svg>
