<svg width="904" height="1791" viewBox="0 0 904 1791" fill="none" xmlns="http://www.w3.org/2000/svg">
<rect x="407" y="139" width="85" height="20" fill="url(#paint0_linear)"/>
<rect x="47" y="474" width="32" height="1236" fill="#003B6F"/>
<rect x="825" y="474" width="32" height="1236" fill="#003B6F"/>
<g filter="url(#filter0_d)">
<rect x="47" y="339" width="810" height="135" fill="#003B6F"/>
</g>
<g filter="url(#filter1_d)">
<path d="M58 372H846V442H58V372Z" fill="#333333"/>
</g>
<g filter="url(#filter2_i)">
<rect x="47" y="287" width="810" height="52" fill="#003B6F"/>
</g>
<g filter="url(#filter3_i)">
<rect x="79" y="224" width="746" height="63" fill="#003B6F"/>
</g>
<path d="M407 130H491.936C491.936 130 500.26 136.947 497.403 139.263C494.546 141.579 403.117 141.579 400.507 139.263C397.897 136.947 407 130 407 130Z" fill="url(#paint1_linear)"/>
<rect x="409" y="41" width="81" height="89" fill="#FDE096"/>
<path d="M440.256 1C440.256 0.447715 440.703 0 441.256 0H457C457.552 0 458 0.447715 458 1V12.7442C458 12.8855 457.885 13 457.744 13V13H440V13C440.141 13 440.256 12.8855 440.256 12.7442V1Z" fill="#003B6F"/>
<path d="M142.44 385.648C144.061 385.264 145.811 385.008 147.688 384.88C149.565 384.752 151.421 384.688 153.256 384.688C155.219 384.688 157.203 384.88 159.208 385.264C161.256 385.648 163.112 386.352 164.776 387.376C166.44 388.4 167.784 389.808 168.808 391.6C169.875 393.392 170.408 395.675 170.408 398.448C170.408 401.179 169.917 403.483 168.936 405.36C167.955 407.237 166.653 408.773 165.032 409.968C163.411 411.12 161.555 411.952 159.464 412.464C157.373 412.976 155.219 413.232 153 413.232C152.787 413.232 152.424 413.232 151.912 413.232C151.443 413.232 150.931 413.232 150.376 413.232C149.864 413.189 149.352 413.147 148.84 413.104C148.328 413.061 147.965 413.019 147.752 412.976V430H142.44V385.648ZM153.384 389.296C152.275 389.296 151.208 389.317 150.184 389.36C149.16 389.403 148.349 389.509 147.752 389.68V408.24C147.965 408.325 148.307 408.389 148.776 408.432C149.245 408.432 149.736 408.453 150.248 408.496C150.76 408.496 151.251 408.496 151.72 408.496C152.189 408.496 152.531 408.496 152.744 408.496C154.195 408.496 155.624 408.368 157.032 408.112C158.483 407.813 159.784 407.301 160.936 406.576C162.088 405.851 163.005 404.827 163.688 403.504C164.413 402.181 164.776 400.496 164.776 398.448C164.776 396.699 164.435 395.248 163.752 394.096C163.112 392.901 162.237 391.963 161.128 391.28C160.061 390.555 158.845 390.043 157.48 389.744C156.115 389.445 154.749 389.296 153.384 389.296ZM177.832 407.6C177.832 400.133 179.41 394.416 182.568 390.448C185.725 386.437 190.226 384.432 196.072 384.432C199.229 384.432 201.96 384.987 204.264 386.096C206.568 387.205 208.466 388.784 209.96 390.832C211.496 392.837 212.626 395.269 213.352 398.128C214.077 400.944 214.44 404.101 214.44 407.6C214.44 415.067 212.84 420.805 209.64 424.816C206.482 428.784 201.96 430.768 196.072 430.768C192.957 430.768 190.248 430.213 187.944 429.104C185.682 427.995 183.784 426.437 182.248 424.432C180.754 422.384 179.645 419.952 178.92 417.136C178.194 414.277 177.832 411.099 177.832 407.6ZM183.464 407.6C183.464 410.075 183.698 412.421 184.168 414.64C184.68 416.859 185.448 418.821 186.472 420.528C187.496 422.192 188.797 423.536 190.376 424.56C191.997 425.541 193.896 426.032 196.072 426.032C200.04 426.032 203.154 424.539 205.416 421.552C207.677 418.523 208.808 413.872 208.808 407.6C208.808 405.168 208.552 402.843 208.04 400.624C207.57 398.363 206.802 396.4 205.736 394.736C204.712 393.029 203.389 391.685 201.768 390.704C200.189 389.68 198.29 389.168 196.072 389.168C192.146 389.168 189.053 390.683 186.792 393.712C184.573 396.699 183.464 401.328 183.464 407.6ZM252.494 430H225.998V385.2H231.31V425.264H252.494V430ZM262.836 385.2H268.148V430H262.836V385.2ZM311.477 428.144C310.197 429.125 308.576 429.808 306.613 430.192C304.65 430.576 302.56 430.768 300.341 430.768C297.653 430.768 295.136 430.32 292.789 429.424C290.442 428.485 288.394 427.077 286.645 425.2C284.896 423.323 283.509 420.933 282.485 418.032C281.461 415.088 280.949 411.611 280.949 407.6C280.949 403.419 281.504 399.877 282.613 396.976C283.765 394.032 285.258 391.643 287.093 389.808C288.97 387.931 291.061 386.565 293.365 385.712C295.669 384.859 298.016 384.432 300.405 384.432C302.965 384.432 305.056 384.581 306.677 384.88C308.298 385.136 309.685 385.499 310.837 385.968L309.557 390.64C307.509 389.659 304.586 389.168 300.789 389.168C299.04 389.168 297.312 389.488 295.605 390.128C293.898 390.768 292.362 391.813 290.997 393.264C289.674 394.715 288.608 396.613 287.797 398.96C286.986 401.307 286.581 404.187 286.581 407.6C286.581 410.672 286.965 413.36 287.733 415.664C288.501 417.968 289.546 419.888 290.869 421.424C292.234 422.96 293.813 424.112 295.605 424.88C297.44 425.648 299.424 426.032 301.557 426.032C303.477 426.032 305.141 425.84 306.549 425.456C308 425.072 309.216 424.581 310.197 423.984L311.477 428.144ZM321.928 385.2H346.312V389.936H327.24V404.592H344.712V409.328H327.24V425.264H346.632V430H321.928V385.2Z" fill="#FFFDFD"/>
<path d="M622.448 395.44C622.448 396.507 622.277 397.595 621.936 398.704C621.595 399.813 621.083 400.859 620.4 401.84C619.717 402.779 618.843 403.611 617.776 404.336C616.709 405.061 615.451 405.616 614 406V406.256C615.28 406.469 616.496 406.832 617.648 407.344C618.843 407.856 619.888 408.56 620.784 409.456C621.68 410.352 622.405 411.44 622.96 412.72C623.515 414 623.792 415.515 623.792 417.264C623.792 419.568 623.301 421.573 622.32 423.28C621.381 424.944 620.123 426.309 618.544 427.376C617.008 428.443 615.237 429.232 613.232 429.744C611.227 430.256 609.179 430.512 607.088 430.512C606.363 430.512 605.509 430.512 604.528 430.512C603.547 430.512 602.523 430.469 601.456 430.384C600.389 430.341 599.323 430.256 598.256 430.128C597.189 430.043 596.251 429.893 595.44 429.68V385.584C597.019 385.328 598.853 385.115 600.944 384.944C603.035 384.773 605.317 384.688 607.792 384.688C609.456 384.688 611.141 384.837 612.848 385.136C614.597 385.392 616.176 385.925 617.584 386.736C618.992 387.504 620.144 388.592 621.04 390C621.979 391.408 622.448 393.221 622.448 395.44ZM607.6 425.904C608.965 425.904 610.288 425.755 611.568 425.456C612.848 425.115 613.979 424.603 614.96 423.92C615.941 423.195 616.709 422.32 617.264 421.296C617.861 420.272 618.16 419.056 618.16 417.648C618.16 415.899 617.797 414.491 617.072 413.424C616.389 412.357 615.472 411.525 614.32 410.928C613.211 410.331 611.952 409.925 610.544 409.712C609.136 409.499 607.728 409.392 606.32 409.392H600.752V425.456C601.051 425.541 601.477 425.605 602.032 425.648C602.587 425.691 603.184 425.733 603.824 425.776C604.464 425.819 605.125 425.861 605.808 425.904C606.491 425.904 607.088 425.904 607.6 425.904ZM604.08 404.912C604.805 404.912 605.68 404.891 606.704 404.848C607.728 404.805 608.581 404.741 609.264 404.656C610.288 404.315 611.248 403.909 612.144 403.44C613.04 402.928 613.829 402.352 614.512 401.712C615.237 401.029 615.792 400.261 616.176 399.408C616.603 398.512 616.816 397.552 616.816 396.528C616.816 395.12 616.539 393.968 615.984 393.072C615.472 392.133 614.768 391.387 613.872 390.832C612.976 390.277 611.952 389.893 610.8 389.68C609.648 389.424 608.475 389.296 607.28 389.296C605.872 389.296 604.571 389.339 603.376 389.424C602.224 389.467 601.349 389.552 600.752 389.68V404.912H604.08ZM633.519 407.6C633.519 400.133 635.098 394.416 638.255 390.448C641.412 386.437 645.914 384.432 651.759 384.432C654.916 384.432 657.647 384.987 659.951 386.096C662.255 387.205 664.154 388.784 665.647 390.832C667.183 392.837 668.314 395.269 669.039 398.128C669.764 400.944 670.127 404.101 670.127 407.6C670.127 415.067 668.527 420.805 665.327 424.816C662.17 428.784 657.647 430.768 651.759 430.768C648.644 430.768 645.935 430.213 643.631 429.104C641.37 427.995 639.471 426.437 637.935 424.432C636.442 422.384 635.332 419.952 634.607 417.136C633.882 414.277 633.519 411.099 633.519 407.6ZM639.151 407.6C639.151 410.075 639.386 412.421 639.855 414.64C640.367 416.859 641.135 418.821 642.159 420.528C643.183 422.192 644.484 423.536 646.063 424.56C647.684 425.541 649.583 426.032 651.759 426.032C655.727 426.032 658.842 424.539 661.103 421.552C663.364 418.523 664.495 413.872 664.495 407.6C664.495 405.168 664.239 402.843 663.727 400.624C663.258 398.363 662.49 396.4 661.423 394.736C660.399 393.029 659.076 391.685 657.455 390.704C655.876 389.68 653.978 389.168 651.759 389.168C647.834 389.168 644.74 390.683 642.479 393.712C640.26 396.699 639.151 401.328 639.151 407.6ZM689.696 407.216L676.064 385.2H682.464L691.552 400.368L693.152 404.016L694.688 400.368L704.288 385.2H710.176L696.096 406.768L710.816 430H704.608L694.496 413.936L692.768 410.096L691.104 413.936L680.736 430H674.784L689.696 407.216Z" fill="#FFFDFD"/>
<path d="M412.355 379.438C413.216 379.234 414.146 379.098 415.143 379.03C416.14 378.962 417.126 378.928 418.101 378.928C419.144 378.928 420.198 379.03 421.263 379.234C422.351 379.438 423.337 379.812 424.221 380.356C425.105 380.9 425.819 381.648 426.363 382.6C426.93 383.552 427.213 384.765 427.213 386.238C427.213 387.689 426.952 388.913 426.431 389.91C425.91 390.907 425.218 391.723 424.357 392.358C423.496 392.97 422.51 393.412 421.399 393.684C420.288 393.956 419.144 394.092 417.965 394.092C417.852 394.092 417.659 394.092 417.387 394.092C417.138 394.092 416.866 394.092 416.571 394.092C416.299 394.069 416.027 394.047 415.755 394.024C415.483 394.001 415.29 393.979 415.177 393.956V403H412.355V379.438ZM418.169 381.376C417.58 381.376 417.013 381.387 416.469 381.41C415.925 381.433 415.494 381.489 415.177 381.58V391.44C415.29 391.485 415.472 391.519 415.721 391.542C415.97 391.542 416.231 391.553 416.503 391.576C416.775 391.576 417.036 391.576 417.285 391.576C417.534 391.576 417.716 391.576 417.829 391.576C418.6 391.576 419.359 391.508 420.107 391.372C420.878 391.213 421.569 390.941 422.181 390.556C422.793 390.171 423.28 389.627 423.643 388.924C424.028 388.221 424.221 387.326 424.221 386.238C424.221 385.309 424.04 384.538 423.677 383.926C423.337 383.291 422.872 382.793 422.283 382.43C421.716 382.045 421.07 381.773 420.345 381.614C419.62 381.455 418.894 381.376 418.169 381.376ZM446.375 379.2H449.095V395.078C449.095 396.506 448.902 397.741 448.517 398.784C448.154 399.827 447.622 400.688 446.919 401.368C446.239 402.025 445.412 402.513 444.437 402.83C443.462 403.147 442.386 403.306 441.207 403.306C438.396 403.306 436.277 402.671 434.849 401.402C433.421 400.133 432.707 398.206 432.707 395.622V379.2H435.529V394.296C435.529 395.497 435.642 396.517 435.869 397.356C436.118 398.172 436.481 398.841 436.957 399.362C437.433 399.861 438.022 400.223 438.725 400.45C439.45 400.677 440.289 400.79 441.241 400.79C443.077 400.79 444.392 400.291 445.185 399.294C445.978 398.274 446.375 396.608 446.375 394.296V379.2ZM470.595 384.64C470.595 385.207 470.504 385.785 470.323 386.374C470.141 386.963 469.869 387.519 469.507 388.04C469.144 388.539 468.679 388.981 468.113 389.366C467.546 389.751 466.877 390.046 466.107 390.25V390.386C466.787 390.499 467.433 390.692 468.045 390.964C468.679 391.236 469.235 391.61 469.711 392.086C470.187 392.562 470.572 393.14 470.867 393.82C471.161 394.5 471.309 395.305 471.309 396.234C471.309 397.458 471.048 398.523 470.527 399.43C470.028 400.314 469.359 401.039 468.521 401.606C467.705 402.173 466.764 402.592 465.699 402.864C464.633 403.136 463.545 403.272 462.435 403.272C462.049 403.272 461.596 403.272 461.075 403.272C460.553 403.272 460.009 403.249 459.443 403.204C458.876 403.181 458.309 403.136 457.743 403.068C457.176 403.023 456.677 402.943 456.247 402.83V379.404C457.085 379.268 458.06 379.155 459.171 379.064C460.281 378.973 461.494 378.928 462.809 378.928C463.693 378.928 464.588 379.007 465.495 379.166C466.424 379.302 467.263 379.585 468.011 380.016C468.759 380.424 469.371 381.002 469.847 381.75C470.345 382.498 470.595 383.461 470.595 384.64ZM462.707 400.824C463.432 400.824 464.135 400.745 464.815 400.586C465.495 400.405 466.095 400.133 466.617 399.77C467.138 399.385 467.546 398.92 467.841 398.376C468.158 397.832 468.317 397.186 468.317 396.438C468.317 395.509 468.124 394.761 467.739 394.194C467.376 393.627 466.889 393.185 466.277 392.868C465.687 392.551 465.019 392.335 464.271 392.222C463.523 392.109 462.775 392.052 462.027 392.052H459.069V400.586C459.227 400.631 459.454 400.665 459.749 400.688C460.043 400.711 460.361 400.733 460.701 400.756C461.041 400.779 461.392 400.801 461.755 400.824C462.117 400.824 462.435 400.824 462.707 400.824ZM460.837 389.672C461.222 389.672 461.687 389.661 462.231 389.638C462.775 389.615 463.228 389.581 463.591 389.536C464.135 389.355 464.645 389.139 465.121 388.89C465.597 388.618 466.016 388.312 466.379 387.972C466.764 387.609 467.059 387.201 467.263 386.748C467.489 386.272 467.603 385.762 467.603 385.218C467.603 384.47 467.455 383.858 467.161 383.382C466.889 382.883 466.515 382.487 466.039 382.192C465.563 381.897 465.019 381.693 464.407 381.58C463.795 381.444 463.171 381.376 462.537 381.376C461.789 381.376 461.097 381.399 460.463 381.444C459.851 381.467 459.386 381.512 459.069 381.58V389.672H460.837ZM491.538 403H477.462V379.2H480.284V400.484H491.538V403ZM497.033 379.2H499.855V403H497.033V379.2ZM522.873 402.014C522.193 402.535 521.332 402.898 520.289 403.102C519.247 403.306 518.136 403.408 516.957 403.408C515.529 403.408 514.192 403.17 512.945 402.694C511.699 402.195 510.611 401.447 509.681 400.45C508.752 399.453 508.015 398.183 507.471 396.642C506.927 395.078 506.655 393.231 506.655 391.1C506.655 388.879 506.95 386.997 507.539 385.456C508.151 383.892 508.945 382.623 509.919 381.648C510.917 380.651 512.027 379.925 513.251 379.472C514.475 379.019 515.722 378.792 516.991 378.792C518.351 378.792 519.462 378.871 520.323 379.03C521.185 379.166 521.921 379.359 522.533 379.608L521.853 382.09C520.765 381.569 519.213 381.308 517.195 381.308C516.266 381.308 515.348 381.478 514.441 381.818C513.535 382.158 512.719 382.713 511.993 383.484C511.291 384.255 510.724 385.263 510.293 386.51C509.863 387.757 509.647 389.287 509.647 391.1C509.647 392.732 509.851 394.16 510.259 395.384C510.667 396.608 511.223 397.628 511.925 398.444C512.651 399.26 513.489 399.872 514.441 400.28C515.416 400.688 516.47 400.892 517.603 400.892C518.623 400.892 519.507 400.79 520.255 400.586C521.026 400.382 521.672 400.121 522.193 399.804L522.873 402.014ZM446.503 432.014C445.823 432.535 444.961 432.898 443.919 433.102C442.876 433.306 441.765 433.408 440.587 433.408C439.159 433.408 437.821 433.17 436.575 432.694C435.328 432.195 434.24 431.447 433.311 430.45C432.381 429.453 431.645 428.183 431.101 426.642C430.557 425.078 430.285 423.231 430.285 421.1C430.285 418.879 430.579 416.997 431.169 415.456C431.781 413.892 432.574 412.623 433.549 411.648C434.546 410.651 435.657 409.925 436.881 409.472C438.105 409.019 439.351 408.792 440.621 408.792C441.981 408.792 443.091 408.871 443.953 409.03C444.814 409.166 445.551 409.359 446.163 409.608L445.483 412.09C444.395 411.569 442.842 411.308 440.825 411.308C439.895 411.308 438.977 411.478 438.071 411.818C437.164 412.158 436.348 412.713 435.623 413.484C434.92 414.255 434.353 415.263 433.923 416.51C433.492 417.757 433.277 419.287 433.277 421.1C433.277 422.732 433.481 424.16 433.889 425.384C434.297 426.608 434.852 427.628 435.555 428.444C436.28 429.26 437.119 429.872 438.071 430.28C439.045 430.688 440.099 430.892 441.233 430.892C442.253 430.892 443.137 430.79 443.885 430.586C444.655 430.382 445.301 430.121 445.823 429.804L446.503 432.014ZM462.414 426.404H453.642L451.262 433H448.474L457.484 408.826H458.776L467.82 433H464.862L462.414 426.404ZM454.56 423.956H461.564L458.912 416.714L458.062 413.11H458.028L457.178 416.782L454.56 423.956ZM486.416 433H472.34V409.2H475.162V430.484H486.416V433ZM505.341 433H491.265V409.2H494.087V430.484H505.341V433Z" fill="#FFFDFD"/>
<g filter="url(#filter4_i)">
<rect x="47" y="1710" width="0.999965" height="810" transform="rotate(-90 47 1710)" fill="#003B6F"/>
</g>
<g filter="url(#filter5_i)">
<rect x="47" y="479" width="4.99996" height="810" transform="rotate(-90 47 479)" fill="#003B6F"/>
</g>
<rect x="462" y="39" width="2" height="91" fill="#003B6F"/>
<rect x="490" y="40" width="2" height="91" fill="#003B6F"/>
<rect x="407" y="72" width="2" height="85" transform="rotate(-90 407 72)" fill="#003B6F"/>
<rect x="407" y="102" width="2" height="85" transform="rotate(-90 407 102)" fill="#003B6F"/>
<rect x="434" y="40" width="2" height="91" fill="#003B6F"/>
<rect x="407" y="40" width="2" height="91" fill="#003B6F"/>
<path d="M24 339H58V474H24V339Z" fill="#003B6F"/>
<path d="M857 339H880V474H857V339Z" fill="#003B6F"/>
<g filter="url(#filter6_i)">
<path d="M440 13H458L477.678 23.7908C477.678 23.7908 500.62 37.2792 497.752 39.9768C494.884 42.6744 403.116 42.6744 400.248 39.9768C397.38 37.2792 420.322 23.7908 420.322 23.7908L440 13Z" fill="url(#paint2_linear)"/>
</g>
<path d="M407 159H492.169L825 224H79L407 159Z" fill="url(#paint3_linear)"/>
<g filter="url(#filter7_d)">
<rect x="6" y="1739" width="892" height="44" fill="#003B6F"/>
</g>
<g filter="url(#filter8_i)">
<path d="M47 1710H857L898 1739H6L47 1710Z" fill="url(#paint4_linear)"/>
</g>
<defs>
<filter id="filter0_d" x="45" y="339" width="814" height="139" filterUnits="userSpaceOnUse" color-interpolation-filters="sRGB">
<feFlood flood-opacity="0" result="BackgroundImageFix"/>
<feColorMatrix in="SourceAlpha" type="matrix" values="0 0 0 0 0 0 0 0 0 0 0 0 0 0 0 0 0 0 127 0"/>
<feOffset dy="2"/>
<feGaussianBlur stdDeviation="1"/>
<feColorMatrix type="matrix" values="0 0 0 0 0 0 0 0 0 0 0 0 0 0 0 0 0 0 0.25 0"/>
<feBlend mode="normal" in2="BackgroundImageFix" result="effect1_dropShadow"/>
<feBlend mode="normal" in="SourceGraphic" in2="effect1_dropShadow" result="shape"/>
</filter>
<filter id="filter1_d" x="58" y="372" width="796" height="78" filterUnits="userSpaceOnUse" color-interpolation-filters="sRGB">
<feFlood flood-opacity="0" result="BackgroundImageFix"/>
<feColorMatrix in="SourceAlpha" type="matrix" values="0 0 0 0 0 0 0 0 0 0 0 0 0 0 0 0 0 0 127 0"/>
<feOffset dx="4" dy="4"/>
<feGaussianBlur stdDeviation="2"/>
<feColorMatrix type="matrix" values="0 0 0 0 0 0 0 0 0 0 0 0 0 0 0 0 0 0 0.25 0"/>
<feBlend mode="normal" in2="BackgroundImageFix" result="effect1_dropShadow"/>
<feBlend mode="normal" in="SourceGraphic" in2="effect1_dropShadow" result="shape"/>
</filter>
<filter id="filter2_i" x="47" y="285" width="810" height="54" filterUnits="userSpaceOnUse" color-interpolation-filters="sRGB">
<feFlood flood-opacity="0" result="BackgroundImageFix"/>
<feBlend mode="normal" in="SourceGraphic" in2="BackgroundImageFix" result="shape"/>
<feColorMatrix in="SourceAlpha" type="matrix" values="0 0 0 0 0 0 0 0 0 0 0 0 0 0 0 0 0 0 127 0" result="hardAlpha"/>
<feOffset dy="-2"/>
<feGaussianBlur stdDeviation="2"/>
<feComposite in2="hardAlpha" operator="arithmetic" k2="-1" k3="1"/>
<feColorMatrix type="matrix" values="0 0 0 0 0 0 0 0 0 0 0 0 0 0 0 0 0 0 0.25 0"/>
<feBlend mode="normal" in2="shape" result="effect1_innerShadow"/>
</filter>
<filter id="filter3_i" x="79" y="222" width="746" height="65" filterUnits="userSpaceOnUse" color-interpolation-filters="sRGB">
<feFlood flood-opacity="0" result="BackgroundImageFix"/>
<feBlend mode="normal" in="SourceGraphic" in2="BackgroundImageFix" result="shape"/>
<feColorMatrix in="SourceAlpha" type="matrix" values="0 0 0 0 0 0 0 0 0 0 0 0 0 0 0 0 0 0 127 0" result="hardAlpha"/>
<feOffset dy="-2"/>
<feGaussianBlur stdDeviation="2"/>
<feComposite in2="hardAlpha" operator="arithmetic" k2="-1" k3="1"/>
<feColorMatrix type="matrix" values="0 0 0 0 0 0 0 0 0 0 0 0 0 0 0 0 0 0 0.25 0"/>
<feBlend mode="normal" in2="shape" result="effect1_innerShadow"/>
</filter>
<filter id="filter4_i" x="47" y="1709" width="810" height="1" filterUnits="userSpaceOnUse" color-interpolation-filters="sRGB">
<feFlood flood-opacity="0" result="BackgroundImageFix"/>
<feBlend mode="normal" in="SourceGraphic" in2="BackgroundImageFix" result="shape"/>
<feColorMatrix in="SourceAlpha" type="matrix" values="0 0 0 0 0 0 0 0 0 0 0 0 0 0 0 0 0 0 127 0" result="hardAlpha"/>
<feOffset dx="1" dy="4"/>
<feGaussianBlur stdDeviation="0.5"/>
<feComposite in2="hardAlpha" operator="arithmetic" k2="-1" k3="1"/>
<feColorMatrix type="matrix" values="0 0 0 0 0 0 0 0 0 0 0 0 0 0 0 0 0 0 0.25 0"/>
<feBlend mode="normal" in2="shape" result="effect1_innerShadow"/>
</filter>
<filter id="filter5_i" x="47" y="474" width="810" height="11" filterUnits="userSpaceOnUse" color-interpolation-filters="sRGB">
<feFlood flood-opacity="0" result="BackgroundImageFix"/>
<feBlend mode="normal" in="SourceGraphic" in2="BackgroundImageFix" result="shape"/>
<feColorMatrix in="SourceAlpha" type="matrix" values="0 0 0 0 0 0 0 0 0 0 0 0 0 0 0 0 0 0 127 0" result="hardAlpha"/>
<feOffset dy="6"/>
<feGaussianBlur stdDeviation="3"/>
<feComposite in2="hardAlpha" operator="arithmetic" k2="-1" k3="1"/>
<feColorMatrix type="matrix" values="0 0 0 0 0 0 0 0 0 0 0 0 0 0 0 0 0 0 0.25 0"/>
<feBlend mode="normal" in2="shape" result="effect1_innerShadow"/>
</filter>
<filter id="filter6_i" x="400" y="9" width="98" height="33" filterUnits="userSpaceOnUse" color-interpolation-filters="sRGB">
<feFlood flood-opacity="0" result="BackgroundImageFix"/>
<feBlend mode="normal" in="SourceGraphic" in2="BackgroundImageFix" result="shape"/>
<feColorMatrix in="SourceAlpha" type="matrix" values="0 0 0 0 0 0 0 0 0 0 0 0 0 0 0 0 0 0 127 0" result="hardAlpha"/>
<feOffset dy="-4"/>
<feGaussianBlur stdDeviation="2"/>
<feComposite in2="hardAlpha" operator="arithmetic" k2="-1" k3="1"/>
<feColorMatrix type="matrix" values="0 0 0 0 0 0 0 0 0 0 0 0 0 0 0 0 0 0 0.25 0"/>
<feBlend mode="normal" in2="shape" result="effect1_innerShadow"/>
</filter>
<filter id="filter7_d" x="0" y="1735" width="904" height="56" filterUnits="userSpaceOnUse" color-interpolation-filters="sRGB">
<feFlood flood-opacity="0" result="BackgroundImageFix"/>
<feColorMatrix in="SourceAlpha" type="matrix" values="0 0 0 0 0 0 0 0 0 0 0 0 0 0 0 0 0 0 127 0"/>
<feOffset dy="2"/>
<feGaussianBlur stdDeviation="3"/>
<feColorMatrix type="matrix" values="0 0 0 0 0 0 0 0 0 0 0 0 0 0 0 0 0 0 0.25 0"/>
<feBlend mode="normal" in2="BackgroundImageFix" result="effect1_dropShadow"/>
<feBlend mode="normal" in="SourceGraphic" in2="effect1_dropShadow" result="shape"/>
</filter>
<filter id="filter8_i" x="6" y="1708" width="892" height="31" filterUnits="userSpaceOnUse" color-interpolation-filters="sRGB">
<feFlood flood-opacity="0" result="BackgroundImageFix"/>
<feBlend mode="normal" in="SourceGraphic" in2="BackgroundImageFix" result="shape"/>
<feColorMatrix in="SourceAlpha" type="matrix" values="0 0 0 0 0 0 0 0 0 0 0 0 0 0 0 0 0 0 127 0" result="hardAlpha"/>
<feOffset dy="-2"/>
<feGaussianBlur stdDeviation="5"/>
<feComposite in2="hardAlpha" operator="arithmetic" k2="-1" k3="1"/>
<feColorMatrix type="matrix" values="0 0 0 0 0 0 0 0 0 0 0 0 0 0 0 0 0 0 0.25 0"/>
<feBlend mode="normal" in2="shape" result="effect1_innerShadow"/>
</filter>
<linearGradient id="paint0_linear" x1="449.5" y1="139" x2="449.5" y2="159" gradientUnits="userSpaceOnUse">
<stop stop-color="#03315A"/>
<stop offset="1" stop-color="#022E54"/>
</linearGradient>
<linearGradient id="paint1_linear" x1="449.018" y1="130" x2="449.018" y2="141" gradientUnits="userSpaceOnUse">
<stop stop-color="#03447E"/>
<stop offset="1" stop-color="#022E56"/>
</linearGradient>
<linearGradient id="paint2_linear" x1="449" y1="13" x2="449" y2="42" gradientUnits="userSpaceOnUse">
<stop stop-color="#003B6F"/>
<stop offset="0.685083" stop-color="#003B6F"/>
<stop offset="1" stop-color="#033B6C"/>
</linearGradient>
<linearGradient id="paint3_linear" x1="452" y1="159" x2="452" y2="224" gradientUnits="userSpaceOnUse">
<stop offset="0.127072" stop-color="#022C51"/>
<stop offset="0.696133" stop-color="#003B6F"/>
<stop offset="1" stop-color="#003B6F"/>
</linearGradient>
<linearGradient id="paint4_linear" x1="452" y1="1710" x2="452" y2="1739" gradientUnits="userSpaceOnUse">
<stop offset="0.0276243" stop-color="#01315B"/>
<stop offset="0.624309" stop-color="#003B6F"/>
<stop offset="0.917127" stop-color="#003B6F"/>
</linearGradient>
</defs>
</svg>
