<svg width="251" height="471" viewBox="0 0 251 471" fill="none" xmlns="http://www.w3.org/2000/svg">
<g filter="url(#filter0_i)">
<path d="M0 113C0 98.6406 11.6406 87 26 87H29C43.3594 87 55 98.6406 55 113V118C55 132.359 43.3594 144 29 144H26C11.6406 144 0 132.359 0 118V113Z" fill="#A5211D"/>
<path d="M193 147L249 113C250.827 151.684 247.959 167.342 237.5 187C220.666 219.399 193.417 232.189 170.5 259C167.875 262.071 165.333 263.915 162.889 264.773C144.001 271.4 131 219.088 131 219.088C144.575 201.167 169.534 184.351 180 172.5C190.466 160.649 188.531 159.65 193 147Z" fill="#A5211D"/>
<path d="M170.5 259C167.875 262.071 165.333 263.915 162.889 264.773L162 276L164.5 269C166.958 263.148 167.874 263.228 170.5 259Z" fill="#A5211D"/>
<path d="M179 174L225 205C244.611 183.298 250.985 154.27 250.985 123C250.985 55.069 194.796 0 125.485 0C56.8349 0 1.05907 46.4649 0 113.5C8.88238 96.518 38.9046 111.228 55 114C55 85.5 89.7137 59.5 123.5 59.5C163.264 59.5 191.985 88.0347 191.985 127.523C191.985 146.549 190.278 162.518 179 174Z" fill="#A5211D"/>
<path d="M166.311 265.214C171.174 241.277 159.412 189.286 131 219C118.007 232.588 108.806 255.705 105 285C101.844 309.286 101.601 335.771 101.995 354.332C102.285 367.963 113.559 378.5 127.193 378.5H130.5C144.442 378.5 155.636 366.956 155.606 353.014C155.55 327.319 156.501 289.539 162.14 275.708C162.595 272.641 164.122 268.953 166.311 265.214Z" fill="#A5211D"/>
</g>
<g filter="url(#filter1_i)">
<circle cx="129.5" cy="432.5" r="38.5" fill="#A5211D"/>
</g>
<defs>
<filter id="filter0_i" x="-15" y="0" width="265.985" height="378.5" filterUnits="userSpaceOnUse" color-interpolation-filters="sRGB">
<feFlood flood-opacity="0" result="BackgroundImageFix"/>
<feBlend mode="normal" in="SourceGraphic" in2="BackgroundImageFix" result="shape"/>
<feColorMatrix in="SourceAlpha" type="matrix" values="0 0 0 0 0 0 0 0 0 0 0 0 0 0 0 0 0 0 127 0" result="hardAlpha"/>
<feOffset dx="-28"/>
<feGaussianBlur stdDeviation="7.5"/>
<feComposite in2="hardAlpha" operator="arithmetic" k2="-1" k3="1"/>
<feColorMatrix type="matrix" values="0 0 0 0 0.498039 0 0 0 0 0.0941176 0 0 0 0 0.0862745 0 0 0 1 0"/>
<feBlend mode="darken" in2="shape" result="effect1_innerShadow"/>
</filter>
<filter id="filter1_i" x="74" y="379" width="94" height="92" filterUnits="userSpaceOnUse" color-interpolation-filters="sRGB">
<feFlood flood-opacity="0" result="BackgroundImageFix"/>
<feBlend mode="normal" in="SourceGraphic" in2="BackgroundImageFix" result="shape"/>
<feColorMatrix in="SourceAlpha" type="matrix" values="0 0 0 0 0 0 0 0 0 0 0 0 0 0 0 0 0 0 127 0" result="hardAlpha"/>
<feOffset dx="-22" dy="-15"/>
<feGaussianBlur stdDeviation="8.5"/>
<feComposite in2="hardAlpha" operator="arithmetic" k2="-1" k3="1"/>
<feColorMatrix type="matrix" values="0 0 0 0 0.498039 0 0 0 0 0.0941176 0 0 0 0 0.0862745 0 0 0 1 0"/>
<feBlend mode="darken" in2="shape" result="effect1_innerShadow"/>
</filter>
</defs>
</svg>
