<svg width="138" height="392" viewBox="0 0 138 392" fill="none" xmlns="http://www.w3.org/2000/svg">
<rect width="131" height="392" rx="20" fill="#003B6F" fill-opacity="0.9"/>
<path d="M21.5674 187.354H16.127V190.615H21.4092V192.54H16.127V197.075H21.5674V199H14.0791V185.43H21.5674V187.354ZM24.2568 199V184.507L34.1533 194.86V185.43H36.2012V199.826L26.3047 189.499V199H24.2568ZM43.5928 185.43V194.21C43.5928 195.259 43.5195 196.041 43.373 196.557C43.2266 197.143 42.9775 197.638 42.626 198.042C41.9404 198.845 41.0322 199.246 39.9014 199.246C39.0459 199.246 38.2461 199.023 37.502 198.578L38.5039 196.829C39.002 197.163 39.4678 197.33 39.9014 197.33C40.5107 197.33 40.9326 197.099 41.167 196.636C41.4131 196.173 41.5361 195.364 41.5361 194.21V185.43H43.5928ZM46.168 192.153C46.168 190.243 46.8682 188.603 48.2686 187.231C49.6631 185.86 51.3389 185.175 53.2959 185.175C55.2295 185.175 56.8877 185.866 58.2705 187.249C59.6592 188.632 60.3535 190.293 60.3535 192.232C60.3535 194.184 59.6562 195.839 58.2617 197.198C56.8613 198.563 55.1709 199.246 53.1904 199.246C51.4385 199.246 49.8652 198.64 48.4707 197.427C46.9355 196.085 46.168 194.327 46.168 192.153ZM48.2334 192.18C48.2334 193.68 48.7373 194.913 49.7451 195.88C50.7471 196.847 51.9043 197.33 53.2168 197.33C54.6406 197.33 55.8418 196.838 56.8203 195.854C57.7988 194.857 58.2881 193.645 58.2881 192.215C58.2881 190.768 57.8047 189.555 56.8379 188.576C55.877 187.592 54.6875 187.1 53.2695 187.1C51.8574 187.1 50.665 187.592 49.6924 188.576C48.7197 189.549 48.2334 190.75 48.2334 192.18ZM64.9326 193.138L60.5029 185.43H62.8584L65.9609 190.853L69.0723 185.43H71.4277L66.9805 193.138V199H64.9326V193.138ZM82.2998 187.354V199H80.252V187.354H77.1318V185.43H85.4111V187.354H82.2998ZM89.2871 190.738H95.1406V185.43H97.1885V199H95.1406V192.663H89.2871V199H87.2393V185.43H89.2871V190.738ZM107.929 187.354H102.488V190.615H107.771V192.54H102.488V197.075H107.929V199H100.44V185.43H107.929V187.354ZM48.6025 213.354V225H46.5547V213.354H43.4346V211.43H51.7139V213.354H48.6025ZM58.1387 219.217L62.3398 225H59.835L55.959 219.445H55.5898V225H53.542V211.43H55.9414C57.7344 211.43 59.0293 211.767 59.8262 212.44C60.7051 213.19 61.1445 214.181 61.1445 215.411C61.1445 216.372 60.8691 217.198 60.3184 217.89C59.7676 218.581 59.041 219.023 58.1387 219.217ZM55.5898 217.661H56.2402C58.1797 217.661 59.1494 216.92 59.1494 215.438C59.1494 214.049 58.2061 213.354 56.3193 213.354H55.5898V217.661ZM66.4355 211.43V225H64.3877V211.43H66.4355ZM71.7441 219.489V225H69.6963V211.43H72.0166C73.1533 211.43 74.0117 211.509 74.5918 211.667C75.1777 211.825 75.6934 212.124 76.1387 212.563C76.918 213.325 77.3076 214.286 77.3076 215.446C77.3076 216.688 76.8916 217.673 76.0596 218.399C75.2275 219.126 74.1055 219.489 72.6934 219.489H71.7441ZM71.7441 217.591H72.5088C74.3896 217.591 75.3301 216.867 75.3301 215.42C75.3301 214.02 74.3604 213.319 72.4209 213.319H71.7441V217.591ZM79.5576 224.016C79.5576 223.688 79.6777 223.403 79.918 223.163C80.1582 222.923 80.4453 222.803 80.7793 222.803C81.1133 222.803 81.4004 222.923 81.6406 223.163C81.8809 223.403 82.001 223.69 82.001 224.024C82.001 224.364 81.8809 224.654 81.6406 224.895C81.4062 225.129 81.1191 225.246 80.7793 225.246C80.4336 225.246 80.1436 225.129 79.9092 224.895C79.6748 224.66 79.5576 224.367 79.5576 224.016ZM79.7861 221.977V211.43H81.7725V221.977H79.7861Z" fill="white"/>
<path d="M109.145 162.424H112.027V166.15H109.145V170H105.049V166.15H91.7246L109.145 140.838V162.424ZM105.049 162.424V153.336L98.791 162.424H105.049Z" fill="white"/>
<g filter="url(#filter0_i)">
<path d="M96 66.8085C96 64.4184 97.9479 62.4808 100.351 62.4808H100.853C103.256 62.4808 105.204 64.4184 105.204 66.8085V67.6407C105.204 70.0308 103.256 71.9683 100.853 71.9683H100.351C97.9479 71.9683 96 70.0308 96 67.6407V66.8085Z" fill="#A5211D"/>
<path d="M128.297 72.4676L137.668 66.8085C137.974 73.2472 137.494 75.8535 135.743 79.1255C132.926 84.5182 128.367 86.647 124.532 91.1096C124.092 91.6208 123.667 91.9278 123.258 92.0705C120.097 93.1736 117.922 84.4664 117.922 84.4664C120.193 81.4836 124.37 78.6845 126.121 76.712C127.873 74.7395 127.549 74.5731 128.297 72.4676Z" fill="#A5211D"/>
<path d="M124.532 91.1096C124.092 91.6208 123.667 91.9278 123.258 92.0705L123.109 93.9392L123.528 92.7741C123.939 91.8 124.092 91.8134 124.532 91.1096Z" fill="#A5211D"/>
<path d="M125.954 76.9617L133.652 82.1215C136.933 78.5093 138 73.6776 138 68.4729C138 57.166 128.597 48 116.999 48C105.511 48 96.1772 55.7339 96 66.8917C97.4864 64.0651 102.51 66.5135 105.204 66.9749C105.204 62.2312 111.013 57.9036 116.667 57.9036C123.321 57.9036 128.127 62.6531 128.127 69.2258C128.127 72.3926 127.841 75.0506 125.954 76.9617Z" fill="#A5211D"/>
<path d="M123.831 92.1439C124.644 88.1596 122.676 79.5059 117.922 84.4518C115.747 86.7135 114.208 90.5612 113.571 95.4372C113.043 99.4795 113.002 103.888 113.068 106.977C113.116 109.246 115.003 111 117.285 111H117.838C120.171 111 122.044 109.079 122.039 106.758C122.03 102.481 122.189 96.1928 123.133 93.8907C123.209 93.3801 123.464 92.7663 123.831 92.1439Z" fill="#A5211D"/>
</g>
<g filter="url(#filter1_i)">
<ellipse cx="118" cy="120.5" rx="6" ry="6.5" fill="#A5211D"/>
</g>
<path d="M36.6533 26.1992V34.6099H39.5352V36H35.1743V26.1992H36.6533ZM46.2954 33.2451H41.8647C41.9028 33.7529 42.0679 34.1571 42.3599 34.4575C42.6519 34.7537 43.0264 34.9019 43.4834 34.9019C43.8389 34.9019 44.133 34.8172 44.3657 34.6479C44.5942 34.4787 44.8545 34.1655 45.1465 33.7085L46.3525 34.3813C46.1663 34.6987 45.9696 34.9717 45.7622 35.2002C45.5549 35.4245 45.3327 35.6107 45.0957 35.7588C44.8587 35.9027 44.6027 36.0085 44.3276 36.0762C44.0526 36.1439 43.7542 36.1777 43.4326 36.1777C42.5101 36.1777 41.7695 35.8815 41.2109 35.2891C40.6523 34.6924 40.373 33.901 40.373 32.915C40.373 31.9375 40.6439 31.1462 41.1855 30.541C41.7314 29.9443 42.4551 29.646 43.3564 29.646C44.2663 29.646 44.9857 29.9359 45.5146 30.5156C46.0394 31.0911 46.3018 31.8888 46.3018 32.9087L46.2954 33.2451ZM44.8291 32.0771C44.6302 31.3154 44.1499 30.9346 43.3882 30.9346C43.2147 30.9346 43.0518 30.9621 42.8994 31.0171C42.7471 31.0679 42.6074 31.144 42.4805 31.2456C42.3577 31.3429 42.252 31.4614 42.1631 31.6011C42.0742 31.7407 42.0065 31.8994 41.96 32.0771H44.8291ZM49.4502 31.1504V36H48.022V31.1504H47.4126V29.8174H48.022V27.5513H49.4502V29.8174H50.561V31.1504H49.4502ZM57.0166 31.1504V36H55.5884V31.1504H54.979V29.8174H55.5884V27.5513H57.0166V29.8174H58.1274V31.1504H57.0166ZM59.3652 25.2788H60.7935V30.3315C61.3013 29.8745 61.862 29.646 62.4756 29.646C63.1738 29.646 63.7324 29.8724 64.1514 30.3252C64.5068 30.7188 64.6846 31.3472 64.6846 32.2104V36H63.2563V32.3438C63.2563 31.8486 63.1675 31.491 62.9897 31.271C62.8162 31.0467 62.5348 30.9346 62.1455 30.9346C61.6462 30.9346 61.2949 31.089 61.0918 31.3979C60.8929 31.7111 60.7935 32.2485 60.7935 33.0103V36H59.3652V25.2788ZM72.1304 33.2451H67.6997C67.7378 33.7529 67.9028 34.1571 68.1948 34.4575C68.4868 34.7537 68.8613 34.9019 69.3184 34.9019C69.6738 34.9019 69.9679 34.8172 70.2007 34.6479C70.4292 34.4787 70.6895 34.1655 70.9814 33.7085L72.1875 34.3813C72.0013 34.6987 71.8045 34.9717 71.5972 35.2002C71.3898 35.4245 71.1676 35.6107 70.9307 35.7588C70.6937 35.9027 70.4377 36.0085 70.1626 36.0762C69.8875 36.1439 69.5892 36.1777 69.2676 36.1777C68.3451 36.1777 67.6045 35.8815 67.0459 35.2891C66.4873 34.6924 66.208 33.901 66.208 32.915C66.208 31.9375 66.4788 31.1462 67.0205 30.541C67.5664 29.9443 68.29 29.646 69.1914 29.646C70.1012 29.646 70.8206 29.9359 71.3496 30.5156C71.8743 31.0911 72.1367 31.8888 72.1367 32.9087L72.1304 33.2451ZM70.6641 32.0771C70.4652 31.3154 69.9849 30.9346 69.2231 30.9346C69.0496 30.9346 68.8867 30.9621 68.7344 31.0171C68.582 31.0679 68.4424 31.144 68.3154 31.2456C68.1927 31.3429 68.0869 31.4614 67.998 31.6011C67.9092 31.7407 67.8415 31.8994 67.7949 32.0771H70.6641ZM80.687 27.5894V36H79.208V27.5894H76.9546V26.1992H82.9341V27.5894H80.687ZM89.4785 33.6196H85.2827L84.1909 36H82.5977L87.4473 25.5835L92.1255 36H90.5068L89.4785 33.6196ZM88.8755 32.2295L87.4219 28.897L85.8984 32.2295H88.8755ZM96.6768 31.8232L99.7109 36H97.9019L95.1025 31.9883H94.8359V36H93.3569V26.1992H95.0898C96.3848 26.1992 97.32 26.4425 97.8955 26.9292C98.5303 27.4709 98.8477 28.186 98.8477 29.0747C98.8477 29.7687 98.6488 30.3654 98.251 30.8647C97.8532 31.3641 97.3285 31.6836 96.6768 31.8232ZM94.8359 30.6997H95.3057C96.7064 30.6997 97.4067 30.1644 97.4067 29.0938C97.4067 28.0908 96.7254 27.5894 95.3628 27.5894H94.8359V30.6997ZM101.19 36V26.1992H103.247C104.233 26.1992 105.011 26.2965 105.583 26.4912C106.196 26.6816 106.753 27.0054 107.252 27.4624C108.263 28.3849 108.769 29.5973 108.769 31.0996C108.769 32.6061 108.242 33.8249 107.188 34.7559C106.66 35.2214 106.105 35.5451 105.525 35.7271C104.984 35.909 104.216 36 103.221 36H101.19ZM102.669 34.6099H103.335C104 34.6099 104.552 34.54 104.992 34.4004C105.432 34.2523 105.83 34.0174 106.186 33.6958C106.913 33.0314 107.277 32.166 107.277 31.0996C107.277 30.0247 106.918 29.153 106.198 28.4844C105.551 27.8877 104.597 27.5894 103.335 27.5894H102.669V34.6099ZM112.114 26.1992V36H110.635V26.1992H112.114ZM120.011 27.6592L118.811 28.3701C118.587 27.9808 118.373 27.7269 118.17 27.6084C117.958 27.473 117.685 27.4053 117.351 27.4053C116.941 27.4053 116.6 27.5216 116.329 27.7544C116.058 27.9829 115.923 28.2707 115.923 28.6177C115.923 29.0959 116.278 29.481 116.989 29.7729L117.967 30.1729C118.762 30.4945 119.344 30.888 119.712 31.3535C120.081 31.8148 120.265 32.3818 120.265 33.0547C120.265 33.9561 119.964 34.7008 119.363 35.2891C118.758 35.8815 118.007 36.1777 117.11 36.1777C116.259 36.1777 115.557 35.9259 115.002 35.4224C114.457 34.9188 114.116 34.21 113.98 33.2959L115.479 32.9658C115.546 33.5413 115.665 33.9391 115.834 34.1592C116.139 34.5824 116.583 34.7939 117.167 34.7939C117.628 34.7939 118.011 34.6395 118.316 34.3306C118.621 34.0216 118.773 33.6302 118.773 33.1562C118.773 32.9658 118.745 32.7923 118.69 32.6357C118.64 32.4749 118.557 32.3289 118.443 32.1978C118.333 32.0623 118.189 31.9375 118.011 31.8232C117.833 31.7048 117.622 31.5926 117.376 31.4868L116.431 31.0933C115.089 30.5262 114.418 29.6968 114.418 28.605C114.418 27.8687 114.7 27.2529 115.263 26.7578C115.826 26.2585 116.526 26.0088 117.364 26.0088C118.494 26.0088 119.376 26.5589 120.011 27.6592ZM35.6758 46.8174L37.2944 50.3467L39.04 46.2524L40.7983 50.3467L42.3979 46.8174H43.9976L40.7603 53.4634L39.04 49.4834L37.3008 53.4634L34.0698 46.8174H35.6758ZM44.9688 42.2788H46.397V47.3315C46.9048 46.8745 47.4655 46.646 48.0791 46.646C48.7773 46.646 49.3359 46.8724 49.7549 47.3252C50.1104 47.7188 50.2881 48.3472 50.2881 49.2104V53H48.8599V49.3438C48.8599 48.8486 48.771 48.491 48.5933 48.271C48.4198 48.0467 48.1383 47.9346 47.749 47.9346C47.2497 47.9346 46.8984 48.089 46.6953 48.3979C46.4964 48.7111 46.397 49.2485 46.397 50.0103V53H44.9688V42.2788ZM53.5317 46.8174V53H52.1035V46.8174H53.5317ZM51.8877 44.2466C51.8877 43.9969 51.9787 43.7811 52.1606 43.5991C52.3426 43.4172 52.5605 43.3262 52.8145 43.3262C53.0726 43.3262 53.2926 43.4172 53.4746 43.5991C53.6566 43.7769 53.7476 43.9948 53.7476 44.2529C53.7476 44.5111 53.6566 44.7311 53.4746 44.9131C53.2969 45.0951 53.0789 45.186 52.8208 45.186C52.5627 45.186 52.3426 45.0951 52.1606 44.9131C51.9787 44.7311 51.8877 44.509 51.8877 44.2466ZM58.9336 47.8711L57.7529 48.4995C57.5667 48.1187 57.3361 47.9282 57.061 47.9282C56.9299 47.9282 56.8177 47.9727 56.7246 48.0615C56.6315 48.1462 56.585 48.2562 56.585 48.3916C56.585 48.6286 56.86 48.8634 57.4102 49.0962C58.1676 49.422 58.6776 49.7225 58.9399 49.9976C59.2023 50.2726 59.3335 50.6429 59.3335 51.1084C59.3335 51.7051 59.1134 52.2044 58.6733 52.6064C58.2459 52.9873 57.7297 53.1777 57.1245 53.1777C56.0877 53.1777 55.3535 52.672 54.9219 51.6606L56.1406 51.0957C56.3099 51.3919 56.439 51.5802 56.5278 51.6606C56.7013 51.8215 56.9087 51.9019 57.1499 51.9019C57.6323 51.9019 57.8735 51.6818 57.8735 51.2417C57.8735 50.9878 57.6873 50.7508 57.3149 50.5308C57.1711 50.4588 57.0272 50.389 56.8833 50.3213C56.7394 50.2536 56.5934 50.1838 56.4453 50.1118C56.0306 49.9087 55.7386 49.7056 55.5693 49.5024C55.3535 49.2443 55.2456 48.9121 55.2456 48.5059C55.2456 47.9684 55.4297 47.5241 55.7979 47.1729C56.1745 46.8216 56.6315 46.646 57.1689 46.646C57.9603 46.646 58.5485 47.0544 58.9336 47.8711ZM62.0503 42.2788V48.8169L64.0625 46.8174H65.9795L63.2944 49.4136L66.1763 53H64.3228L62.2788 50.3911L62.0503 50.6196V53H60.6221V42.2788H62.0503ZM73.0571 51.8511L70.2769 46.8174H71.9336L73.8252 50.3721L75.5898 46.8174H77.2021L72.2764 56.3643H70.645L73.0571 51.8511ZM77.6338 49.8643C77.6338 48.9714 77.9533 48.2118 78.5923 47.5854C79.2313 46.9591 80.0099 46.646 80.9282 46.646C81.8507 46.646 82.6336 46.9613 83.2769 47.5918C83.9116 48.2223 84.229 48.9967 84.229 49.915C84.229 50.8418 83.9095 51.6183 83.2705 52.2446C82.6273 52.8667 81.8381 53.1777 80.9028 53.1777C79.9761 53.1777 79.1995 52.8604 78.5732 52.2256C77.9469 51.5993 77.6338 50.8122 77.6338 49.8643ZM79.0938 49.8896C79.0938 50.5075 79.2588 50.9963 79.5889 51.356C79.9274 51.7199 80.3739 51.9019 80.9282 51.9019C81.4868 51.9019 81.9333 51.722 82.2676 51.3623C82.6019 51.0026 82.769 50.5223 82.769 49.9214C82.769 49.3205 82.6019 48.8402 82.2676 48.4805C81.929 48.1165 81.4826 47.9346 80.9282 47.9346C80.3823 47.9346 79.9401 48.1165 79.6016 48.4805C79.263 48.8444 79.0938 49.3141 79.0938 49.8896ZM87.1743 46.8174V50.3657C87.1743 51.3898 87.5785 51.9019 88.3867 51.9019C89.195 51.9019 89.5991 51.3898 89.5991 50.3657V46.8174H91.0273V50.3975C91.0273 50.8926 90.966 51.32 90.8433 51.6797C90.7248 52.0013 90.5195 52.2912 90.2275 52.5493C89.7451 52.9683 89.1315 53.1777 88.3867 53.1777C87.6462 53.1777 87.0347 52.9683 86.5522 52.5493C86.256 52.2912 86.0465 52.0013 85.9238 51.6797C85.8053 51.3919 85.7461 50.9645 85.7461 50.3975V46.8174H87.1743ZM39.459 63.8174H40.8936V70H39.459V69.3525C38.8708 69.9027 38.2381 70.1777 37.561 70.1777C36.7062 70.1777 35.9995 69.8688 35.4409 69.251C34.8866 68.6204 34.6094 67.8333 34.6094 66.8896C34.6094 65.9629 34.8866 65.1906 35.4409 64.5728C35.9953 63.9549 36.6893 63.646 37.5229 63.646C38.2424 63.646 38.8877 63.9422 39.459 64.5347V63.8174ZM36.0693 66.8896C36.0693 67.4821 36.228 67.9645 36.5454 68.3369C36.8713 68.7135 37.2817 68.9019 37.7769 68.9019C38.3058 68.9019 38.7332 68.7199 39.0591 68.356C39.3849 67.9793 39.5479 67.5011 39.5479 66.9214C39.5479 66.3416 39.3849 65.8634 39.0591 65.4868C38.7332 65.1187 38.3101 64.9346 37.7896 64.9346C37.2987 64.9346 36.8882 65.1208 36.5581 65.4932C36.2323 65.8698 36.0693 66.3353 36.0693 66.8896ZM43.585 63.8174L45.2036 67.3467L46.9492 63.2524L48.7075 67.3467L50.3071 63.8174H51.9067L48.6694 70.4634L46.9492 66.4834L45.21 70.4634L41.979 63.8174H43.585ZM57.2197 63.8174H58.6543V70H57.2197V69.3525C56.6315 69.9027 55.9989 70.1777 55.3218 70.1777C54.467 70.1777 53.7603 69.8688 53.2017 69.251C52.6473 68.6204 52.3701 67.8333 52.3701 66.8896C52.3701 65.9629 52.6473 65.1906 53.2017 64.5728C53.756 63.9549 54.45 63.646 55.2837 63.646C56.0031 63.646 56.6484 63.9422 57.2197 64.5347V63.8174ZM53.8301 66.8896C53.8301 67.4821 53.9888 67.9645 54.3062 68.3369C54.632 68.7135 55.0425 68.9019 55.5376 68.9019C56.0666 68.9019 56.494 68.7199 56.8198 68.356C57.1457 67.9793 57.3086 67.5011 57.3086 66.9214C57.3086 66.3416 57.1457 65.8634 56.8198 65.4868C56.494 65.1187 56.0708 64.9346 55.5503 64.9346C55.0594 64.9346 54.6489 65.1208 54.3188 65.4932C53.993 65.8698 53.8301 66.3353 53.8301 66.8896ZM62.52 68.8511L59.7397 63.8174H61.3965L63.2881 67.3721L65.0527 63.8174H66.665L61.7393 73.3643H60.1079L62.52 68.8511ZM73.0825 59.2788V64.5347C73.6538 63.9422 74.3013 63.646 75.0249 63.646C75.8586 63.646 76.5526 63.957 77.1069 64.5791C77.6613 65.1969 77.9385 65.9671 77.9385 66.8896C77.9385 67.8418 77.6592 68.6289 77.1006 69.251C76.5462 69.8688 75.8459 70.1777 74.9995 70.1777C74.2843 70.1777 73.6453 69.9027 73.0825 69.3525V70H71.6543V59.2788H73.0825ZM76.4785 66.9531C76.4785 66.3607 76.3177 65.8783 75.9961 65.5059C75.6702 65.125 75.2619 64.9346 74.771 64.9346C74.2463 64.9346 73.8188 65.1187 73.4888 65.4868C73.1629 65.8507 73 66.3247 73 66.9087C73 67.5096 73.1608 67.9899 73.4824 68.3496C73.804 68.7178 74.2272 68.9019 74.752 68.9019C75.2471 68.9019 75.6576 68.7178 75.9834 68.3496C76.3135 67.9772 76.4785 67.5117 76.4785 66.9531ZM81.1567 68.8511L78.3765 63.8174H80.0332L81.9248 67.3721L83.6895 63.8174H85.3018L80.376 73.3643H78.7446L81.1567 68.8511ZM39.7129 81.084V82.9819C39.387 82.5841 39.0951 82.3112 38.8369 82.1631C38.583 82.0107 38.2847 81.9346 37.9419 81.9346C37.4045 81.9346 36.958 82.1229 36.6025 82.4995C36.2471 82.8761 36.0693 83.348 36.0693 83.915C36.0693 84.4948 36.2407 84.9709 36.5835 85.3433C36.9305 85.7157 37.3727 85.9019 37.9102 85.9019C38.2529 85.9019 38.5555 85.8278 38.8179 85.6797C39.0718 85.5358 39.3701 85.2565 39.7129 84.8418V86.7271C39.1331 87.0275 38.5534 87.1777 37.9736 87.1777C37.0173 87.1777 36.2174 86.8688 35.5742 86.251C34.931 85.6289 34.6094 84.8566 34.6094 83.9341C34.6094 83.0116 34.9352 82.2329 35.5869 81.5981C36.2386 80.9634 37.0384 80.646 37.9863 80.646C38.5957 80.646 39.1712 80.792 39.7129 81.084ZM42.5249 76.2788V87H41.0967V76.2788H42.5249ZM45.7622 80.8174V87H44.334V80.8174H45.7622ZM44.1182 78.2466C44.1182 77.9969 44.2091 77.7811 44.3911 77.5991C44.5731 77.4172 44.791 77.3262 45.0449 77.3262C45.3031 77.3262 45.5231 77.4172 45.7051 77.5991C45.887 77.7769 45.978 77.9948 45.978 78.2529C45.978 78.5111 45.887 78.7311 45.7051 78.9131C45.5273 79.0951 45.3094 79.186 45.0513 79.186C44.7931 79.186 44.5731 79.0951 44.3911 78.9131C44.2091 78.7311 44.1182 78.509 44.1182 78.2466ZM52.3828 81.084V82.9819C52.057 82.5841 51.765 82.3112 51.5068 82.1631C51.2529 82.0107 50.9546 81.9346 50.6118 81.9346C50.0744 81.9346 49.6279 82.1229 49.2725 82.4995C48.917 82.8761 48.7393 83.348 48.7393 83.915C48.7393 84.4948 48.9106 84.9709 49.2534 85.3433C49.6004 85.7157 50.0426 85.9019 50.5801 85.9019C50.9229 85.9019 51.2254 85.8278 51.4878 85.6797C51.7417 85.5358 52.04 85.2565 52.3828 84.8418V86.7271C51.8031 87.0275 51.2233 87.1777 50.6436 87.1777C49.6872 87.1777 48.8874 86.8688 48.2441 86.251C47.6009 85.6289 47.2793 84.8566 47.2793 83.9341C47.2793 83.0116 47.6051 82.2329 48.2568 81.5981C48.9085 80.9634 49.7083 80.646 50.6562 80.646C51.2656 80.646 51.8411 80.792 52.3828 81.084ZM55.5376 76.2788V82.8169L57.5498 80.8174H59.4668L56.7817 83.4136L59.6636 87H57.8101L55.7661 84.3911L55.5376 84.6196V87H54.1094V76.2788H55.5376ZM62.0122 80.8174V87H60.584V80.8174H62.0122ZM60.3682 78.2466C60.3682 77.9969 60.4591 77.7811 60.6411 77.5991C60.8231 77.4172 61.041 77.3262 61.2949 77.3262C61.5531 77.3262 61.7731 77.4172 61.9551 77.5991C62.137 77.7769 62.228 77.9948 62.228 78.2529C62.228 78.5111 62.137 78.7311 61.9551 78.9131C61.7773 79.0951 61.5594 79.186 61.3013 79.186C61.0431 79.186 60.8231 79.0951 60.6411 78.9131C60.4591 78.7311 60.3682 78.509 60.3682 78.2466ZM63.8213 80.8174H65.2559V81.3887C65.7552 80.8936 66.318 80.646 66.9443 80.646C67.6637 80.646 68.2244 80.8724 68.6265 81.3252C68.9735 81.7103 69.147 82.3387 69.147 83.2104V87H67.7124V83.5469C67.7124 82.9375 67.6278 82.5164 67.4585 82.2837C67.2935 82.0467 66.993 81.9282 66.5571 81.9282C66.0832 81.9282 65.7467 82.0848 65.5479 82.3979C65.3532 82.7069 65.2559 83.2464 65.2559 84.0166V87H63.8213V80.8174ZM76.9355 86.854C76.9355 87.146 76.925 87.402 76.9038 87.6221C76.8869 87.8464 76.8615 88.0431 76.8276 88.2124C76.7261 88.6779 76.5272 89.0778 76.231 89.4121C75.6724 90.0553 74.9043 90.377 73.9268 90.377C73.1016 90.377 72.4224 90.1548 71.8892 89.7104C71.339 89.2534 71.0216 88.6208 70.937 87.8125H72.3716C72.4266 88.1172 72.5176 88.3521 72.6445 88.5171C72.9408 88.9022 73.3724 89.0947 73.9395 89.0947C74.9847 89.0947 75.5073 88.4536 75.5073 87.1714V86.3081C74.9403 86.8879 74.2865 87.1777 73.5459 87.1777C72.7038 87.1777 72.014 86.873 71.4766 86.2637C70.9349 85.6458 70.6641 84.8735 70.6641 83.9468C70.6641 83.0454 70.9159 82.2795 71.4194 81.6489C71.9611 80.9803 72.6763 80.646 73.5649 80.646C74.3436 80.646 74.991 80.9359 75.5073 81.5156V80.8174H76.9355V86.854ZM75.5645 83.9214C75.5645 83.3205 75.4036 82.8402 75.082 82.4805C74.7562 82.1123 74.3394 81.9282 73.8315 81.9282C73.2899 81.9282 72.8625 82.1292 72.5493 82.5312C72.2658 82.891 72.124 83.3564 72.124 83.9277C72.124 84.4906 72.2658 84.9518 72.5493 85.3115C72.8582 85.7051 73.2856 85.9019 73.8315 85.9019C74.3774 85.9019 74.8091 85.703 75.1265 85.3052C75.4185 84.9455 75.5645 84.4842 75.5645 83.9214ZM82.458 83.8643C82.458 82.9714 82.7775 82.2118 83.4165 81.5854C84.0555 80.9591 84.8341 80.646 85.7524 80.646C86.675 80.646 87.4578 80.9613 88.1011 81.5918C88.7358 82.2223 89.0532 82.9967 89.0532 83.915C89.0532 84.8418 88.7337 85.6183 88.0947 86.2446C87.4515 86.8667 86.6623 87.1777 85.7271 87.1777C84.8003 87.1777 84.0238 86.8604 83.3975 86.2256C82.7712 85.5993 82.458 84.8122 82.458 83.8643ZM83.918 83.8896C83.918 84.5075 84.083 84.9963 84.4131 85.356C84.7516 85.7199 85.1981 85.9019 85.7524 85.9019C86.311 85.9019 86.7575 85.722 87.0918 85.3623C87.4261 85.0026 87.5933 84.5223 87.5933 83.9214C87.5933 83.3205 87.4261 82.8402 87.0918 82.4805C86.7533 82.1165 86.3068 81.9346 85.7524 81.9346C85.2065 81.9346 84.7643 82.1165 84.4258 82.4805C84.0872 82.8444 83.918 83.3141 83.918 83.8896ZM90.5703 80.8174H92.0049V81.3887C92.5042 80.8936 93.0671 80.646 93.6934 80.646C94.4128 80.646 94.9735 80.8724 95.3755 81.3252C95.7225 81.7103 95.896 82.3387 95.896 83.2104V87H94.4614V83.5469C94.4614 82.9375 94.3768 82.5164 94.2075 82.2837C94.0425 82.0467 93.742 81.9282 93.3062 81.9282C92.8322 81.9282 92.4958 82.0848 92.2969 82.3979C92.1022 82.7069 92.0049 83.2464 92.0049 84.0166V87H90.5703V80.8174ZM36.374 100.15V105H34.9458V100.15H34.3364V98.8174H34.9458V96.5513H36.374V98.8174H37.4849V100.15H36.374ZM38.7227 94.2788H40.1509V99.3315C40.6587 98.8745 41.2194 98.646 41.833 98.646C42.5312 98.646 43.0898 98.8724 43.5088 99.3252C43.8643 99.7188 44.042 100.347 44.042 101.21V105H42.6138V101.344C42.6138 100.849 42.5249 100.491 42.3472 100.271C42.1737 100.047 41.8923 99.9346 41.5029 99.9346C41.0036 99.9346 40.6523 100.089 40.4492 100.398C40.2503 100.711 40.1509 101.249 40.1509 102.01V105H38.7227V94.2788ZM51.4878 102.245H47.0571C47.0952 102.753 47.2603 103.157 47.5522 103.458C47.8442 103.754 48.2188 103.902 48.6758 103.902C49.0312 103.902 49.3254 103.817 49.5581 103.648C49.7866 103.479 50.0469 103.166 50.3389 102.708L51.5449 103.381C51.3587 103.699 51.1619 103.972 50.9546 104.2C50.7472 104.424 50.5251 104.611 50.2881 104.759C50.0511 104.903 49.7951 105.008 49.52 105.076C49.245 105.144 48.9466 105.178 48.625 105.178C47.7025 105.178 46.9619 104.882 46.4033 104.289C45.8447 103.692 45.5654 102.901 45.5654 101.915C45.5654 100.938 45.8363 100.146 46.3779 99.541C46.9238 98.9443 47.6475 98.646 48.5488 98.646C49.4587 98.646 50.1781 98.9359 50.707 99.5156C51.2318 100.091 51.4941 100.889 51.4941 101.909L51.4878 102.245ZM50.0215 101.077C49.8226 100.315 49.3423 99.9346 48.5806 99.9346C48.4071 99.9346 48.2441 99.9621 48.0918 100.017C47.9395 100.068 47.7998 100.144 47.6729 100.246C47.5501 100.343 47.4443 100.461 47.3555 100.601C47.2666 100.741 47.1989 100.899 47.1523 101.077H50.0215ZM58.4956 98.8174V105H57.0674V98.8174H58.4956ZM56.8516 96.2466C56.8516 95.9969 56.9425 95.7811 57.1245 95.5991C57.3065 95.4172 57.5244 95.3262 57.7783 95.3262C58.0365 95.3262 58.2565 95.4172 58.4385 95.5991C58.6204 95.7769 58.7114 95.9948 58.7114 96.2529C58.7114 96.5111 58.6204 96.7311 58.4385 96.9131C58.2607 97.0951 58.0428 97.186 57.7847 97.186C57.5265 97.186 57.3065 97.0951 57.1245 96.9131C56.9425 96.7311 56.8516 96.509 56.8516 96.2466ZM60.3047 98.8174H61.7393V99.3887C62.2386 98.8936 62.8014 98.646 63.4277 98.646C64.1471 98.646 64.7078 98.8724 65.1099 99.3252C65.4569 99.7103 65.6304 100.339 65.6304 101.21V105H64.1958V101.547C64.1958 100.938 64.1112 100.516 63.9419 100.284C63.7769 100.047 63.4764 99.9282 63.0405 99.9282C62.5666 99.9282 62.2301 100.085 62.0312 100.398C61.8366 100.707 61.7393 101.246 61.7393 102.017V105H60.3047V98.8174ZM68.9185 100.15V105H67.4839V100.15H66.9761V98.8174H67.4839V96.4307C67.4839 95.652 67.6193 95.1019 67.8901 94.7803C68.2625 94.3317 68.8042 94.1074 69.5151 94.1074C69.769 94.1074 70.0885 94.1815 70.4736 94.3296V95.7896L70.3276 95.7134C70.0187 95.5568 69.7648 95.4785 69.5659 95.4785C69.312 95.4785 69.1406 95.5695 69.0518 95.7515C68.9629 95.9292 68.9185 96.272 68.9185 96.7798V98.8174H70.4736V100.15H68.9185ZM76.0596 98.8174H77.4941V105H76.0596V104.353C75.4714 104.903 74.8387 105.178 74.1616 105.178C73.3068 105.178 72.6001 104.869 72.0415 104.251C71.4871 103.62 71.21 102.833 71.21 101.89C71.21 100.963 71.4871 100.191 72.0415 99.5728C72.5959 98.9549 73.2899 98.646 74.1235 98.646C74.8429 98.646 75.4883 98.9422 76.0596 99.5347V98.8174ZM72.6699 101.89C72.6699 102.482 72.8286 102.965 73.146 103.337C73.4718 103.714 73.8823 103.902 74.3774 103.902C74.9064 103.902 75.3338 103.72 75.6597 103.356C75.9855 102.979 76.1484 102.501 76.1484 101.921C76.1484 101.342 75.9855 100.863 75.6597 100.487C75.3338 100.119 74.9106 99.9346 74.3901 99.9346C73.8993 99.9346 73.4888 100.121 73.1587 100.493C72.8328 100.87 72.6699 101.335 72.6699 101.89ZM79.2969 98.8174H80.7251V99.3887C81.0002 99.1009 81.235 98.9062 81.4297 98.8047C81.637 98.6989 81.8973 98.646 82.2104 98.646C82.9087 98.646 83.4609 98.9507 83.8672 99.5601C84.3158 98.9507 84.923 98.646 85.689 98.646C87.0812 98.646 87.7773 99.4902 87.7773 101.179V105H86.3428V101.566C86.3428 100.973 86.2708 100.555 86.127 100.309C85.9788 100.059 85.7355 99.9346 85.397 99.9346C85.0034 99.9346 84.7157 100.083 84.5337 100.379C84.356 100.675 84.2671 101.151 84.2671 101.807V105H82.8325V101.585C82.8325 100.485 82.5151 99.9346 81.8804 99.9346C81.4784 99.9346 81.1842 100.085 80.998 100.385C80.8161 100.686 80.7251 101.16 80.7251 101.807V105H79.2969V98.8174ZM89.2881 101.864C89.2881 100.971 89.6076 100.212 90.2466 99.5854C90.8856 98.9591 91.6642 98.646 92.5825 98.646C93.505 98.646 94.2879 98.9613 94.9312 99.5918C95.5659 100.222 95.8833 100.997 95.8833 101.915C95.8833 102.842 95.5638 103.618 94.9248 104.245C94.2816 104.867 93.4924 105.178 92.5571 105.178C91.6304 105.178 90.8538 104.86 90.2275 104.226C89.6012 103.599 89.2881 102.812 89.2881 101.864ZM90.748 101.89C90.748 102.507 90.9131 102.996 91.2432 103.356C91.5817 103.72 92.0282 103.902 92.5825 103.902C93.1411 103.902 93.5876 103.722 93.9219 103.362C94.2562 103.003 94.4233 102.522 94.4233 101.921C94.4233 101.32 94.2562 100.84 93.9219 100.48C93.5833 100.117 93.1369 99.9346 92.5825 99.9346C92.0366 99.9346 91.5944 100.117 91.2559 100.48C90.9173 100.844 90.748 101.314 90.748 101.89ZM98.8286 98.8174V102.366C98.8286 103.39 99.2327 103.902 100.041 103.902C100.849 103.902 101.253 103.39 101.253 102.366V98.8174H102.682V102.397C102.682 102.893 102.62 103.32 102.498 103.68C102.379 104.001 102.174 104.291 101.882 104.549C101.399 104.968 100.786 105.178 100.041 105.178C99.3005 105.178 98.689 104.968 98.2065 104.549C97.9103 104.291 97.7008 104.001 97.5781 103.68C97.4596 103.392 97.4004 102.965 97.4004 102.397V98.8174H98.8286ZM108.077 99.8711L106.896 100.5C106.71 100.119 106.48 99.9282 106.205 99.9282C106.073 99.9282 105.961 99.9727 105.868 100.062C105.775 100.146 105.729 100.256 105.729 100.392C105.729 100.629 106.004 100.863 106.554 101.096C107.311 101.422 107.821 101.722 108.083 101.998C108.346 102.273 108.477 102.643 108.477 103.108C108.477 103.705 108.257 104.204 107.817 104.606C107.389 104.987 106.873 105.178 106.268 105.178C105.231 105.178 104.497 104.672 104.065 103.661L105.284 103.096C105.453 103.392 105.583 103.58 105.671 103.661C105.845 103.821 106.052 103.902 106.293 103.902C106.776 103.902 107.017 103.682 107.017 103.242C107.017 102.988 106.831 102.751 106.458 102.531C106.315 102.459 106.171 102.389 106.027 102.321C105.883 102.254 105.737 102.184 105.589 102.112C105.174 101.909 104.882 101.706 104.713 101.502C104.497 101.244 104.389 100.912 104.389 100.506C104.389 99.9684 104.573 99.5241 104.941 99.1729C105.318 98.8216 105.775 98.646 106.312 98.646C107.104 98.646 107.692 99.0544 108.077 99.8711ZM39.459 125.364V121.308C38.8919 121.888 38.2445 122.178 37.5166 122.178C36.6829 122.178 35.991 121.871 35.4409 121.257C34.8866 120.639 34.6094 119.867 34.6094 118.94C34.6094 118.001 34.8866 117.216 35.4409 116.585C35.9995 115.959 36.6999 115.646 37.542 115.646C38.2572 115.646 38.8962 115.927 39.459 116.49V115.817H40.8936V125.364H39.459ZM36.0693 118.877C36.0693 119.474 36.2301 119.958 36.5518 120.331C36.8734 120.711 37.2817 120.902 37.7769 120.902C38.3016 120.902 38.7269 120.72 39.0527 120.356C39.3828 119.988 39.5479 119.51 39.5479 118.921C39.5479 118.342 39.3849 117.863 39.0591 117.487C38.7332 117.119 38.3101 116.935 37.7896 116.935C37.2987 116.935 36.8882 117.121 36.5581 117.493C36.2323 117.87 36.0693 118.331 36.0693 118.877ZM44.2769 115.817V119.366C44.2769 120.39 44.681 120.902 45.4893 120.902C46.2975 120.902 46.7017 120.39 46.7017 119.366V115.817H48.1299V119.397C48.1299 119.893 48.0685 120.32 47.9458 120.68C47.8273 121.001 47.6221 121.291 47.3301 121.549C46.8477 121.968 46.234 122.178 45.4893 122.178C44.7487 122.178 44.1372 121.968 43.6548 121.549C43.3586 121.291 43.1491 121.001 43.0264 120.68C42.9079 120.392 42.8486 119.965 42.8486 119.397V115.817H44.2769ZM55.563 119.245H51.1323C51.1704 119.753 51.3354 120.157 51.6274 120.458C51.9194 120.754 52.2939 120.902 52.751 120.902C53.1064 120.902 53.4006 120.817 53.6333 120.648C53.8618 120.479 54.1221 120.166 54.4141 119.708L55.6201 120.381C55.4339 120.699 55.2371 120.972 55.0298 121.2C54.8224 121.424 54.6003 121.611 54.3633 121.759C54.1263 121.903 53.8703 122.008 53.5952 122.076C53.3201 122.144 53.0218 122.178 52.7002 122.178C51.7777 122.178 51.0371 121.882 50.4785 121.289C49.9199 120.692 49.6406 119.901 49.6406 118.915C49.6406 117.938 49.9115 117.146 50.4531 116.541C50.999 115.944 51.7227 115.646 52.624 115.646C53.5339 115.646 54.2533 115.936 54.7822 116.516C55.307 117.091 55.5693 117.889 55.5693 118.909L55.563 119.245ZM54.0967 118.077C53.8978 117.315 53.4175 116.935 52.6558 116.935C52.4823 116.935 52.3193 116.962 52.167 117.017C52.0146 117.068 51.875 117.144 51.748 117.246C51.6253 117.343 51.5195 117.461 51.4307 117.601C51.3418 117.741 51.2741 117.899 51.2275 118.077H54.0967ZM60.7236 116.871L59.543 117.5C59.3568 117.119 59.1261 116.928 58.8511 116.928C58.7199 116.928 58.6077 116.973 58.5146 117.062C58.4215 117.146 58.375 117.256 58.375 117.392C58.375 117.629 58.6501 117.863 59.2002 118.096C59.9577 118.422 60.4676 118.722 60.73 118.998C60.9924 119.273 61.1235 119.643 61.1235 120.108C61.1235 120.705 60.9035 121.204 60.4634 121.606C60.036 121.987 59.5197 122.178 58.9146 122.178C57.8778 122.178 57.1436 121.672 56.7119 120.661L57.9307 120.096C58.0999 120.392 58.229 120.58 58.3179 120.661C58.4914 120.821 58.6987 120.902 58.9399 120.902C59.4224 120.902 59.6636 120.682 59.6636 120.242C59.6636 119.988 59.4774 119.751 59.105 119.531C58.9611 119.459 58.8172 119.389 58.6733 119.321C58.5295 119.254 58.3835 119.184 58.2354 119.112C57.8206 118.909 57.5286 118.706 57.3594 118.502C57.1436 118.244 57.0356 117.912 57.0356 117.506C57.0356 116.968 57.2197 116.524 57.5879 116.173C57.9645 115.822 58.4215 115.646 58.959 115.646C59.7503 115.646 60.3385 116.054 60.7236 116.871ZM63.8848 117.15V122H62.4565V117.15H61.8472V115.817H62.4565V113.551H63.8848V115.817H64.9956V117.15H63.8848ZM67.395 115.817V122H65.9668V115.817H67.395ZM65.751 113.247C65.751 112.997 65.842 112.781 66.0239 112.599C66.2059 112.417 66.4238 112.326 66.6777 112.326C66.9359 112.326 67.1559 112.417 67.3379 112.599C67.5199 112.777 67.6108 112.995 67.6108 113.253C67.6108 113.511 67.5199 113.731 67.3379 113.913C67.1602 114.095 66.9422 114.186 66.6841 114.186C66.4259 114.186 66.2059 114.095 66.0239 113.913C65.842 113.731 65.751 113.509 65.751 113.247ZM68.9121 118.864C68.9121 117.971 69.2316 117.212 69.8706 116.585C70.5096 115.959 71.2882 115.646 72.2065 115.646C73.1291 115.646 73.9119 115.961 74.5552 116.592C75.1899 117.222 75.5073 117.997 75.5073 118.915C75.5073 119.842 75.1878 120.618 74.5488 121.245C73.9056 121.867 73.1164 122.178 72.1812 122.178C71.2544 122.178 70.4779 121.86 69.8516 121.226C69.2253 120.599 68.9121 119.812 68.9121 118.864ZM70.3721 118.89C70.3721 119.507 70.5371 119.996 70.8672 120.356C71.2057 120.72 71.6522 120.902 72.2065 120.902C72.7651 120.902 73.2116 120.722 73.5459 120.362C73.8802 120.003 74.0474 119.522 74.0474 118.921C74.0474 118.32 73.8802 117.84 73.5459 117.48C73.2074 117.117 72.7609 116.935 72.2065 116.935C71.6606 116.935 71.2184 117.117 70.8799 117.48C70.5413 117.844 70.3721 118.314 70.3721 118.89ZM77.0244 115.817H78.459V116.389C78.9583 115.894 79.5212 115.646 80.1475 115.646C80.8669 115.646 81.4276 115.872 81.8296 116.325C82.1766 116.71 82.3501 117.339 82.3501 118.21V122H80.9155V118.547C80.9155 117.938 80.8309 117.516 80.6616 117.284C80.4966 117.047 80.1961 116.928 79.7603 116.928C79.2863 116.928 78.9499 117.085 78.751 117.398C78.5563 117.707 78.459 118.246 78.459 119.017V122H77.0244V115.817ZM34.9014 132.817H36.3296V133.389C36.6047 133.101 36.8395 132.906 37.0342 132.805C37.2415 132.699 37.5018 132.646 37.8149 132.646C38.5132 132.646 39.0654 132.951 39.4717 133.56C39.9202 132.951 40.5275 132.646 41.2935 132.646C42.6857 132.646 43.3818 133.49 43.3818 135.179V139H41.9473V135.566C41.9473 134.973 41.8753 134.555 41.7314 134.309C41.5833 134.059 41.34 133.935 41.0015 133.935C40.6079 133.935 40.3201 134.083 40.1382 134.379C39.9604 134.675 39.8716 135.151 39.8716 135.807V139H38.437V135.585C38.437 134.485 38.1196 133.935 37.4849 133.935C37.0828 133.935 36.7887 134.085 36.6025 134.385C36.4206 134.686 36.3296 135.16 36.3296 135.807V139H34.9014V132.817ZM49.7422 132.817H51.1768V139H49.7422V138.353C49.154 138.903 48.5213 139.178 47.8442 139.178C46.9894 139.178 46.2827 138.869 45.7241 138.251C45.1698 137.62 44.8926 136.833 44.8926 135.89C44.8926 134.963 45.1698 134.191 45.7241 133.573C46.2785 132.955 46.9725 132.646 47.8062 132.646C48.5256 132.646 49.1709 132.942 49.7422 133.535V132.817ZM46.3525 135.89C46.3525 136.482 46.5112 136.965 46.8286 137.337C47.1545 137.714 47.5649 137.902 48.0601 137.902C48.589 137.902 49.0164 137.72 49.3423 137.356C49.6681 136.979 49.8311 136.501 49.8311 135.921C49.8311 135.342 49.6681 134.863 49.3423 134.487C49.0164 134.119 48.5933 133.935 48.0728 133.935C47.5819 133.935 47.1714 134.121 46.8413 134.493C46.5155 134.87 46.3525 135.335 46.3525 135.89ZM52.9795 132.817H54.4077V133.37C54.6701 133.095 54.9028 132.906 55.106 132.805C55.3133 132.699 55.5588 132.646 55.8423 132.646C56.2189 132.646 56.6125 132.769 57.0229 133.014L56.3691 134.322C56.0983 134.127 55.8338 134.03 55.5757 134.03C54.797 134.03 54.4077 134.618 54.4077 135.794V139H52.9795V132.817ZM59.4731 128.279V134.817L61.4854 132.817H63.4023L60.7173 135.414L63.5991 139H61.7456L59.7017 136.391L59.4731 136.62V139H58.0449V128.279H59.4731ZM64.9448 138.289C64.9448 138.052 65.0316 137.847 65.2051 137.673C65.3786 137.5 65.5859 137.413 65.8271 137.413C66.0684 137.413 66.2757 137.5 66.4492 137.673C66.6227 137.847 66.7095 138.054 66.7095 138.295C66.7095 138.541 66.6227 138.75 66.4492 138.924C66.2799 139.093 66.0726 139.178 65.8271 139.178C65.5775 139.178 65.368 139.093 65.1987 138.924C65.0295 138.755 64.9448 138.543 64.9448 138.289ZM68.9565 138.289C68.9565 138.052 69.0433 137.847 69.2168 137.673C69.3903 137.5 69.5977 137.413 69.8389 137.413C70.0801 137.413 70.2874 137.5 70.4609 137.673C70.6344 137.847 70.7212 138.054 70.7212 138.295C70.7212 138.541 70.6344 138.75 70.4609 138.924C70.2917 139.093 70.0843 139.178 69.8389 139.178C69.5892 139.178 69.3797 139.093 69.2104 138.924C69.0412 138.755 68.9565 138.543 68.9565 138.289ZM72.9683 138.289C72.9683 138.052 73.055 137.847 73.2285 137.673C73.402 137.5 73.6094 137.413 73.8506 137.413C74.0918 137.413 74.2992 137.5 74.4727 137.673C74.6462 137.847 74.7329 138.054 74.7329 138.295C74.7329 138.541 74.6462 138.75 74.4727 138.924C74.3034 139.093 74.096 139.178 73.8506 139.178C73.6009 139.178 73.3914 139.093 73.2222 138.924C73.0529 138.755 72.9683 138.543 72.9683 138.289Z" fill="white"/>
<path d="M17.4082 40.1504H27.5156V44H9.28711L18.709 32.5918C19.6348 31.4551 20.4082 30.4707 21.0293 29.6387C21.6621 28.8066 22.1426 28.1094 22.4707 27.5469C23.1387 26.4453 23.4727 25.4551 23.4727 24.5762C23.4727 23.3105 23.0273 22.25 22.1367 21.3945C21.2461 20.5391 20.1445 20.1113 18.832 20.1113C16.0898 20.1113 14.5195 21.7344 14.1211 24.9805H10.043C10.6992 19.2617 13.5879 16.4023 18.709 16.4023C21.1816 16.4023 23.2559 17.1875 24.9316 18.7578C26.6191 20.3281 27.4629 22.2734 27.4629 24.5938C27.4629 26.0703 27.0703 27.5176 26.2852 28.9355C25.8867 29.6738 25.3008 30.5527 24.5273 31.5723C23.7656 32.5801 22.7988 33.7754 21.627 35.1582L17.4082 40.1504Z" fill="white"/>
<path d="M26.8984 237.301L25.791 237.957C25.584 237.598 25.3867 237.363 25.1992 237.254C25.0039 237.129 24.752 237.066 24.4434 237.066C24.0645 237.066 23.75 237.174 23.5 237.389C23.25 237.6 23.125 237.865 23.125 238.186C23.125 238.627 23.4531 238.982 24.1094 239.252L25.0117 239.621C25.7461 239.918 26.2832 240.281 26.623 240.711C26.9629 241.137 27.1328 241.66 27.1328 242.281C27.1328 243.113 26.8555 243.801 26.3008 244.344C25.7422 244.891 25.0488 245.164 24.2207 245.164C23.4355 245.164 22.7871 244.932 22.2754 244.467C21.7715 244.002 21.457 243.348 21.332 242.504L22.7148 242.199C22.7773 242.73 22.8867 243.098 23.043 243.301C23.3242 243.691 23.7344 243.887 24.2734 243.887C24.6992 243.887 25.0527 243.744 25.334 243.459C25.6152 243.174 25.7559 242.812 25.7559 242.375C25.7559 242.199 25.7305 242.039 25.6797 241.895C25.6328 241.746 25.5566 241.611 25.4512 241.49C25.3496 241.365 25.2168 241.25 25.0527 241.145C24.8887 241.035 24.6934 240.932 24.4668 240.834L23.5938 240.471C22.3555 239.947 21.7363 239.182 21.7363 238.174C21.7363 237.494 21.9961 236.926 22.5156 236.469C23.0352 236.008 23.6816 235.777 24.4551 235.777C25.498 235.777 26.3125 236.285 26.8984 237.301ZM33.7246 242.457H29.6348C29.6699 242.926 29.8223 243.299 30.0918 243.576C30.3613 243.85 30.707 243.986 31.1289 243.986C31.457 243.986 31.7285 243.908 31.9434 243.752C32.1543 243.596 32.3945 243.307 32.6641 242.885L33.7773 243.506C33.6055 243.799 33.4238 244.051 33.2324 244.262C33.041 244.469 32.8359 244.641 32.6172 244.777C32.3984 244.91 32.1621 245.008 31.9082 245.07C31.6543 245.133 31.3789 245.164 31.082 245.164C30.2305 245.164 29.5469 244.891 29.0312 244.344C28.5156 243.793 28.2578 243.062 28.2578 242.152C28.2578 241.25 28.5078 240.52 29.0078 239.961C29.5117 239.41 30.1797 239.135 31.0117 239.135C31.8516 239.135 32.5156 239.402 33.0039 239.938C33.4883 240.469 33.7305 241.205 33.7305 242.146L33.7246 242.457ZM32.3711 241.379C32.1875 240.676 31.7441 240.324 31.041 240.324C30.8809 240.324 30.7305 240.35 30.5898 240.4C30.4492 240.447 30.3203 240.518 30.2031 240.611C30.0898 240.701 29.9922 240.811 29.9102 240.939C29.8281 241.068 29.7656 241.215 29.7227 241.379H32.3711ZM40.3691 242.457H36.2793C36.3145 242.926 36.4668 243.299 36.7363 243.576C37.0059 243.85 37.3516 243.986 37.7734 243.986C38.1016 243.986 38.373 243.908 38.5879 243.752C38.7988 243.596 39.0391 243.307 39.3086 242.885L40.4219 243.506C40.25 243.799 40.0684 244.051 39.877 244.262C39.6855 244.469 39.4805 244.641 39.2617 244.777C39.043 244.91 38.8066 245.008 38.5527 245.07C38.2988 245.133 38.0234 245.164 37.7266 245.164C36.875 245.164 36.1914 244.891 35.6758 244.344C35.1602 243.793 34.9023 243.062 34.9023 242.152C34.9023 241.25 35.1523 240.52 35.6523 239.961C36.1562 239.41 36.8242 239.135 37.6562 239.135C38.4961 239.135 39.1602 239.402 39.6484 239.938C40.1328 240.469 40.375 241.205 40.375 242.146L40.3691 242.457ZM39.0156 241.379C38.832 240.676 38.3887 240.324 37.6855 240.324C37.5254 240.324 37.375 240.35 37.2344 240.4C37.0938 240.447 36.9648 240.518 36.8477 240.611C36.7344 240.701 36.6367 240.811 36.5547 240.939C36.4727 241.068 36.4102 241.215 36.3672 241.379H39.0156ZM49.7266 239.293H51.0508V245H49.7266V244.402C49.1836 244.91 48.5996 245.164 47.9746 245.164C47.1855 245.164 46.5332 244.879 46.0176 244.309C45.5059 243.727 45.25 243 45.25 242.129C45.25 241.273 45.5059 240.561 46.0176 239.99C46.5293 239.42 47.1699 239.135 47.9395 239.135C48.6035 239.135 49.1992 239.408 49.7266 239.955V239.293ZM46.5977 242.129C46.5977 242.676 46.7441 243.121 47.0371 243.465C47.3379 243.812 47.7168 243.986 48.1738 243.986C48.6621 243.986 49.0566 243.818 49.3574 243.482C49.6582 243.135 49.8086 242.693 49.8086 242.158C49.8086 241.623 49.6582 241.182 49.3574 240.834C49.0566 240.494 48.666 240.324 48.1855 240.324C47.7324 240.324 47.3535 240.496 47.0488 240.84C46.748 241.188 46.5977 241.617 46.5977 242.129ZM56.418 239.293H57.7363V239.803C57.9785 239.549 58.1934 239.375 58.3809 239.281C58.5723 239.184 58.7988 239.135 59.0605 239.135C59.4082 239.135 59.7715 239.248 60.1504 239.475L59.5469 240.682C59.2969 240.502 59.0527 240.412 58.8145 240.412C58.0957 240.412 57.7363 240.955 57.7363 242.041V245H56.418V239.293ZM65.0312 239.293H66.3555V245H65.0312V244.402C64.4883 244.91 63.9043 245.164 63.2793 245.164C62.4902 245.164 61.8379 244.879 61.3223 244.309C60.8105 243.727 60.5547 243 60.5547 242.129C60.5547 241.273 60.8105 240.561 61.3223 239.99C61.834 239.42 62.4746 239.135 63.2441 239.135C63.9082 239.135 64.5039 239.408 65.0312 239.955V239.293ZM61.9023 242.129C61.9023 242.676 62.0488 243.121 62.3418 243.465C62.6426 243.812 63.0215 243.986 63.4785 243.986C63.9668 243.986 64.3613 243.818 64.6621 243.482C64.9629 243.135 65.1133 242.693 65.1133 242.158C65.1133 241.623 64.9629 241.182 64.6621 240.834C64.3613 240.494 63.9707 240.324 63.4902 240.324C63.0371 240.324 62.6582 240.496 62.3535 240.84C62.0527 241.188 61.9023 241.617 61.9023 242.129ZM68.0195 239.293H69.3438V239.82C69.8047 239.363 70.3242 239.135 70.9023 239.135C71.5664 239.135 72.084 239.344 72.4551 239.762C72.7754 240.117 72.9355 240.697 72.9355 241.502V245H71.6113V241.812C71.6113 241.25 71.5332 240.861 71.377 240.646C71.2246 240.428 70.9473 240.318 70.5449 240.318C70.1074 240.318 69.7969 240.463 69.6133 240.752C69.4336 241.037 69.3438 241.535 69.3438 242.246V245H68.0195V239.293ZM78.8125 235.104H80.1367V245H78.8125V244.402C78.293 244.91 77.7051 245.164 77.0488 245.164C76.2676 245.164 75.6191 244.879 75.1035 244.309C74.5918 243.727 74.3359 243 74.3359 242.129C74.3359 241.277 74.5918 240.566 75.1035 239.996C75.6113 239.422 76.25 239.135 77.0195 239.135C77.6875 239.135 78.2852 239.408 78.8125 239.955V235.104ZM75.6836 242.129C75.6836 242.676 75.8301 243.121 76.123 243.465C76.4238 243.812 76.8027 243.986 77.2598 243.986C77.748 243.986 78.1426 243.818 78.4434 243.482C78.7441 243.135 78.8945 242.693 78.8945 242.158C78.8945 241.623 78.7441 241.182 78.4434 240.834C78.1426 240.494 77.752 240.324 77.2715 240.324C76.8184 240.324 76.4395 240.496 76.1348 240.84C75.834 241.188 75.6836 241.617 75.6836 242.129ZM81.5312 242.105C81.5312 241.281 81.8262 240.58 82.416 240.002C83.0059 239.424 83.7246 239.135 84.5723 239.135C85.4238 239.135 86.1465 239.426 86.7402 240.008C87.3262 240.59 87.6191 241.305 87.6191 242.152C87.6191 243.008 87.3242 243.725 86.7344 244.303C86.1406 244.877 85.4121 245.164 84.5488 245.164C83.6934 245.164 82.9766 244.871 82.3984 244.285C81.8203 243.707 81.5312 242.98 81.5312 242.105ZM82.8789 242.129C82.8789 242.699 83.0312 243.15 83.3359 243.482C83.6484 243.818 84.0605 243.986 84.5723 243.986C85.0879 243.986 85.5 243.82 85.8086 243.488C86.1172 243.156 86.2715 242.713 86.2715 242.158C86.2715 241.604 86.1172 241.16 85.8086 240.828C85.4961 240.492 85.084 240.324 84.5723 240.324C84.0684 240.324 83.6602 240.492 83.3477 240.828C83.0352 241.164 82.8789 241.598 82.8789 242.129ZM89.0195 239.293H90.3379V239.82C90.5918 239.555 90.8086 239.375 90.9883 239.281C91.1797 239.184 91.4199 239.135 91.709 239.135C92.3535 239.135 92.8633 239.416 93.2383 239.979C93.6523 239.416 94.2129 239.135 94.9199 239.135C96.2051 239.135 96.8477 239.914 96.8477 241.473V245H95.5234V241.83C95.5234 241.283 95.457 240.896 95.3242 240.67C95.1875 240.439 94.9629 240.324 94.6504 240.324C94.2871 240.324 94.0215 240.461 93.8535 240.734C93.6895 241.008 93.6074 241.447 93.6074 242.053V245H92.2832V241.848C92.2832 240.832 91.9902 240.324 91.4043 240.324C91.0332 240.324 90.7617 240.463 90.5898 240.74C90.4219 241.018 90.3379 241.455 90.3379 242.053V245H89.0195V239.293ZM99.8301 235.104V245H98.5117V235.104H99.8301ZM103.404 243.939L100.838 239.293H102.367L104.113 242.574L105.742 239.293H107.23L102.684 248.105H101.178L103.404 243.939ZM25.334 260.865C25.334 261.135 25.3242 261.371 25.3047 261.574C25.2891 261.781 25.2656 261.963 25.2344 262.119C25.1406 262.549 24.957 262.918 24.6836 263.227C24.168 263.82 23.459 264.117 22.5566 264.117C21.7949 264.117 21.168 263.912 20.6758 263.502C20.168 263.08 19.875 262.496 19.7969 261.75H21.1211C21.1719 262.031 21.2559 262.248 21.373 262.4C21.6465 262.756 22.0449 262.934 22.5684 262.934C23.5332 262.934 24.0156 262.342 24.0156 261.158V260.361C23.4922 260.896 22.8887 261.164 22.2051 261.164C21.4277 261.164 20.791 260.883 20.2949 260.32C19.7949 259.75 19.5449 259.037 19.5449 258.182C19.5449 257.35 19.7773 256.643 20.2422 256.061C20.7422 255.443 21.4023 255.135 22.2227 255.135C22.9414 255.135 23.5391 255.402 24.0156 255.938V255.293H25.334V260.865ZM24.0684 258.158C24.0684 257.604 23.9199 257.16 23.623 256.828C23.3223 256.488 22.9375 256.318 22.4688 256.318C21.9688 256.318 21.5742 256.504 21.2852 256.875C21.0234 257.207 20.8926 257.637 20.8926 258.164C20.8926 258.684 21.0234 259.109 21.2852 259.441C21.5703 259.805 21.9648 259.986 22.4688 259.986C22.9727 259.986 23.3711 259.803 23.6641 259.436C23.9336 259.104 24.0684 258.678 24.0684 258.158ZM32.1953 258.457H28.1055C28.1406 258.926 28.293 259.299 28.5625 259.576C28.832 259.85 29.1777 259.986 29.5996 259.986C29.9277 259.986 30.1992 259.908 30.4141 259.752C30.625 259.596 30.8652 259.307 31.1348 258.885L32.248 259.506C32.0762 259.799 31.8945 260.051 31.7031 260.262C31.5117 260.469 31.3066 260.641 31.0879 260.777C30.8691 260.91 30.6328 261.008 30.3789 261.07C30.125 261.133 29.8496 261.164 29.5527 261.164C28.7012 261.164 28.0176 260.891 27.502 260.344C26.9863 259.793 26.7285 259.062 26.7285 258.152C26.7285 257.25 26.9785 256.52 27.4785 255.961C27.9824 255.41 28.6504 255.135 29.4824 255.135C30.3223 255.135 30.9863 255.402 31.4746 255.938C31.959 256.469 32.2012 257.205 32.2012 258.146L32.1953 258.457ZM30.8418 257.379C30.6582 256.676 30.2148 256.324 29.5117 256.324C29.3516 256.324 29.2012 256.35 29.0605 256.4C28.9199 256.447 28.791 256.518 28.6738 256.611C28.5605 256.701 28.4629 256.811 28.3809 256.939C28.2988 257.068 28.2363 257.215 28.1934 257.379H30.8418ZM33.6426 255.293H34.9668V255.82C35.4277 255.363 35.9473 255.135 36.5254 255.135C37.1895 255.135 37.707 255.344 38.0781 255.762C38.3984 256.117 38.5586 256.697 38.5586 257.502V261H37.2344V257.812C37.2344 257.25 37.1562 256.861 37 256.646C36.8477 256.428 36.5703 256.318 36.168 256.318C35.7305 256.318 35.4199 256.463 35.2363 256.752C35.0566 257.037 34.9668 257.535 34.9668 258.246V261H33.6426V255.293ZM45.4258 258.457H41.3359C41.3711 258.926 41.5234 259.299 41.793 259.576C42.0625 259.85 42.4082 259.986 42.8301 259.986C43.1582 259.986 43.4297 259.908 43.6445 259.752C43.8555 259.596 44.0957 259.307 44.3652 258.885L45.4785 259.506C45.3066 259.799 45.125 260.051 44.9336 260.262C44.7422 260.469 44.5371 260.641 44.3184 260.777C44.0996 260.91 43.8633 261.008 43.6094 261.07C43.3555 261.133 43.0801 261.164 42.7832 261.164C41.9316 261.164 41.248 260.891 40.7324 260.344C40.2168 259.793 39.959 259.062 39.959 258.152C39.959 257.25 40.209 256.52 40.709 255.961C41.2129 255.41 41.8809 255.135 42.7129 255.135C43.5527 255.135 44.2168 255.402 44.7051 255.938C45.1895 256.469 45.4316 257.205 45.4316 258.146L45.4258 258.457ZM44.0723 257.379C43.8887 256.676 43.4453 256.324 42.7422 256.324C42.582 256.324 42.4316 256.35 42.291 256.4C42.1504 256.447 42.0215 256.518 41.9043 256.611C41.791 256.701 41.6934 256.811 41.6113 256.939C41.5293 257.068 41.4668 257.215 41.4238 257.379H44.0723ZM46.873 255.293H48.1914V255.803C48.4336 255.549 48.6484 255.375 48.8359 255.281C49.0273 255.184 49.2539 255.135 49.5156 255.135C49.8633 255.135 50.2266 255.248 50.6055 255.475L50.002 256.682C49.752 256.502 49.5078 256.412 49.2695 256.412C48.5508 256.412 48.1914 256.955 48.1914 258.041V261H46.873V255.293ZM55.4863 255.293H56.8105V261H55.4863V260.402C54.9434 260.91 54.3594 261.164 53.7344 261.164C52.9453 261.164 52.293 260.879 51.7773 260.309C51.2656 259.727 51.0098 259 51.0098 258.129C51.0098 257.273 51.2656 256.561 51.7773 255.99C52.2891 255.42 52.9297 255.135 53.6992 255.135C54.3633 255.135 54.959 255.408 55.4863 255.955V255.293ZM52.3574 258.129C52.3574 258.676 52.5039 259.121 52.7969 259.465C53.0977 259.812 53.4766 259.986 53.9336 259.986C54.4219 259.986 54.8164 259.818 55.1172 259.482C55.418 259.135 55.5684 258.693 55.5684 258.158C55.5684 257.623 55.418 257.182 55.1172 256.834C54.8164 256.494 54.4258 256.324 53.9453 256.324C53.4922 256.324 53.1133 256.496 52.8086 256.84C52.5078 257.188 52.3574 257.617 52.3574 258.129ZM59.834 256.523V261H58.5156V256.523H57.9531V255.293H58.5156V253.201H59.834V255.293H60.8594V256.523H59.834ZM67.0586 258.457H62.9688C63.0039 258.926 63.1562 259.299 63.4258 259.576C63.6953 259.85 64.041 259.986 64.4629 259.986C64.791 259.986 65.0625 259.908 65.2773 259.752C65.4883 259.596 65.7285 259.307 65.998 258.885L67.1113 259.506C66.9395 259.799 66.7578 260.051 66.5664 260.262C66.375 260.469 66.1699 260.641 65.9512 260.777C65.7324 260.91 65.4961 261.008 65.2422 261.07C64.9883 261.133 64.7129 261.164 64.416 261.164C63.5645 261.164 62.8809 260.891 62.3652 260.344C61.8496 259.793 61.5918 259.062 61.5918 258.152C61.5918 257.25 61.8418 256.52 62.3418 255.961C62.8457 255.41 63.5137 255.135 64.3457 255.135C65.1855 255.135 65.8496 255.402 66.3379 255.938C66.8223 256.469 67.0645 257.205 67.0645 258.146L67.0586 258.457ZM65.7051 257.379C65.5215 256.676 65.0781 256.324 64.375 256.324C64.2148 256.324 64.0645 256.35 63.9238 256.4C63.7832 256.447 63.6543 256.518 63.5371 256.611C63.4238 256.701 63.3262 256.811 63.2441 256.939C63.1621 257.068 63.0996 257.215 63.0566 257.379H65.7051ZM72.7129 251.104H74.0371V261H72.7129V260.402C72.1934 260.91 71.6055 261.164 70.9492 261.164C70.168 261.164 69.5195 260.879 69.0039 260.309C68.4922 259.727 68.2363 259 68.2363 258.129C68.2363 257.277 68.4922 256.566 69.0039 255.996C69.5117 255.422 70.1504 255.135 70.9199 255.135C71.5879 255.135 72.1855 255.408 72.7129 255.955V251.104ZM69.584 258.129C69.584 258.676 69.7305 259.121 70.0234 259.465C70.3242 259.812 70.7031 259.986 71.1602 259.986C71.6484 259.986 72.043 259.818 72.3438 259.482C72.6445 259.135 72.7949 258.693 72.7949 258.158C72.7949 257.623 72.6445 257.182 72.3438 256.834C72.043 256.494 71.6523 256.324 71.1719 256.324C70.7188 256.324 70.3398 256.496 70.0352 256.84C69.7344 257.188 69.584 257.617 69.584 258.129ZM80.7637 256.523V261H79.4453V256.523H78.8828V255.293H79.4453V253.201H80.7637V255.293H81.7891V256.523H80.7637ZM82.6855 255.293H84.0039V255.803C84.2461 255.549 84.4609 255.375 84.6484 255.281C84.8398 255.184 85.0664 255.135 85.3281 255.135C85.6758 255.135 86.0391 255.248 86.418 255.475L85.8145 256.682C85.5645 256.502 85.3203 256.412 85.082 256.412C84.3633 256.412 84.0039 256.955 84.0039 258.041V261H82.6855V255.293ZM91.2988 255.293H92.623V261H91.2988V260.402C90.7559 260.91 90.1719 261.164 89.5469 261.164C88.7578 261.164 88.1055 260.879 87.5898 260.309C87.0781 259.727 86.8223 259 86.8223 258.129C86.8223 257.273 87.0781 256.561 87.5898 255.99C88.1016 255.42 88.7422 255.135 89.5117 255.135C90.1758 255.135 90.7715 255.408 91.2988 255.955V255.293ZM88.1699 258.129C88.1699 258.676 88.3164 259.121 88.6094 259.465C88.9102 259.812 89.2891 259.986 89.7461 259.986C90.2344 259.986 90.6289 259.818 90.9297 259.482C91.2305 259.135 91.3809 258.693 91.3809 258.158C91.3809 257.623 91.2305 257.182 90.9297 256.834C90.6289 256.494 90.2383 256.324 89.7578 256.324C89.3047 256.324 88.9258 256.496 88.6211 256.84C88.3203 257.188 88.1699 257.617 88.1699 258.129ZM95.1016 255.293L96.5781 258.498L98.0488 255.293H99.5312L96.5664 261.393L93.625 255.293H95.1016ZM105.414 258.457H101.324C101.359 258.926 101.512 259.299 101.781 259.576C102.051 259.85 102.396 259.986 102.818 259.986C103.146 259.986 103.418 259.908 103.633 259.752C103.844 259.596 104.084 259.307 104.354 258.885L105.467 259.506C105.295 259.799 105.113 260.051 104.922 260.262C104.73 260.469 104.525 260.641 104.307 260.777C104.088 260.91 103.852 261.008 103.598 261.07C103.344 261.133 103.068 261.164 102.771 261.164C101.92 261.164 101.236 260.891 100.721 260.344C100.205 259.793 99.9473 259.062 99.9473 258.152C99.9473 257.25 100.197 256.52 100.697 255.961C101.201 255.41 101.869 255.135 102.701 255.135C103.541 255.135 104.205 255.402 104.693 255.938C105.178 256.469 105.42 257.205 105.42 258.146L105.414 258.457ZM104.061 257.379C103.877 256.676 103.434 256.324 102.73 256.324C102.57 256.324 102.42 256.35 102.279 256.4C102.139 256.447 102.01 256.518 101.893 256.611C101.779 256.701 101.682 256.811 101.6 256.939C101.518 257.068 101.455 257.215 101.412 257.379H104.061ZM108.18 251.104V261H106.861V251.104H108.18ZM23.8105 280.105H22.4922V271.293H23.8105V271.914C24.3301 271.395 24.9199 271.135 25.5801 271.135C26.3652 271.135 27.0117 271.424 27.5195 272.002C28.0352 272.576 28.293 273.301 28.293 274.176C28.293 275.031 28.0371 275.744 27.5254 276.314C27.0176 276.881 26.377 277.164 25.6035 277.164C24.9355 277.164 24.3379 276.896 23.8105 276.361V280.105ZM26.9453 274.182C26.9453 273.635 26.7969 273.189 26.5 272.846C26.1992 272.498 25.8203 272.324 25.3633 272.324C24.8789 272.324 24.4863 272.492 24.1855 272.828C23.8848 273.164 23.7344 273.605 23.7344 274.152C23.7344 274.688 23.8848 275.129 24.1855 275.477C24.4824 275.816 24.873 275.986 25.3574 275.986C25.8145 275.986 26.1914 275.814 26.4883 275.471C26.793 275.127 26.9453 274.697 26.9453 274.182ZM29.6875 267.104H31.0059V271.768C31.4746 271.346 31.9922 271.135 32.5586 271.135C33.2031 271.135 33.7188 271.344 34.1055 271.762C34.4336 272.125 34.5977 272.705 34.5977 273.502V277H33.2793V273.625C33.2793 273.168 33.1973 272.838 33.0332 272.635C32.873 272.428 32.6133 272.324 32.2539 272.324C31.793 272.324 31.4688 272.467 31.2812 272.752C31.0977 273.041 31.0059 273.537 31.0059 274.24V277H29.6875V267.104ZM36.0039 274.105C36.0039 273.281 36.2988 272.58 36.8887 272.002C37.4785 271.424 38.1973 271.135 39.0449 271.135C39.8965 271.135 40.6191 271.426 41.2129 272.008C41.7988 272.59 42.0918 273.305 42.0918 274.152C42.0918 275.008 41.7969 275.725 41.207 276.303C40.6133 276.877 39.8848 277.164 39.0215 277.164C38.166 277.164 37.4492 276.871 36.8711 276.285C36.293 275.707 36.0039 274.98 36.0039 274.105ZM37.3516 274.129C37.3516 274.699 37.5039 275.15 37.8086 275.482C38.1211 275.818 38.5332 275.986 39.0449 275.986C39.5605 275.986 39.9727 275.82 40.2812 275.488C40.5898 275.156 40.7441 274.713 40.7441 274.158C40.7441 273.604 40.5898 273.16 40.2812 272.828C39.9688 272.492 39.5566 272.324 39.0449 272.324C38.541 272.324 38.1328 272.492 37.8203 272.828C37.5078 273.164 37.3516 273.598 37.3516 274.129ZM44.9219 272.523V277H43.6035V272.523H43.041V271.293H43.6035V269.201H44.9219V271.293H45.9473V272.523H44.9219ZM46.6562 274.105C46.6562 273.281 46.9512 272.58 47.541 272.002C48.1309 271.424 48.8496 271.135 49.6973 271.135C50.5488 271.135 51.2715 271.426 51.8652 272.008C52.4512 272.59 52.7441 273.305 52.7441 274.152C52.7441 275.008 52.4492 275.725 51.8594 276.303C51.2656 276.877 50.5371 277.164 49.6738 277.164C48.8184 277.164 48.1016 276.871 47.5234 276.285C46.9453 275.707 46.6562 274.98 46.6562 274.105ZM48.0039 274.129C48.0039 274.699 48.1562 275.15 48.4609 275.482C48.7734 275.818 49.1855 275.986 49.6973 275.986C50.2129 275.986 50.625 275.82 50.9336 275.488C51.2422 275.156 51.3965 274.713 51.3965 274.158C51.3965 273.604 51.2422 273.16 50.9336 272.828C50.6211 272.492 50.209 272.324 49.6973 272.324C49.1934 272.324 48.7852 272.492 48.4727 272.828C48.1602 273.164 48.0039 273.598 48.0039 274.129ZM62.0547 271.293H63.3789V277H62.0547V276.402C61.5117 276.91 60.9277 277.164 60.3027 277.164C59.5137 277.164 58.8613 276.879 58.3457 276.309C57.834 275.727 57.5781 275 57.5781 274.129C57.5781 273.273 57.834 272.561 58.3457 271.99C58.8574 271.42 59.498 271.135 60.2676 271.135C60.9316 271.135 61.5273 271.408 62.0547 271.955V271.293ZM58.9258 274.129C58.9258 274.676 59.0723 275.121 59.3652 275.465C59.666 275.812 60.0449 275.986 60.502 275.986C60.9902 275.986 61.3848 275.818 61.6855 275.482C61.9863 275.135 62.1367 274.693 62.1367 274.158C62.1367 273.623 61.9863 273.182 61.6855 272.834C61.3848 272.494 60.9941 272.324 60.5137 272.324C60.0605 272.324 59.6816 272.496 59.377 272.84C59.0762 273.188 58.9258 273.617 58.9258 274.129ZM65.043 271.293H66.3672V271.82C66.8281 271.363 67.3477 271.135 67.9258 271.135C68.5898 271.135 69.1074 271.344 69.4785 271.762C69.7988 272.117 69.959 272.697 69.959 273.502V277H68.6348V273.812C68.6348 273.25 68.5566 272.861 68.4004 272.646C68.248 272.428 67.9707 272.318 67.5684 272.318C67.1309 272.318 66.8203 272.463 66.6367 272.752C66.457 273.037 66.3672 273.535 66.3672 274.246V277H65.043V271.293ZM75.8359 267.104H77.1602V277H75.8359V276.402C75.3164 276.91 74.7285 277.164 74.0723 277.164C73.291 277.164 72.6426 276.879 72.127 276.309C71.6152 275.727 71.3594 275 71.3594 274.129C71.3594 273.277 71.6152 272.566 72.127 271.996C72.6348 271.422 73.2734 271.135 74.043 271.135C74.7109 271.135 75.3086 271.408 75.8359 271.955V267.104ZM72.707 274.129C72.707 274.676 72.8535 275.121 73.1465 275.465C73.4473 275.812 73.8262 275.986 74.2832 275.986C74.7715 275.986 75.166 275.818 75.4668 275.482C75.7676 275.135 75.918 274.693 75.918 274.158C75.918 273.623 75.7676 273.182 75.4668 272.834C75.166 272.494 74.7754 272.324 74.2949 272.324C73.8418 272.324 73.4629 272.496 73.1582 272.84C72.8574 273.188 72.707 273.617 72.707 274.129ZM85.8438 272.266L84.7539 272.846C84.582 272.494 84.3691 272.318 84.1152 272.318C83.9941 272.318 83.8906 272.359 83.8047 272.441C83.7188 272.52 83.6758 272.621 83.6758 272.746C83.6758 272.965 83.9297 273.182 84.4375 273.396C85.1367 273.697 85.6074 273.975 85.8496 274.229C86.0918 274.482 86.2129 274.824 86.2129 275.254C86.2129 275.805 86.0098 276.266 85.6035 276.637C85.209 276.988 84.7324 277.164 84.1738 277.164C83.2168 277.164 82.5391 276.697 82.1406 275.764L83.2656 275.242C83.4219 275.516 83.541 275.689 83.623 275.764C83.7832 275.912 83.9746 275.986 84.1973 275.986C84.6426 275.986 84.8652 275.783 84.8652 275.377C84.8652 275.143 84.6934 274.924 84.3496 274.721C84.2168 274.654 84.084 274.59 83.9512 274.527C83.8184 274.465 83.6836 274.4 83.5469 274.334C83.1641 274.146 82.8945 273.959 82.7383 273.771C82.5391 273.533 82.4395 273.227 82.4395 272.852C82.4395 272.355 82.6094 271.945 82.9492 271.621C83.2969 271.297 83.7188 271.135 84.2148 271.135C84.9453 271.135 85.4883 271.512 85.8438 272.266ZM91.6094 271.293H92.9336V277H91.6094V276.402C91.0664 276.91 90.4824 277.164 89.8574 277.164C89.0684 277.164 88.416 276.879 87.9004 276.309C87.3887 275.727 87.1328 275 87.1328 274.129C87.1328 273.273 87.3887 272.561 87.9004 271.99C88.4121 271.42 89.0527 271.135 89.8223 271.135C90.4863 271.135 91.082 271.408 91.6094 271.955V271.293ZM88.4805 274.129C88.4805 274.676 88.627 275.121 88.9199 275.465C89.2207 275.812 89.5996 275.986 90.0566 275.986C90.5449 275.986 90.9395 275.818 91.2402 275.482C91.541 275.135 91.6914 274.693 91.6914 274.158C91.6914 273.623 91.541 273.182 91.2402 272.834C90.9395 272.494 90.5488 272.324 90.0684 272.324C89.6152 272.324 89.2363 272.496 88.9316 272.84C88.6309 273.188 88.4805 273.617 88.4805 274.129ZM95.4121 271.293L96.8887 274.498L98.3594 271.293H99.8418L96.877 277.393L93.9355 271.293H95.4121ZM105.725 274.457H101.635C101.67 274.926 101.822 275.299 102.092 275.576C102.361 275.85 102.707 275.986 103.129 275.986C103.457 275.986 103.729 275.908 103.943 275.752C104.154 275.596 104.395 275.307 104.664 274.885L105.777 275.506C105.605 275.799 105.424 276.051 105.232 276.262C105.041 276.469 104.836 276.641 104.617 276.777C104.398 276.91 104.162 277.008 103.908 277.07C103.654 277.133 103.379 277.164 103.082 277.164C102.23 277.164 101.547 276.891 101.031 276.344C100.516 275.793 100.258 275.062 100.258 274.152C100.258 273.25 100.508 272.52 101.008 271.961C101.512 271.41 102.18 271.135 103.012 271.135C103.852 271.135 104.516 271.402 105.004 271.938C105.488 272.469 105.73 273.205 105.73 274.146L105.725 274.457ZM104.371 273.379C104.188 272.676 103.744 272.324 103.041 272.324C102.881 272.324 102.73 272.35 102.59 272.4C102.449 272.447 102.32 272.518 102.203 272.611C102.09 272.701 101.992 272.811 101.91 272.939C101.828 273.068 101.766 273.215 101.723 273.379H104.371ZM25.627 288.523V293H24.3086V288.523H23.7461V287.293H24.3086V285.201H25.627V287.293H26.6523V288.523H25.627ZM27.7949 283.104H29.1133V287.768C29.582 287.346 30.0996 287.135 30.666 287.135C31.3105 287.135 31.8262 287.344 32.2129 287.762C32.541 288.125 32.7051 288.705 32.7051 289.502V293H31.3867V289.625C31.3867 289.168 31.3047 288.838 31.1406 288.635C30.9805 288.428 30.7207 288.324 30.3613 288.324C29.9004 288.324 29.5762 288.467 29.3887 288.752C29.2051 289.041 29.1133 289.537 29.1133 290.24V293H27.7949V283.104ZM38.5879 287.293H39.9121V293H38.5879V292.402C38.0449 292.91 37.4609 293.164 36.8359 293.164C36.0469 293.164 35.3945 292.879 34.8789 292.309C34.3672 291.727 34.1113 291 34.1113 290.129C34.1113 289.273 34.3672 288.561 34.8789 287.99C35.3906 287.42 36.0312 287.135 36.8008 287.135C37.4648 287.135 38.0605 287.408 38.5879 287.955V287.293ZM35.459 290.129C35.459 290.676 35.6055 291.121 35.8984 291.465C36.1992 291.812 36.5781 291.986 37.0352 291.986C37.5234 291.986 37.918 291.818 38.2188 291.482C38.5195 291.135 38.6699 290.693 38.6699 290.158C38.6699 289.623 38.5195 289.182 38.2188 288.834C37.918 288.494 37.5273 288.324 37.0469 288.324C36.5938 288.324 36.2148 288.496 35.9102 288.84C35.6094 289.188 35.459 289.617 35.459 290.129ZM42.9355 288.523V293H41.6172V288.523H41.0547V287.293H41.6172V285.201H42.9355V287.293H43.9609V288.523H42.9355ZM49.8789 296.105H48.5605V287.293H49.8789V287.914C50.3984 287.395 50.9883 287.135 51.6484 287.135C52.4336 287.135 53.0801 287.424 53.5879 288.002C54.1035 288.576 54.3613 289.301 54.3613 290.176C54.3613 291.031 54.1055 291.744 53.5938 292.314C53.0859 292.881 52.4453 293.164 51.6719 293.164C51.0039 293.164 50.4062 292.896 49.8789 292.361V296.105ZM53.0137 290.182C53.0137 289.635 52.8652 289.189 52.5684 288.846C52.2676 288.498 51.8887 288.324 51.4316 288.324C50.9473 288.324 50.5547 288.492 50.2539 288.828C49.9531 289.164 49.8027 289.605 49.8027 290.152C49.8027 290.688 49.9531 291.129 50.2539 291.477C50.5508 291.816 50.9414 291.986 51.4258 291.986C51.8828 291.986 52.2598 291.814 52.5566 291.471C52.8613 291.127 53.0137 290.697 53.0137 290.182ZM55.7559 283.104H57.0742V287.768C57.543 287.346 58.0605 287.135 58.627 287.135C59.2715 287.135 59.7871 287.344 60.1738 287.762C60.502 288.125 60.666 288.705 60.666 289.502V293H59.3477V289.625C59.3477 289.168 59.2656 288.838 59.1016 288.635C58.9414 288.428 58.6816 288.324 58.3223 288.324C57.8613 288.324 57.5371 288.467 57.3496 288.752C57.166 289.041 57.0742 289.537 57.0742 290.24V293H55.7559V283.104ZM62.0723 290.105C62.0723 289.281 62.3672 288.58 62.957 288.002C63.5469 287.424 64.2656 287.135 65.1133 287.135C65.9648 287.135 66.6875 287.426 67.2812 288.008C67.8672 288.59 68.1602 289.305 68.1602 290.152C68.1602 291.008 67.8652 291.725 67.2754 292.303C66.6816 292.877 65.9531 293.164 65.0898 293.164C64.2344 293.164 63.5176 292.871 62.9395 292.285C62.3613 291.707 62.0723 290.98 62.0723 290.105ZM63.4199 290.129C63.4199 290.699 63.5723 291.15 63.877 291.482C64.1895 291.818 64.6016 291.986 65.1133 291.986C65.6289 291.986 66.041 291.82 66.3496 291.488C66.6582 291.156 66.8125 290.713 66.8125 290.158C66.8125 289.604 66.6582 289.16 66.3496 288.828C66.0371 288.492 65.625 288.324 65.1133 288.324C64.6094 288.324 64.2012 288.492 63.8887 288.828C63.5762 289.164 63.4199 289.598 63.4199 290.129ZM70.9902 288.523V293H69.6719V288.523H69.1094V287.293H69.6719V285.201H70.9902V287.293H72.0156V288.523H70.9902ZM72.7246 290.105C72.7246 289.281 73.0195 288.58 73.6094 288.002C74.1992 287.424 74.918 287.135 75.7656 287.135C76.6172 287.135 77.3398 287.426 77.9336 288.008C78.5195 288.59 78.8125 289.305 78.8125 290.152C78.8125 291.008 78.5176 291.725 77.9277 292.303C77.334 292.877 76.6055 293.164 75.7422 293.164C74.8867 293.164 74.1699 292.871 73.5918 292.285C73.0137 291.707 72.7246 290.98 72.7246 290.105ZM74.0723 290.129C74.0723 290.699 74.2246 291.15 74.5293 291.482C74.8418 291.818 75.2539 291.986 75.7656 291.986C76.2812 291.986 76.6934 291.82 77.002 291.488C77.3105 291.156 77.4648 290.713 77.4648 290.158C77.4648 289.604 77.3105 289.16 77.002 288.828C76.6895 288.492 76.2773 288.324 75.7656 288.324C75.2617 288.324 74.8535 288.492 74.541 288.828C74.2285 289.164 74.0723 289.598 74.0723 290.129ZM85.2754 288.523V293H83.957V288.523H83.3945V287.293H83.957V285.201H85.2754V287.293H86.3008V288.523H85.2754ZM87.0098 290.105C87.0098 289.281 87.3047 288.58 87.8945 288.002C88.4844 287.424 89.2031 287.135 90.0508 287.135C90.9023 287.135 91.625 287.426 92.2188 288.008C92.8047 288.59 93.0977 289.305 93.0977 290.152C93.0977 291.008 92.8027 291.725 92.2129 292.303C91.6191 292.877 90.8906 293.164 90.0273 293.164C89.1719 293.164 88.4551 292.871 87.877 292.285C87.2988 291.707 87.0098 290.98 87.0098 290.105ZM88.3574 290.129C88.3574 290.699 88.5098 291.15 88.8145 291.482C89.127 291.818 89.5391 291.986 90.0508 291.986C90.5664 291.986 90.9785 291.82 91.2871 291.488C91.5957 291.156 91.75 290.713 91.75 290.158C91.75 289.604 91.5957 289.16 91.2871 288.828C90.9746 288.492 90.5625 288.324 90.0508 288.324C89.5469 288.324 89.1387 288.492 88.8262 288.828C88.5137 289.164 88.3574 289.598 88.3574 290.129ZM102.408 287.293H103.732V293H102.408V292.402C101.865 292.91 101.281 293.164 100.656 293.164C99.8672 293.164 99.2148 292.879 98.6992 292.309C98.1875 291.727 97.9316 291 97.9316 290.129C97.9316 289.273 98.1875 288.561 98.6992 287.99C99.2109 287.42 99.8516 287.135 100.621 287.135C101.285 287.135 101.881 287.408 102.408 287.955V287.293ZM99.2793 290.129C99.2793 290.676 99.4258 291.121 99.7188 291.465C100.02 291.812 100.398 291.986 100.855 291.986C101.344 291.986 101.738 291.818 102.039 291.482C102.34 291.135 102.49 290.693 102.49 290.158C102.49 289.623 102.34 289.182 102.039 288.834C101.738 288.494 101.348 288.324 100.867 288.324C100.414 288.324 100.035 288.496 99.7305 288.84C99.4297 289.188 99.2793 289.617 99.2793 290.129ZM24.127 303.293H25.4512V303.82C25.9121 303.363 26.4316 303.135 27.0098 303.135C27.6738 303.135 28.1914 303.344 28.5625 303.762C28.8828 304.117 29.043 304.697 29.043 305.502V309H27.7188V305.812C27.7188 305.25 27.6406 304.861 27.4844 304.646C27.332 304.428 27.0547 304.318 26.6523 304.318C26.2148 304.318 25.9043 304.463 25.7207 304.752C25.541 305.037 25.4512 305.535 25.4512 306.246V309H24.127V303.293ZM30.4434 306.105C30.4434 305.281 30.7383 304.58 31.3281 304.002C31.918 303.424 32.6367 303.135 33.4844 303.135C34.3359 303.135 35.0586 303.426 35.6523 304.008C36.2383 304.59 36.5312 305.305 36.5312 306.152C36.5312 307.008 36.2363 307.725 35.6465 308.303C35.0527 308.877 34.3242 309.164 33.4609 309.164C32.6055 309.164 31.8887 308.871 31.3105 308.285C30.7324 307.707 30.4434 306.98 30.4434 306.105ZM31.791 306.129C31.791 306.699 31.9434 307.15 32.248 307.482C32.5605 307.818 32.9727 307.986 33.4844 307.986C34 307.986 34.4121 307.82 34.7207 307.488C35.0293 307.156 35.1836 306.713 35.1836 306.158C35.1836 305.604 35.0293 305.16 34.7207 304.828C34.4082 304.492 33.9961 304.324 33.4844 304.324C32.9805 304.324 32.5723 304.492 32.2598 304.828C31.9473 305.164 31.791 305.598 31.791 306.129ZM39.3613 304.523V309H38.043V304.523H37.4805V303.293H38.043V301.201H39.3613V303.293H40.3867V304.523H39.3613ZM46.5859 306.457H42.4961C42.5312 306.926 42.6836 307.299 42.9531 307.576C43.2227 307.85 43.5684 307.986 43.9902 307.986C44.3184 307.986 44.5898 307.908 44.8047 307.752C45.0156 307.596 45.2559 307.307 45.5254 306.885L46.6387 307.506C46.4668 307.799 46.2852 308.051 46.0938 308.262C45.9023 308.469 45.6973 308.641 45.4785 308.777C45.2598 308.91 45.0234 309.008 44.7695 309.07C44.5156 309.133 44.2402 309.164 43.9434 309.164C43.0918 309.164 42.4082 308.891 41.8926 308.344C41.377 307.793 41.1191 307.062 41.1191 306.152C41.1191 305.25 41.3691 304.52 41.8691 303.961C42.373 303.41 43.041 303.135 43.873 303.135C44.7129 303.135 45.377 303.402 45.8652 303.938C46.3496 304.469 46.5918 305.205 46.5918 306.146L46.5859 306.457ZM45.2324 305.379C45.0488 304.676 44.6055 304.324 43.9023 304.324C43.7422 304.324 43.5918 304.35 43.4512 304.4C43.3105 304.447 43.1816 304.518 43.0645 304.611C42.9512 304.701 42.8535 304.811 42.7715 304.939C42.6895 305.068 42.627 305.215 42.584 305.379H45.2324ZM48.8477 307.307L50.0195 307.764L48.3496 311.109L47.459 310.74L48.8477 307.307ZM56.8047 304.523V309H55.4805V304.523H55.0117V303.293H55.4805V301.09C55.4805 300.371 55.6055 299.863 55.8555 299.566C56.1992 299.152 56.6992 298.945 57.3555 298.945C57.5898 298.945 57.8848 299.014 58.2402 299.15V300.498L58.1055 300.428C57.8203 300.283 57.5859 300.211 57.4023 300.211C57.168 300.211 57.0098 300.295 56.9277 300.463C56.8457 300.627 56.8047 300.943 56.8047 301.412V303.293H58.2402V304.523H56.8047ZM58.8848 306.105C58.8848 305.281 59.1797 304.58 59.7695 304.002C60.3594 303.424 61.0781 303.135 61.9258 303.135C62.7773 303.135 63.5 303.426 64.0938 304.008C64.6797 304.59 64.9727 305.305 64.9727 306.152C64.9727 307.008 64.6777 307.725 64.0879 308.303C63.4941 308.877 62.7656 309.164 61.9023 309.164C61.0469 309.164 60.3301 308.871 59.752 308.285C59.1738 307.707 58.8848 306.98 58.8848 306.105ZM60.2324 306.129C60.2324 306.699 60.3848 307.15 60.6895 307.482C61.002 307.818 61.4141 307.986 61.9258 307.986C62.4414 307.986 62.8535 307.82 63.1621 307.488C63.4707 307.156 63.625 306.713 63.625 306.158C63.625 305.604 63.4707 305.16 63.1621 304.828C62.8496 304.492 62.4375 304.324 61.9258 304.324C61.4219 304.324 61.0137 304.492 60.7012 304.828C60.3887 305.164 60.2324 305.598 60.2324 306.129ZM66.373 303.293H67.6914V303.803C67.9336 303.549 68.1484 303.375 68.3359 303.281C68.5273 303.184 68.7539 303.135 69.0156 303.135C69.3633 303.135 69.7266 303.248 70.1055 303.475L69.502 304.682C69.252 304.502 69.0078 304.412 68.7695 304.412C68.0508 304.412 67.6914 304.955 67.6914 306.041V309H66.373V303.293ZM75.9297 304.523V309H74.6055V304.523H74.1367V303.293H74.6055V301.09C74.6055 300.371 74.7305 299.863 74.9805 299.566C75.3242 299.152 75.8242 298.945 76.4805 298.945C76.7148 298.945 77.0098 299.014 77.3652 299.15V300.498L77.2305 300.428C76.9453 300.283 76.7109 300.211 76.5273 300.211C76.293 300.211 76.1348 300.295 76.0527 300.463C75.9707 300.627 75.9297 300.943 75.9297 301.412V303.293H77.3652V304.523H75.9297ZM79.4453 303.293V306.568C79.4453 307.514 79.8184 307.986 80.5645 307.986C81.3105 307.986 81.6836 307.514 81.6836 306.568V303.293H83.002V306.598C83.002 307.055 82.9453 307.449 82.832 307.781C82.7227 308.078 82.5332 308.346 82.2637 308.584C81.8184 308.971 81.252 309.164 80.5645 309.164C79.8809 309.164 79.3164 308.971 78.8711 308.584C78.5977 308.346 78.4043 308.078 78.291 307.781C78.1816 307.516 78.127 307.121 78.127 306.598V303.293H79.4453ZM86.0254 304.523V309H84.707V304.523H84.1445V303.293H84.707V301.201H86.0254V303.293H87.0508V304.523H86.0254ZM89.2656 303.293V306.568C89.2656 307.514 89.6387 307.986 90.3848 307.986C91.1309 307.986 91.5039 307.514 91.5039 306.568V303.293H92.8223V306.598C92.8223 307.055 92.7656 307.449 92.6523 307.781C92.543 308.078 92.3535 308.346 92.084 308.584C91.6387 308.971 91.0723 309.164 90.3848 309.164C89.7012 309.164 89.1367 308.971 88.6914 308.584C88.418 308.346 88.2246 308.078 88.1113 307.781C88.002 307.516 87.9473 307.121 87.9473 306.598V303.293H89.2656ZM94.4863 303.293H95.8047V303.803C96.0469 303.549 96.2617 303.375 96.4492 303.281C96.6406 303.184 96.8672 303.135 97.1289 303.135C97.4766 303.135 97.8398 303.248 98.2188 303.475L97.6152 304.682C97.3652 304.502 97.1211 304.412 96.8828 304.412C96.1641 304.412 95.8047 304.955 95.8047 306.041V309H94.4863V303.293ZM104.09 306.457H100C100.035 306.926 100.188 307.299 100.457 307.576C100.727 307.85 101.072 307.986 101.494 307.986C101.822 307.986 102.094 307.908 102.309 307.752C102.52 307.596 102.76 307.307 103.029 306.885L104.143 307.506C103.971 307.799 103.789 308.051 103.598 308.262C103.406 308.469 103.201 308.641 102.982 308.777C102.764 308.91 102.527 309.008 102.273 309.07C102.02 309.133 101.744 309.164 101.447 309.164C100.596 309.164 99.9121 308.891 99.3965 308.344C98.8809 307.793 98.623 307.062 98.623 306.152C98.623 305.25 98.873 304.52 99.373 303.961C99.877 303.41 100.545 303.135 101.377 303.135C102.217 303.135 102.881 303.402 103.369 303.938C103.854 304.469 104.096 305.205 104.096 306.146L104.09 306.457ZM102.736 305.379C102.553 304.676 102.109 304.324 101.406 304.324C101.246 304.324 101.096 304.35 100.955 304.4C100.814 304.447 100.686 304.518 100.568 304.611C100.455 304.701 100.357 304.811 100.275 304.939C100.193 305.068 100.131 305.215 100.088 305.379H102.736ZM35.4062 319.293H36.7246V319.803C36.9668 319.549 37.1816 319.375 37.3691 319.281C37.5605 319.184 37.7871 319.135 38.0488 319.135C38.3965 319.135 38.7598 319.248 39.1387 319.475L38.5352 320.682C38.2852 320.502 38.041 320.412 37.8027 320.412C37.084 320.412 36.7246 320.955 36.7246 322.041V325H35.4062V319.293ZM45.0098 322.457H40.9199C40.9551 322.926 41.1074 323.299 41.377 323.576C41.6465 323.85 41.9922 323.986 42.4141 323.986C42.7422 323.986 43.0137 323.908 43.2285 323.752C43.4395 323.596 43.6797 323.307 43.9492 322.885L45.0625 323.506C44.8906 323.799 44.709 324.051 44.5176 324.262C44.3262 324.469 44.1211 324.641 43.9023 324.777C43.6836 324.91 43.4473 325.008 43.1934 325.07C42.9395 325.133 42.6641 325.164 42.3672 325.164C41.5156 325.164 40.832 324.891 40.3164 324.344C39.8008 323.793 39.543 323.062 39.543 322.152C39.543 321.25 39.793 320.52 40.293 319.961C40.7969 319.41 41.4648 319.135 42.2969 319.135C43.1367 319.135 43.8008 319.402 44.2891 319.938C44.7734 320.469 45.0156 321.205 45.0156 322.146L45.0098 322.457ZM43.6562 321.379C43.4727 320.676 43.0293 320.324 42.3262 320.324C42.166 320.324 42.0156 320.35 41.875 320.4C41.7344 320.447 41.6055 320.518 41.4883 320.611C41.375 320.701 41.2773 320.811 41.1953 320.939C41.1133 321.068 41.0508 321.215 41.0078 321.379H43.6562ZM47.8223 320.523V325H46.498V320.523H46.0293V319.293H46.498V317.09C46.498 316.371 46.623 315.863 46.873 315.566C47.2168 315.152 47.7168 314.945 48.373 314.945C48.6074 314.945 48.9023 315.014 49.2578 315.15V316.498L49.123 316.428C48.8379 316.283 48.6035 316.211 48.4199 316.211C48.1855 316.211 48.0273 316.295 47.9453 316.463C47.8633 316.627 47.8223 316.943 47.8223 317.412V319.293H49.2578V320.523H47.8223ZM55.4043 322.457H51.3145C51.3496 322.926 51.502 323.299 51.7715 323.576C52.041 323.85 52.3867 323.986 52.8086 323.986C53.1367 323.986 53.4082 323.908 53.623 323.752C53.834 323.596 54.0742 323.307 54.3438 322.885L55.457 323.506C55.2852 323.799 55.1035 324.051 54.9121 324.262C54.7207 324.469 54.5156 324.641 54.2969 324.777C54.0781 324.91 53.8418 325.008 53.5879 325.07C53.334 325.133 53.0586 325.164 52.7617 325.164C51.9102 325.164 51.2266 324.891 50.7109 324.344C50.1953 323.793 49.9375 323.062 49.9375 322.152C49.9375 321.25 50.1875 320.52 50.6875 319.961C51.1914 319.41 51.8594 319.135 52.6914 319.135C53.5312 319.135 54.1953 319.402 54.6836 319.938C55.168 320.469 55.4102 321.205 55.4102 322.146L55.4043 322.457ZM54.0508 321.379C53.8672 320.676 53.4238 320.324 52.7207 320.324C52.5605 320.324 52.4102 320.35 52.2695 320.4C52.1289 320.447 52 320.518 51.8828 320.611C51.7695 320.701 51.6719 320.811 51.5898 320.939C51.5078 321.068 51.4453 321.215 51.4023 321.379H54.0508ZM56.8516 319.293H58.1699V319.803C58.4121 319.549 58.627 319.375 58.8145 319.281C59.0059 319.184 59.2324 319.135 59.4941 319.135C59.8418 319.135 60.2051 319.248 60.584 319.475L59.9805 320.682C59.7305 320.502 59.4863 320.412 59.248 320.412C58.5293 320.412 58.1699 320.955 58.1699 322.041V325H56.8516V319.293ZM66.4551 322.457H62.3652C62.4004 322.926 62.5527 323.299 62.8223 323.576C63.0918 323.85 63.4375 323.986 63.8594 323.986C64.1875 323.986 64.459 323.908 64.6738 323.752C64.8848 323.596 65.125 323.307 65.3945 322.885L66.5078 323.506C66.3359 323.799 66.1543 324.051 65.9629 324.262C65.7715 324.469 65.5664 324.641 65.3477 324.777C65.1289 324.91 64.8926 325.008 64.6387 325.07C64.3848 325.133 64.1094 325.164 63.8125 325.164C62.9609 325.164 62.2773 324.891 61.7617 324.344C61.2461 323.793 60.9883 323.062 60.9883 322.152C60.9883 321.25 61.2383 320.52 61.7383 319.961C62.2422 319.41 62.9102 319.135 63.7422 319.135C64.582 319.135 65.2461 319.402 65.7344 319.938C66.2188 320.469 66.4609 321.205 66.4609 322.146L66.4551 322.457ZM65.1016 321.379C64.918 320.676 64.4746 320.324 63.7715 320.324C63.6113 320.324 63.4609 320.35 63.3203 320.4C63.1797 320.447 63.0508 320.518 62.9336 320.611C62.8203 320.701 62.7227 320.811 62.6406 320.939C62.5586 321.068 62.4961 321.215 62.4531 321.379H65.1016ZM67.9023 319.293H69.2266V319.82C69.6875 319.363 70.207 319.135 70.7852 319.135C71.4492 319.135 71.9668 319.344 72.3379 319.762C72.6582 320.117 72.8184 320.697 72.8184 321.502V325H71.4941V321.812C71.4941 321.25 71.416 320.861 71.2598 320.646C71.1074 320.428 70.8301 320.318 70.4277 320.318C69.9902 320.318 69.6797 320.463 69.4961 320.752C69.3164 321.037 69.2266 321.535 69.2266 322.246V325H67.9023V319.293ZM78.9297 319.539V321.291C78.6289 320.924 78.3594 320.672 78.1211 320.535C77.8867 320.395 77.6113 320.324 77.2949 320.324C76.7988 320.324 76.3867 320.498 76.0586 320.846C75.7305 321.193 75.5664 321.629 75.5664 322.152C75.5664 322.688 75.7246 323.127 76.041 323.471C76.3613 323.814 76.7695 323.986 77.2656 323.986C77.582 323.986 77.8613 323.918 78.1035 323.781C78.3379 323.648 78.6133 323.391 78.9297 323.008V324.748C78.3945 325.025 77.8594 325.164 77.3242 325.164C76.4414 325.164 75.7031 324.879 75.1094 324.309C74.5156 323.734 74.2188 323.021 74.2188 322.17C74.2188 321.318 74.5195 320.6 75.1211 320.014C75.7227 319.428 76.4609 319.135 77.3359 319.135C77.8984 319.135 78.4297 319.27 78.9297 319.539ZM85.4043 322.457H81.3145C81.3496 322.926 81.502 323.299 81.7715 323.576C82.041 323.85 82.3867 323.986 82.8086 323.986C83.1367 323.986 83.4082 323.908 83.623 323.752C83.834 323.596 84.0742 323.307 84.3438 322.885L85.457 323.506C85.2852 323.799 85.1035 324.051 84.9121 324.262C84.7207 324.469 84.5156 324.641 84.2969 324.777C84.0781 324.91 83.8418 325.008 83.5879 325.07C83.334 325.133 83.0586 325.164 82.7617 325.164C81.9102 325.164 81.2266 324.891 80.7109 324.344C80.1953 323.793 79.9375 323.062 79.9375 322.152C79.9375 321.25 80.1875 320.52 80.6875 319.961C81.1914 319.41 81.8594 319.135 82.6914 319.135C83.5312 319.135 84.1953 319.402 84.6836 319.938C85.168 320.469 85.4102 321.205 85.4102 322.146L85.4043 322.457ZM84.0508 321.379C83.8672 320.676 83.4238 320.324 82.7207 320.324C82.5605 320.324 82.4102 320.35 82.2695 320.4C82.1289 320.447 82 320.518 81.8828 320.611C81.7695 320.701 81.6719 320.811 81.5898 320.939C81.5078 321.068 81.4453 321.215 81.4023 321.379H84.0508ZM87.0566 324.344C87.0566 324.125 87.1367 323.936 87.2969 323.775C87.457 323.615 87.6484 323.535 87.8711 323.535C88.0938 323.535 88.2852 323.615 88.4453 323.775C88.6055 323.936 88.6855 324.127 88.6855 324.35C88.6855 324.576 88.6055 324.77 88.4453 324.93C88.2891 325.086 88.0977 325.164 87.8711 325.164C87.6406 325.164 87.4473 325.086 87.291 324.93C87.1348 324.773 87.0566 324.578 87.0566 324.344ZM33.9297 331.953L36.2852 338L38.7461 331.514L41.1016 338L43.6035 331.953H45.0859L41.043 341.574L38.7168 335.164L36.291 341.58L32.4473 331.953H33.9297ZM45.4316 335.293H46.75V335.803C46.9922 335.549 47.207 335.375 47.3945 335.281C47.5859 335.184 47.8125 335.135 48.0742 335.135C48.4219 335.135 48.7852 335.248 49.1641 335.475L48.5605 336.682C48.3105 336.502 48.0664 336.412 47.8281 336.412C47.1094 336.412 46.75 336.955 46.75 338.041V341H45.4316V335.293ZM51.4258 335.293V341H50.1074V335.293H51.4258ZM49.9082 332.92C49.9082 332.689 49.9922 332.49 50.1602 332.322C50.3281 332.154 50.5293 332.07 50.7637 332.07C51.002 332.07 51.2051 332.154 51.373 332.322C51.541 332.486 51.625 332.688 51.625 332.926C51.625 333.164 51.541 333.367 51.373 333.535C51.209 333.703 51.0078 333.787 50.7695 333.787C50.5312 333.787 50.3281 333.703 50.1602 333.535C49.9922 333.367 49.9082 333.162 49.9082 332.92ZM54.4551 336.523V341H53.1367V336.523H52.5742V335.293H53.1367V333.201H54.4551V335.293H55.4805V336.523H54.4551ZM61.6797 338.457H57.5898C57.625 338.926 57.7773 339.299 58.0469 339.576C58.3164 339.85 58.6621 339.986 59.084 339.986C59.4121 339.986 59.6836 339.908 59.8984 339.752C60.1094 339.596 60.3496 339.307 60.6191 338.885L61.7324 339.506C61.5605 339.799 61.3789 340.051 61.1875 340.262C60.9961 340.469 60.791 340.641 60.5723 340.777C60.3535 340.91 60.1172 341.008 59.8633 341.07C59.6094 341.133 59.334 341.164 59.0371 341.164C58.1855 341.164 57.502 340.891 56.9863 340.344C56.4707 339.793 56.2129 339.062 56.2129 338.152C56.2129 337.25 56.4629 336.52 56.9629 335.961C57.4668 335.41 58.1348 335.135 58.9668 335.135C59.8066 335.135 60.4707 335.402 60.959 335.938C61.4434 336.469 61.6855 337.205 61.6855 338.146L61.6797 338.457ZM60.3262 337.379C60.1426 336.676 59.6992 336.324 58.9961 336.324C58.8359 336.324 58.6855 336.35 58.5449 336.4C58.4043 336.447 58.2754 336.518 58.1582 336.611C58.0449 336.701 57.9473 336.811 57.8652 336.939C57.7832 337.068 57.7207 337.215 57.6777 337.379H60.3262ZM66.8301 335.293H68.1484V335.82C68.4023 335.555 68.6191 335.375 68.7988 335.281C68.9902 335.184 69.2305 335.135 69.5195 335.135C70.1641 335.135 70.6738 335.416 71.0488 335.979C71.4629 335.416 72.0234 335.135 72.7305 335.135C74.0156 335.135 74.6582 335.914 74.6582 337.473V341H73.334V337.83C73.334 337.283 73.2676 336.896 73.1348 336.67C72.998 336.439 72.7734 336.324 72.4609 336.324C72.0977 336.324 71.832 336.461 71.6641 336.734C71.5 337.008 71.418 337.447 71.418 338.053V341H70.0938V337.848C70.0938 336.832 69.8008 336.324 69.2148 336.324C68.8438 336.324 68.5723 336.463 68.4004 336.74C68.2324 337.018 68.1484 337.455 68.1484 338.053V341H66.8301V335.293ZM80.5293 335.293H81.8535V341H80.5293V340.402C79.9863 340.91 79.4023 341.164 78.7773 341.164C77.9883 341.164 77.3359 340.879 76.8203 340.309C76.3086 339.727 76.0527 339 76.0527 338.129C76.0527 337.273 76.3086 336.561 76.8203 335.99C77.332 335.42 77.9727 335.135 78.7422 335.135C79.4062 335.135 80.002 335.408 80.5293 335.955V335.293ZM77.4004 338.129C77.4004 338.676 77.5469 339.121 77.8398 339.465C78.1406 339.812 78.5195 339.986 78.9766 339.986C79.4648 339.986 79.8594 339.818 80.1602 339.482C80.4609 339.135 80.6113 338.693 80.6113 338.158C80.6113 337.623 80.4609 337.182 80.1602 336.834C79.8594 336.494 79.4688 336.324 78.9883 336.324C78.5352 336.324 78.1562 336.496 77.8516 336.84C77.5508 337.188 77.4004 337.617 77.4004 338.129ZM83.5176 335.293H84.8418V335.82C85.3027 335.363 85.8223 335.135 86.4004 335.135C87.0645 335.135 87.582 335.344 87.9531 335.762C88.2734 336.117 88.4336 336.697 88.4336 337.502V341H87.1094V337.812C87.1094 337.25 87.0312 336.861 86.875 336.646C86.7227 336.428 86.4453 336.318 86.043 336.318C85.6055 336.318 85.2949 336.463 85.1113 336.752C84.9316 337.037 84.8418 337.535 84.8418 338.246V341H83.5176V335.293ZM91.7031 339.939L89.1367 335.293H90.666L92.4121 338.574L94.041 335.293H95.5293L90.9824 344.105H89.4766L91.7031 339.939ZM26.125 351.293H27.4492V351.82C27.9102 351.363 28.4297 351.135 29.0078 351.135C29.6719 351.135 30.1895 351.344 30.5605 351.762C30.8809 352.117 31.041 352.697 31.041 353.502V357H29.7168V353.812C29.7168 353.25 29.6387 352.861 29.4824 352.646C29.3301 352.428 29.0527 352.318 28.6504 352.318C28.2129 352.318 27.9023 352.463 27.7188 352.752C27.5391 353.037 27.4492 353.535 27.4492 354.246V357H26.125V351.293ZM32.4414 354.105C32.4414 353.281 32.7363 352.58 33.3262 352.002C33.916 351.424 34.6348 351.135 35.4824 351.135C36.334 351.135 37.0566 351.426 37.6504 352.008C38.2363 352.59 38.5293 353.305 38.5293 354.152C38.5293 355.008 38.2344 355.725 37.6445 356.303C37.0508 356.877 36.3223 357.164 35.459 357.164C34.6035 357.164 33.8867 356.871 33.3086 356.285C32.7305 355.707 32.4414 354.98 32.4414 354.105ZM33.7891 354.129C33.7891 354.699 33.9414 355.15 34.2461 355.482C34.5586 355.818 34.9707 355.986 35.4824 355.986C35.998 355.986 36.4102 355.82 36.7188 355.488C37.0273 355.156 37.1816 354.713 37.1816 354.158C37.1816 353.604 37.0273 353.16 36.7188 352.828C36.4062 352.492 35.9941 352.324 35.4824 352.324C34.9785 352.324 34.5703 352.492 34.2578 352.828C33.9453 353.164 33.7891 353.598 33.7891 354.129ZM41.3594 352.523V357H40.041V352.523H39.4785V351.293H40.041V349.201H41.3594V351.293H42.3848V352.523H41.3594ZM48.584 354.457H44.4941C44.5293 354.926 44.6816 355.299 44.9512 355.576C45.2207 355.85 45.5664 355.986 45.9883 355.986C46.3164 355.986 46.5879 355.908 46.8027 355.752C47.0137 355.596 47.2539 355.307 47.5234 354.885L48.6367 355.506C48.4648 355.799 48.2832 356.051 48.0918 356.262C47.9004 356.469 47.6953 356.641 47.4766 356.777C47.2578 356.91 47.0215 357.008 46.7676 357.07C46.5137 357.133 46.2383 357.164 45.9414 357.164C45.0898 357.164 44.4062 356.891 43.8906 356.344C43.375 355.793 43.1172 355.062 43.1172 354.152C43.1172 353.25 43.3672 352.52 43.8672 351.961C44.3711 351.41 45.0391 351.135 45.8711 351.135C46.7109 351.135 47.375 351.402 47.8633 351.938C48.3477 352.469 48.5898 353.205 48.5898 354.146L48.584 354.457ZM47.2305 353.379C47.0469 352.676 46.6035 352.324 45.9004 352.324C45.7402 352.324 45.5898 352.35 45.4492 352.4C45.3086 352.447 45.1797 352.518 45.0625 352.611C44.9492 352.701 44.8516 352.811 44.7695 352.939C44.6875 353.068 44.625 353.215 44.582 353.379H47.2305ZM53.3477 352.266L52.2578 352.846C52.0859 352.494 51.873 352.318 51.6191 352.318C51.498 352.318 51.3945 352.359 51.3086 352.441C51.2227 352.52 51.1797 352.621 51.1797 352.746C51.1797 352.965 51.4336 353.182 51.9414 353.396C52.6406 353.697 53.1113 353.975 53.3535 354.229C53.5957 354.482 53.7168 354.824 53.7168 355.254C53.7168 355.805 53.5137 356.266 53.1074 356.637C52.7129 356.988 52.2363 357.164 51.6777 357.164C50.7207 357.164 50.043 356.697 49.6445 355.764L50.7695 355.242C50.9258 355.516 51.0449 355.689 51.127 355.764C51.2871 355.912 51.4785 355.986 51.7012 355.986C52.1465 355.986 52.3691 355.783 52.3691 355.377C52.3691 355.143 52.1973 354.924 51.8535 354.721C51.7207 354.654 51.5879 354.59 51.4551 354.527C51.3223 354.465 51.1875 354.4 51.0508 354.334C50.668 354.146 50.3984 353.959 50.2422 353.771C50.043 353.533 49.9434 353.227 49.9434 352.852C49.9434 352.355 50.1133 351.945 50.4531 351.621C50.8008 351.297 51.2227 351.135 51.7188 351.135C52.4492 351.135 52.9922 351.512 53.3477 352.266ZM58.3398 354.105C58.3398 353.281 58.6348 352.58 59.2246 352.002C59.8145 351.424 60.5332 351.135 61.3809 351.135C62.2324 351.135 62.9551 351.426 63.5488 352.008C64.1348 352.59 64.4277 353.305 64.4277 354.152C64.4277 355.008 64.1328 355.725 63.543 356.303C62.9492 356.877 62.2207 357.164 61.3574 357.164C60.502 357.164 59.7852 356.871 59.207 356.285C58.6289 355.707 58.3398 354.98 58.3398 354.105ZM59.6875 354.129C59.6875 354.699 59.8398 355.15 60.1445 355.482C60.457 355.818 60.8691 355.986 61.3809 355.986C61.8965 355.986 62.3086 355.82 62.6172 355.488C62.9258 355.156 63.0801 354.713 63.0801 354.158C63.0801 353.604 62.9258 353.16 62.6172 352.828C62.3047 352.492 61.8926 352.324 61.3809 352.324C60.877 352.324 60.4688 352.492 60.1562 352.828C59.8438 353.164 59.6875 353.598 59.6875 354.129ZM67.1934 352.523V357H65.8691V352.523H65.4004V351.293H65.8691V349.09C65.8691 348.371 65.9941 347.863 66.2441 347.566C66.5879 347.152 67.0879 346.945 67.7441 346.945C67.9785 346.945 68.2734 347.014 68.6289 347.15V348.498L68.4941 348.428C68.209 348.283 67.9746 348.211 67.791 348.211C67.5566 348.211 67.3984 348.295 67.3164 348.463C67.2344 348.627 67.1934 348.943 67.1934 349.412V351.293H68.6289V352.523H67.1934ZM74.4531 352.523V357H73.1348V352.523H72.5723V351.293H73.1348V349.201H74.4531V351.293H75.4785V352.523H74.4531ZM76.375 351.293H77.6934V351.803C77.9355 351.549 78.1504 351.375 78.3379 351.281C78.5293 351.184 78.7559 351.135 79.0176 351.135C79.3652 351.135 79.7285 351.248 80.1074 351.475L79.5039 352.682C79.2539 352.502 79.0098 352.412 78.7715 352.412C78.0527 352.412 77.6934 352.955 77.6934 354.041V357H76.375V351.293ZM84.9883 351.293H86.3125V357H84.9883V356.402C84.4453 356.91 83.8613 357.164 83.2363 357.164C82.4473 357.164 81.7949 356.879 81.2793 356.309C80.7676 355.727 80.5117 355 80.5117 354.129C80.5117 353.273 80.7676 352.561 81.2793 351.99C81.791 351.42 82.4316 351.135 83.2012 351.135C83.8652 351.135 84.4609 351.408 84.9883 351.955V351.293ZM81.8594 354.129C81.8594 354.676 82.0059 355.121 82.2988 355.465C82.5996 355.812 82.9785 355.986 83.4355 355.986C83.9238 355.986 84.3184 355.818 84.6191 355.482C84.9199 355.135 85.0703 354.693 85.0703 354.158C85.0703 353.623 84.9199 353.182 84.6191 352.834C84.3184 352.494 83.9277 352.324 83.4473 352.324C82.9941 352.324 82.6152 352.496 82.3105 352.84C82.0098 353.188 81.8594 353.617 81.8594 354.129ZM88.791 351.293L90.2676 354.498L91.7383 351.293H93.2207L90.2559 357.393L87.3145 351.293H88.791ZM99.1035 354.457H95.0137C95.0488 354.926 95.2012 355.299 95.4707 355.576C95.7402 355.85 96.0859 355.986 96.5078 355.986C96.8359 355.986 97.1074 355.908 97.3223 355.752C97.5332 355.596 97.7734 355.307 98.043 354.885L99.1562 355.506C98.9844 355.799 98.8027 356.051 98.6113 356.262C98.4199 356.469 98.2148 356.641 97.9961 356.777C97.7773 356.91 97.541 357.008 97.2871 357.07C97.0332 357.133 96.7578 357.164 96.4609 357.164C95.6094 357.164 94.9258 356.891 94.4102 356.344C93.8945 355.793 93.6367 355.062 93.6367 354.152C93.6367 353.25 93.8867 352.52 94.3867 351.961C94.8906 351.41 95.5586 351.135 96.3906 351.135C97.2305 351.135 97.8945 351.402 98.3828 351.938C98.8672 352.469 99.1094 353.205 99.1094 354.146L99.1035 354.457ZM97.75 353.379C97.5664 352.676 97.123 352.324 96.4199 352.324C96.2598 352.324 96.1094 352.35 95.9688 352.4C95.8281 352.447 95.6992 352.518 95.582 352.611C95.4688 352.701 95.3711 352.811 95.2891 352.939C95.207 353.068 95.1445 353.215 95.1016 353.379H97.75ZM101.869 347.104V357H100.551V347.104H101.869ZM36.0039 367.293V373H34.6855V367.293H36.0039ZM34.4863 364.92C34.4863 364.689 34.5703 364.49 34.7383 364.322C34.9062 364.154 35.1074 364.07 35.3418 364.07C35.5801 364.07 35.7832 364.154 35.9512 364.322C36.1191 364.486 36.2031 364.688 36.2031 364.926C36.2031 365.164 36.1191 365.367 35.9512 365.535C35.7871 365.703 35.5859 365.787 35.3477 365.787C35.1094 365.787 34.9062 365.703 34.7383 365.535C34.5703 365.367 34.4863 365.162 34.4863 364.92ZM37.6738 367.293H38.998V367.82C39.459 367.363 39.9785 367.135 40.5566 367.135C41.2207 367.135 41.7383 367.344 42.1094 367.762C42.4297 368.117 42.5898 368.697 42.5898 369.502V373H41.2656V369.812C41.2656 369.25 41.1875 368.861 41.0312 368.646C40.8789 368.428 40.6016 368.318 40.1992 368.318C39.7617 368.318 39.4512 368.463 39.2676 368.752C39.0879 369.037 38.998 369.535 38.998 370.246V373H37.6738V367.293ZM47.5762 368.266L46.4863 368.846C46.3145 368.494 46.1016 368.318 45.8477 368.318C45.7266 368.318 45.623 368.359 45.5371 368.441C45.4512 368.52 45.4082 368.621 45.4082 368.746C45.4082 368.965 45.6621 369.182 46.1699 369.396C46.8691 369.697 47.3398 369.975 47.582 370.229C47.8242 370.482 47.9453 370.824 47.9453 371.254C47.9453 371.805 47.7422 372.266 47.3359 372.637C46.9414 372.988 46.4648 373.164 45.9062 373.164C44.9492 373.164 44.2715 372.697 43.873 371.764L44.998 371.242C45.1543 371.516 45.2734 371.689 45.3555 371.764C45.5156 371.912 45.707 371.986 45.9297 371.986C46.375 371.986 46.5977 371.783 46.5977 371.377C46.5977 371.143 46.4258 370.924 46.082 370.721C45.9492 370.654 45.8164 370.59 45.6836 370.527C45.5508 370.465 45.416 370.4 45.2793 370.334C44.8965 370.146 44.627 369.959 44.4707 369.771C44.2715 369.533 44.1719 369.227 44.1719 368.852C44.1719 368.355 44.3418 367.945 44.6816 367.621C45.0293 367.297 45.4512 367.135 45.9473 367.135C46.6777 367.135 47.2207 367.512 47.5762 368.266ZM50.4531 376.105H49.1348V367.293H50.4531V367.914C50.9727 367.395 51.5625 367.135 52.2227 367.135C53.0078 367.135 53.6543 367.424 54.1621 368.002C54.6777 368.576 54.9355 369.301 54.9355 370.176C54.9355 371.031 54.6797 371.744 54.168 372.314C53.6602 372.881 53.0195 373.164 52.2461 373.164C51.5781 373.164 50.9805 372.896 50.4531 372.361V376.105ZM53.5879 370.182C53.5879 369.635 53.4395 369.189 53.1426 368.846C52.8418 368.498 52.4629 368.324 52.0059 368.324C51.5215 368.324 51.1289 368.492 50.8281 368.828C50.5273 369.164 50.377 369.605 50.377 370.152C50.377 370.688 50.5273 371.129 50.8281 371.477C51.125 371.816 51.5156 371.986 52 371.986C52.457 371.986 52.834 371.814 53.1309 371.471C53.4355 371.127 53.5879 370.697 53.5879 370.182ZM57.6484 367.293V373H56.3301V367.293H57.6484ZM56.1309 364.92C56.1309 364.689 56.2148 364.49 56.3828 364.322C56.5508 364.154 56.752 364.07 56.9863 364.07C57.2246 364.07 57.4277 364.154 57.5957 364.322C57.7637 364.486 57.8477 364.688 57.8477 364.926C57.8477 365.164 57.7637 365.367 57.5957 365.535C57.4316 365.703 57.2305 365.787 56.9922 365.787C56.7539 365.787 56.5508 365.703 56.3828 365.535C56.2148 365.367 56.1309 365.162 56.1309 364.92ZM59.3184 367.293H60.6367V367.803C60.8789 367.549 61.0938 367.375 61.2812 367.281C61.4727 367.184 61.6992 367.135 61.9609 367.135C62.3086 367.135 62.6719 367.248 63.0508 367.475L62.4473 368.682C62.1973 368.502 61.9531 368.412 61.7148 368.412C60.9961 368.412 60.6367 368.955 60.6367 370.041V373H59.3184V367.293ZM67.9316 367.293H69.2559V373H67.9316V372.402C67.3887 372.91 66.8047 373.164 66.1797 373.164C65.3906 373.164 64.7383 372.879 64.2227 372.309C63.7109 371.727 63.4551 371 63.4551 370.129C63.4551 369.273 63.7109 368.561 64.2227 367.99C64.7344 367.42 65.375 367.135 66.1445 367.135C66.8086 367.135 67.4043 367.408 67.9316 367.955V367.293ZM64.8027 370.129C64.8027 370.676 64.9492 371.121 65.2422 371.465C65.543 371.812 65.9219 371.986 66.3789 371.986C66.8672 371.986 67.2617 371.818 67.5625 371.482C67.8633 371.135 68.0137 370.693 68.0137 370.158C68.0137 369.623 67.8633 369.182 67.5625 368.834C67.2617 368.494 66.8711 368.324 66.3906 368.324C65.9375 368.324 65.5586 368.496 65.2539 368.84C64.9531 369.188 64.8027 369.617 64.8027 370.129ZM72.2793 368.523V373H70.9609V368.523H70.3984V367.293H70.9609V365.201H72.2793V367.293H73.3047V368.523H72.2793ZM75.5195 367.293V373H74.2012V367.293H75.5195ZM74.002 364.92C74.002 364.689 74.0859 364.49 74.2539 364.322C74.4219 364.154 74.623 364.07 74.8574 364.07C75.0957 364.07 75.2988 364.154 75.4668 364.322C75.6348 364.486 75.7188 364.688 75.7188 364.926C75.7188 365.164 75.6348 365.367 75.4668 365.535C75.3027 365.703 75.1016 365.787 74.8633 365.787C74.625 365.787 74.4219 365.703 74.2539 365.535C74.0859 365.367 74.002 365.162 74.002 364.92ZM76.9199 370.105C76.9199 369.281 77.2148 368.58 77.8047 368.002C78.3945 367.424 79.1133 367.135 79.9609 367.135C80.8125 367.135 81.5352 367.426 82.1289 368.008C82.7148 368.59 83.0078 369.305 83.0078 370.152C83.0078 371.008 82.7129 371.725 82.123 372.303C81.5293 372.877 80.8008 373.164 79.9375 373.164C79.082 373.164 78.3652 372.871 77.7871 372.285C77.209 371.707 76.9199 370.98 76.9199 370.105ZM78.2676 370.129C78.2676 370.699 78.4199 371.15 78.7246 371.482C79.0371 371.818 79.4492 371.986 79.9609 371.986C80.4766 371.986 80.8887 371.82 81.1973 371.488C81.5059 371.156 81.6602 370.713 81.6602 370.158C81.6602 369.604 81.5059 369.16 81.1973 368.828C80.8848 368.492 80.4727 368.324 79.9609 368.324C79.457 368.324 79.0488 368.492 78.7363 368.828C78.4238 369.164 78.2676 369.598 78.2676 370.129ZM84.4082 367.293H85.7324V367.82C86.1934 367.363 86.7129 367.135 87.291 367.135C87.9551 367.135 88.4727 367.344 88.8438 367.762C89.1641 368.117 89.3242 368.697 89.3242 369.502V373H88V369.812C88 369.25 87.9219 368.861 87.7656 368.646C87.6133 368.428 87.3359 368.318 86.9336 368.318C86.4961 368.318 86.1855 368.463 86.002 368.752C85.8223 369.037 85.7324 369.535 85.7324 370.246V373H84.4082V367.293ZM91.3398 372.344C91.3398 372.125 91.4199 371.936 91.5801 371.775C91.7402 371.615 91.9316 371.535 92.1543 371.535C92.377 371.535 92.5684 371.615 92.7285 371.775C92.8887 371.936 92.9688 372.127 92.9688 372.35C92.9688 372.576 92.8887 372.77 92.7285 372.93C92.5723 373.086 92.3809 373.164 92.1543 373.164C91.9238 373.164 91.7305 373.086 91.5742 372.93C91.418 372.773 91.3398 372.578 91.3398 372.344ZM91.4922 370.984V363.953H92.8164V370.984H91.4922Z" fill="white"/>
<defs>
<filter id="filter0_i" x="81" y="48" width="57" height="63" filterUnits="userSpaceOnUse" color-interpolation-filters="sRGB">
<feFlood flood-opacity="0" result="BackgroundImageFix"/>
<feBlend mode="normal" in="SourceGraphic" in2="BackgroundImageFix" result="shape"/>
<feColorMatrix in="SourceAlpha" type="matrix" values="0 0 0 0 0 0 0 0 0 0 0 0 0 0 0 0 0 0 127 0" result="hardAlpha"/>
<feOffset dx="-28"/>
<feGaussianBlur stdDeviation="7.5"/>
<feComposite in2="hardAlpha" operator="arithmetic" k2="-1" k3="1"/>
<feColorMatrix type="matrix" values="0 0 0 0 0.498039 0 0 0 0 0.0941176 0 0 0 0 0.0862745 0 0 0 1 0"/>
<feBlend mode="darken" in2="shape" result="effect1_innerShadow"/>
</filter>
<filter id="filter1_i" x="95" y="99" width="29" height="28" filterUnits="userSpaceOnUse" color-interpolation-filters="sRGB">
<feFlood flood-opacity="0" result="BackgroundImageFix"/>
<feBlend mode="normal" in="SourceGraphic" in2="BackgroundImageFix" result="shape"/>
<feColorMatrix in="SourceAlpha" type="matrix" values="0 0 0 0 0 0 0 0 0 0 0 0 0 0 0 0 0 0 127 0" result="hardAlpha"/>
<feOffset dx="-22" dy="-15"/>
<feGaussianBlur stdDeviation="8.5"/>
<feComposite in2="hardAlpha" operator="arithmetic" k2="-1" k3="1"/>
<feColorMatrix type="matrix" values="0 0 0 0 0.498039 0 0 0 0 0.0941176 0 0 0 0 0.0862745 0 0 0 1 0"/>
<feBlend mode="darken" in2="shape" result="effect1_innerShadow"/>
</filter>
</defs>
</svg>
