<svg width="281" height="86" viewBox="0 0 281 86" fill="none" xmlns="http://www.w3.org/2000/svg">
<rect width="281" height="86" rx="20" fill="#0B4375"/>
<path d="M58.0938 16.9062L62.8047 29L67.7266 16.0273L72.4375 29L77.4414 16.9062H80.4062L72.3203 36.1484L67.668 23.3281L62.8164 36.1602L55.1289 16.9062H58.0938ZM92.6406 19.4727H85.3867V23.8203H92.4297V26.3867H85.3867V32.4336H92.6406V35H82.6562V16.9062H92.6406V19.4727ZM98.957 16.9062V32.4336H104.277V35H96.2266V16.9062H98.957ZM119.441 17.8789V21.1133C117.863 19.793 116.23 19.1328 114.543 19.1328C112.684 19.1328 111.117 19.8008 109.844 21.1367C108.562 22.4648 107.922 24.0898 107.922 26.0117C107.922 27.9102 108.562 29.5117 109.844 30.8164C111.125 32.1211 112.695 32.7734 114.555 32.7734C115.516 32.7734 116.332 32.6172 117.004 32.3047C117.379 32.1484 117.766 31.9375 118.164 31.6719C118.57 31.4062 118.996 31.0859 119.441 30.7109V34.0039C117.879 34.8867 116.238 35.3281 114.52 35.3281C111.934 35.3281 109.727 34.4258 107.898 32.6211C106.078 30.8008 105.168 28.6055 105.168 26.0352C105.168 23.7305 105.93 21.6758 107.453 19.8711C109.328 17.6602 111.754 16.5547 114.73 16.5547C116.355 16.5547 117.926 16.9961 119.441 17.8789ZM121.879 25.8711C121.879 23.3242 122.812 21.1367 124.68 19.3086C126.539 17.4805 128.773 16.5664 131.383 16.5664C133.961 16.5664 136.172 17.4883 138.016 19.332C139.867 21.1758 140.793 23.3906 140.793 25.9766C140.793 28.5781 139.863 30.7852 138.004 32.5977C136.137 34.418 133.883 35.3281 131.242 35.3281C128.906 35.3281 126.809 34.5195 124.949 32.9023C122.902 31.1133 121.879 28.7695 121.879 25.8711ZM124.633 25.9062C124.633 27.9062 125.305 29.5508 126.648 30.8398C127.984 32.1289 129.527 32.7734 131.277 32.7734C133.176 32.7734 134.777 32.1172 136.082 30.8047C137.387 29.4766 138.039 27.8594 138.039 25.9531C138.039 24.0234 137.395 22.4062 136.105 21.1016C134.824 19.7891 133.238 19.1328 131.348 19.1328C129.465 19.1328 127.875 19.7891 126.578 21.1016C125.281 22.3984 124.633 24 124.633 25.9062ZM143.594 35L147.402 15.5469L153.613 29.6094L160.047 15.5469L163.469 35H160.668L158.922 24.0781L153.566 35.832L148.363 24.0664L146.418 35H143.594ZM177.297 19.4727H170.043V23.8203H177.086V26.3867H170.043V32.4336H177.297V35H167.312V16.9062H177.297V19.4727ZM193.281 19.4727V35H190.551V19.4727H186.391V16.9062H197.43V19.4727H193.281ZM198.379 25.8711C198.379 23.3242 199.312 21.1367 201.18 19.3086C203.039 17.4805 205.273 16.5664 207.883 16.5664C210.461 16.5664 212.672 17.4883 214.516 19.332C216.367 21.1758 217.293 23.3906 217.293 25.9766C217.293 28.5781 216.363 30.7852 214.504 32.5977C212.637 34.418 210.383 35.3281 207.742 35.3281C205.406 35.3281 203.309 34.5195 201.449 32.9023C199.402 31.1133 198.379 28.7695 198.379 25.8711ZM201.133 25.9062C201.133 27.9062 201.805 29.5508 203.148 30.8398C204.484 32.1289 206.027 32.7734 207.777 32.7734C209.676 32.7734 211.277 32.1172 212.582 30.8047C213.887 29.4766 214.539 27.8594 214.539 25.9531C214.539 24.0234 213.895 22.4062 212.605 21.1016C211.324 19.7891 209.738 19.1328 207.848 19.1328C205.965 19.1328 204.375 19.7891 203.078 21.1016C201.781 22.3984 201.133 24 201.133 25.9062ZM81.9062 50.4727V66H79.1758V50.4727H75.0156V47.9062H86.0547V50.4727H81.9062ZM91.2227 54.9844H99.0273V47.9062H101.758V66H99.0273V57.5508H91.2227V66H88.4922V47.9062H91.2227V54.9844ZM116.078 50.4727H108.824V54.8203H115.867V57.3867H108.824V63.4336H116.078V66H106.094V47.9062H116.078V50.4727ZM132.062 50.4727V66H129.332V50.4727H125.172V47.9062H136.211V50.4727H132.062ZM148.293 61.6055H140.547L138.531 66H135.59L144.543 46.7695L153.18 66H150.191L148.293 61.6055ZM147.18 59.0391L144.496 52.8867L141.684 59.0391H147.18ZM161.582 58.2891L167.184 66H163.844L158.676 58.5938H158.184V66H155.453V47.9062H158.652C161.043 47.9062 162.77 48.3555 163.832 49.2539C165.004 50.2539 165.59 51.5742 165.59 53.2148C165.59 54.4961 165.223 55.5977 164.488 56.5195C163.754 57.4414 162.785 58.0312 161.582 58.2891ZM158.184 56.2148H159.051C161.637 56.2148 162.93 55.2266 162.93 53.25C162.93 51.3984 161.672 50.4727 159.156 50.4727H158.184V56.2148ZM169.914 66V47.9062H173.711C175.531 47.9062 176.969 48.0859 178.023 48.4453C179.156 48.7969 180.184 49.3945 181.105 50.2383C182.973 51.9414 183.906 54.1797 183.906 56.9531C183.906 59.7344 182.934 61.9844 180.988 63.7031C180.012 64.5625 178.988 65.1602 177.918 65.4961C176.918 65.832 175.5 66 173.664 66H169.914ZM172.645 63.4336H173.875C175.102 63.4336 176.121 63.3047 176.934 63.0469C177.746 62.7734 178.48 62.3398 179.137 61.7461C180.48 60.5195 181.152 58.9219 181.152 56.9531C181.152 54.9688 180.488 53.3594 179.16 52.125C177.965 51.0234 176.203 50.4727 173.875 50.4727H172.645V63.4336ZM190.082 47.9062V66H187.352V47.9062H190.082ZM204.66 50.6016L202.445 51.9141C202.031 51.1953 201.637 50.7266 201.262 50.5078C200.871 50.2578 200.367 50.1328 199.75 50.1328C198.992 50.1328 198.363 50.3477 197.863 50.7773C197.363 51.1992 197.113 51.7305 197.113 52.3711C197.113 53.2539 197.77 53.9648 199.082 54.5039L200.887 55.2422C202.355 55.8359 203.43 56.5625 204.109 57.4219C204.789 58.2734 205.129 59.3203 205.129 60.5625C205.129 62.2266 204.574 63.6016 203.465 64.6875C202.348 65.7812 200.961 66.3281 199.305 66.3281C197.734 66.3281 196.438 65.8633 195.414 64.9336C194.406 64.0039 193.777 62.6953 193.527 61.0078L196.293 60.3984C196.418 61.4609 196.637 62.1953 196.949 62.6016C197.512 63.3828 198.332 63.7734 199.41 63.7734C200.262 63.7734 200.969 63.4883 201.531 62.918C202.094 62.3477 202.375 61.625 202.375 60.75C202.375 60.3984 202.324 60.0781 202.223 59.7891C202.129 59.4922 201.977 59.2227 201.766 58.9805C201.562 58.7305 201.297 58.5 200.969 58.2891C200.641 58.0703 200.25 57.8633 199.797 57.668L198.051 56.9414C195.574 55.8945 194.336 54.3633 194.336 52.3477C194.336 50.9883 194.855 49.8516 195.895 48.9375C196.934 48.0156 198.227 47.5547 199.773 47.5547C201.859 47.5547 203.488 48.5703 204.66 50.6016Z" fill="white"/>
</svg>
